%TF.GenerationSoftware,KiCad,Pcbnew,8.0.0*%
%TF.CreationDate,2024-03-19T23:38:46-04:00*%
%TF.ProjectId,WaterSensor,57617465-7253-4656-9e73-6f722e6b6963,rev?*%
%TF.SameCoordinates,Original*%
%TF.FileFunction,Soldermask,Bot*%
%TF.FilePolarity,Negative*%
%FSLAX46Y46*%
G04 Gerber Fmt 4.6, Leading zero omitted, Abs format (unit mm)*
G04 Created by KiCad (PCBNEW 8.0.0) date 2024-03-19 23:38:46*
%MOMM*%
%LPD*%
G01*
G04 APERTURE LIST*
%ADD10C,0.800000*%
%ADD11C,5.000000*%
%ADD12C,1.400000*%
%ADD13O,1.400000X1.400000*%
%ADD14R,1.700000X1.700000*%
%ADD15O,1.700000X1.700000*%
%ADD16R,1.500000X1.050000*%
%ADD17O,1.500000X1.050000*%
G04 APERTURE END LIST*
D10*
%TO.C,H2*%
X138490000Y-60960000D03*
X139039175Y-59634175D03*
X139039175Y-62285825D03*
X140365000Y-59085000D03*
D11*
X140365000Y-60960000D03*
D10*
X140365000Y-62835000D03*
X141690825Y-59634175D03*
X141690825Y-62285825D03*
X142240000Y-60960000D03*
%TD*%
%TO.C,H4*%
X140365000Y-335280000D03*
X140914175Y-333954175D03*
X140914175Y-336605825D03*
X142240000Y-333405000D03*
D11*
X142240000Y-335280000D03*
D10*
X142240000Y-337155000D03*
X143565825Y-333954175D03*
X143565825Y-336605825D03*
X144115000Y-335280000D03*
%TD*%
%TO.C,H1*%
X418439175Y-57094175D03*
X418988350Y-55768350D03*
X418988350Y-58420000D03*
X420314175Y-55219175D03*
D11*
X420314175Y-57094175D03*
D10*
X420314175Y-58969175D03*
X421640000Y-55768350D03*
X421640000Y-58420000D03*
X422189175Y-57094175D03*
%TD*%
%TO.C,H3*%
X414685000Y-335280000D03*
X415234175Y-333954175D03*
X415234175Y-336605825D03*
X416560000Y-333405000D03*
D11*
X416560000Y-335280000D03*
D10*
X416560000Y-337155000D03*
X417885825Y-333954175D03*
X417885825Y-336605825D03*
X418435000Y-335280000D03*
%TD*%
D12*
%TO.C,R2*%
X395327500Y-68580000D03*
D13*
X393427500Y-68580000D03*
%TD*%
D14*
%TO.C,J2*%
X396240000Y-55880000D03*
D15*
X398780000Y-55880000D03*
X401320000Y-55880000D03*
%TD*%
D12*
%TO.C,R3*%
X388620000Y-71120000D03*
D13*
X386720000Y-71120000D03*
%TD*%
D12*
%TO.C,R1*%
X396240000Y-61600000D03*
D13*
X396240000Y-63500000D03*
%TD*%
D16*
%TO.C,Q1*%
X388620006Y-63500000D03*
D17*
X388620006Y-64770000D03*
X388620006Y-66040000D03*
%TD*%
M02*
