%TF.GenerationSoftware,KiCad,Pcbnew,8.0.0*%
%TF.CreationDate,2024-03-22T00:36:35-04:00*%
%TF.ProjectId,WaterSensor,57617465-7253-4656-9e73-6f722e6b6963,rev?*%
%TF.SameCoordinates,Original*%
%TF.FileFunction,Drillmap*%
%TF.FilePolarity,Positive*%
%FSLAX45Y45*%
G04 Gerber Fmt 4.5, Leading zero omitted, Abs format (unit mm)*
G04 Created by KiCad (PCBNEW 8.0.0) date 2024-03-22 00:36:35*
%MOMM*%
%LPD*%
G01*
G04 APERTURE LIST*
%ADD10C,0.100000*%
%ADD11C,0.200000*%
%ADD12C,0.250000*%
G04 APERTURE END LIST*
D10*
X12700000Y-4572000D02*
X43180000Y-4572000D01*
X43180000Y-35052000D01*
X12700000Y-35052000D01*
X12700000Y-4572000D01*
D11*
D10*
X13824000Y-6071000D02*
X13874000Y-6121000D01*
X13874000Y-6071000D02*
X13824000Y-6121000D01*
X13878917Y-5938417D02*
X13928917Y-5988417D01*
X13928917Y-5938417D02*
X13878917Y-5988417D01*
X13878917Y-6203582D02*
X13928917Y-6253582D01*
X13928917Y-6203582D02*
X13878917Y-6253582D01*
X14011500Y-5883500D02*
X14061500Y-5933500D01*
X14061500Y-5883500D02*
X14011500Y-5933500D01*
X14011500Y-6258500D02*
X14061500Y-6308500D01*
X14061500Y-6258500D02*
X14011500Y-6308500D01*
X14011500Y-33503000D02*
X14061500Y-33553000D01*
X14061500Y-33503000D02*
X14011500Y-33553000D01*
X14066417Y-33370417D02*
X14116417Y-33420417D01*
X14116417Y-33370417D02*
X14066417Y-33420417D01*
X14066417Y-33635583D02*
X14116417Y-33685583D01*
X14116417Y-33635583D02*
X14066417Y-33685583D01*
X14144082Y-5938417D02*
X14194082Y-5988417D01*
X14194082Y-5938417D02*
X14144082Y-5988417D01*
X14144082Y-6203582D02*
X14194082Y-6253582D01*
X14194082Y-6203582D02*
X14144082Y-6253582D01*
X14199000Y-6071000D02*
X14249000Y-6121000D01*
X14249000Y-6071000D02*
X14199000Y-6121000D01*
X14199000Y-33315500D02*
X14249000Y-33365500D01*
X14249000Y-33315500D02*
X14199000Y-33365500D01*
X14199000Y-33690500D02*
X14249000Y-33740500D01*
X14249000Y-33690500D02*
X14199000Y-33740500D01*
X14331582Y-33370417D02*
X14381582Y-33420417D01*
X14381582Y-33370417D02*
X14331582Y-33420417D01*
X14331582Y-33635583D02*
X14381582Y-33685583D01*
X14381582Y-33635583D02*
X14331582Y-33685583D01*
X14386500Y-33503000D02*
X14436500Y-33553000D01*
X14436500Y-33503000D02*
X14386500Y-33553000D01*
X41443500Y-33503000D02*
X41493500Y-33553000D01*
X41493500Y-33503000D02*
X41443500Y-33553000D01*
X41498418Y-33370417D02*
X41548418Y-33420417D01*
X41548418Y-33370417D02*
X41498418Y-33420417D01*
X41498418Y-33635583D02*
X41548418Y-33685583D01*
X41548418Y-33635583D02*
X41498418Y-33685583D01*
X41631000Y-33315500D02*
X41681000Y-33365500D01*
X41681000Y-33315500D02*
X41631000Y-33365500D01*
X41631000Y-33690500D02*
X41681000Y-33740500D01*
X41681000Y-33690500D02*
X41631000Y-33740500D01*
X41763583Y-33370417D02*
X41813583Y-33420417D01*
X41813583Y-33370417D02*
X41763583Y-33420417D01*
X41763583Y-33635583D02*
X41813583Y-33685583D01*
X41813583Y-33635583D02*
X41763583Y-33685583D01*
X41818500Y-33503000D02*
X41868500Y-33553000D01*
X41868500Y-33503000D02*
X41818500Y-33553000D01*
X41818918Y-5684417D02*
X41868918Y-5734417D01*
X41868918Y-5684417D02*
X41818918Y-5734417D01*
X41873835Y-5551835D02*
X41923835Y-5601835D01*
X41923835Y-5551835D02*
X41873835Y-5601835D01*
X41873835Y-5817000D02*
X41923835Y-5867000D01*
X41923835Y-5817000D02*
X41873835Y-5867000D01*
X42006418Y-5496918D02*
X42056418Y-5546918D01*
X42056418Y-5496918D02*
X42006418Y-5546918D01*
X42006418Y-5871917D02*
X42056418Y-5921917D01*
X42056418Y-5871917D02*
X42006418Y-5921917D01*
X42139000Y-5551835D02*
X42189000Y-5601835D01*
X42189000Y-5551835D02*
X42139000Y-5601835D01*
X42139000Y-5817000D02*
X42189000Y-5867000D01*
X42189000Y-5817000D02*
X42139000Y-5867000D01*
X42193918Y-5684417D02*
X42243918Y-5734417D01*
X42243918Y-5684417D02*
X42193918Y-5734417D01*
X39377750Y-6858000D02*
G75*
G02*
X39307750Y-6858000I-35000J0D01*
G01*
X39307750Y-6858000D02*
G75*
G02*
X39377750Y-6858000I35000J0D01*
G01*
X39567750Y-6858000D02*
G75*
G02*
X39497750Y-6858000I-35000J0D01*
G01*
X39497750Y-6858000D02*
G75*
G02*
X39567750Y-6858000I35000J0D01*
G01*
X39659000Y-6160000D02*
G75*
G02*
X39589000Y-6160000I-35000J0D01*
G01*
X39589000Y-6160000D02*
G75*
G02*
X39659000Y-6160000I35000J0D01*
G01*
X39659000Y-6350000D02*
G75*
G02*
X39589000Y-6350000I-35000J0D01*
G01*
X39589000Y-6350000D02*
G75*
G02*
X39659000Y-6350000I35000J0D01*
G01*
X38862001Y-6312500D02*
X38862001Y-6387500D01*
X38824501Y-6350000D02*
X38899501Y-6350000D01*
X38862001Y-6439500D02*
X38862001Y-6514500D01*
X38824501Y-6477000D02*
X38899501Y-6477000D01*
X38862001Y-6566500D02*
X38862001Y-6641500D01*
X38824501Y-6604000D02*
X38899501Y-6604000D01*
X39659356Y-5623356D02*
X39659356Y-5552644D01*
X39588644Y-5552644D01*
X39588644Y-5623356D01*
X39659356Y-5623356D01*
X39913356Y-5623356D02*
X39913356Y-5552644D01*
X39842644Y-5552644D01*
X39842644Y-5623356D01*
X39913356Y-5623356D01*
X40167356Y-5623356D02*
X40167356Y-5552644D01*
X40096644Y-5552644D01*
X40096644Y-5623356D01*
X40167356Y-5623356D01*
D12*
X14036500Y-6221000D02*
X14161500Y-6096000D01*
X14036500Y-5971000D01*
X13911500Y-6096000D01*
X14036500Y-6221000D01*
X14224000Y-33653000D02*
X14349000Y-33528000D01*
X14224000Y-33403000D01*
X14099000Y-33528000D01*
X14224000Y-33653000D01*
X41656000Y-33653000D02*
X41781000Y-33528000D01*
X41656000Y-33403000D01*
X41531000Y-33528000D01*
X41656000Y-33653000D01*
X42031418Y-5834417D02*
X42156418Y-5709417D01*
X42031418Y-5584418D01*
X41906418Y-5709417D01*
X42031418Y-5834417D01*
D11*
X12955777Y-35368484D02*
X12955777Y-35168484D01*
X12955777Y-35168484D02*
X13003396Y-35168484D01*
X13003396Y-35168484D02*
X13031967Y-35178008D01*
X13031967Y-35178008D02*
X13051015Y-35197055D01*
X13051015Y-35197055D02*
X13060539Y-35216103D01*
X13060539Y-35216103D02*
X13070062Y-35254198D01*
X13070062Y-35254198D02*
X13070062Y-35282770D01*
X13070062Y-35282770D02*
X13060539Y-35320865D01*
X13060539Y-35320865D02*
X13051015Y-35339912D01*
X13051015Y-35339912D02*
X13031967Y-35358960D01*
X13031967Y-35358960D02*
X13003396Y-35368484D01*
X13003396Y-35368484D02*
X12955777Y-35368484D01*
X13155777Y-35368484D02*
X13155777Y-35235150D01*
X13155777Y-35273246D02*
X13165301Y-35254198D01*
X13165301Y-35254198D02*
X13174824Y-35244674D01*
X13174824Y-35244674D02*
X13193872Y-35235150D01*
X13193872Y-35235150D02*
X13212920Y-35235150D01*
X13279586Y-35368484D02*
X13279586Y-35235150D01*
X13279586Y-35168484D02*
X13270062Y-35178008D01*
X13270062Y-35178008D02*
X13279586Y-35187531D01*
X13279586Y-35187531D02*
X13289110Y-35178008D01*
X13289110Y-35178008D02*
X13279586Y-35168484D01*
X13279586Y-35168484D02*
X13279586Y-35187531D01*
X13403396Y-35368484D02*
X13384348Y-35358960D01*
X13384348Y-35358960D02*
X13374824Y-35339912D01*
X13374824Y-35339912D02*
X13374824Y-35168484D01*
X13508158Y-35368484D02*
X13489110Y-35358960D01*
X13489110Y-35358960D02*
X13479586Y-35339912D01*
X13479586Y-35339912D02*
X13479586Y-35168484D01*
X13736729Y-35368484D02*
X13736729Y-35168484D01*
X13736729Y-35168484D02*
X13803396Y-35311341D01*
X13803396Y-35311341D02*
X13870062Y-35168484D01*
X13870062Y-35168484D02*
X13870062Y-35368484D01*
X14051015Y-35368484D02*
X14051015Y-35263722D01*
X14051015Y-35263722D02*
X14041491Y-35244674D01*
X14041491Y-35244674D02*
X14022443Y-35235150D01*
X14022443Y-35235150D02*
X13984348Y-35235150D01*
X13984348Y-35235150D02*
X13965301Y-35244674D01*
X14051015Y-35358960D02*
X14031967Y-35368484D01*
X14031967Y-35368484D02*
X13984348Y-35368484D01*
X13984348Y-35368484D02*
X13965301Y-35358960D01*
X13965301Y-35358960D02*
X13955777Y-35339912D01*
X13955777Y-35339912D02*
X13955777Y-35320865D01*
X13955777Y-35320865D02*
X13965301Y-35301817D01*
X13965301Y-35301817D02*
X13984348Y-35292293D01*
X13984348Y-35292293D02*
X14031967Y-35292293D01*
X14031967Y-35292293D02*
X14051015Y-35282770D01*
X14146253Y-35235150D02*
X14146253Y-35435150D01*
X14146253Y-35244674D02*
X14165301Y-35235150D01*
X14165301Y-35235150D02*
X14203396Y-35235150D01*
X14203396Y-35235150D02*
X14222443Y-35244674D01*
X14222443Y-35244674D02*
X14231967Y-35254198D01*
X14231967Y-35254198D02*
X14241491Y-35273246D01*
X14241491Y-35273246D02*
X14241491Y-35330389D01*
X14241491Y-35330389D02*
X14231967Y-35349436D01*
X14231967Y-35349436D02*
X14222443Y-35358960D01*
X14222443Y-35358960D02*
X14203396Y-35368484D01*
X14203396Y-35368484D02*
X14165301Y-35368484D01*
X14165301Y-35368484D02*
X14146253Y-35358960D01*
X14327205Y-35349436D02*
X14336729Y-35358960D01*
X14336729Y-35358960D02*
X14327205Y-35368484D01*
X14327205Y-35368484D02*
X14317682Y-35358960D01*
X14317682Y-35358960D02*
X14327205Y-35349436D01*
X14327205Y-35349436D02*
X14327205Y-35368484D01*
X14327205Y-35244674D02*
X14336729Y-35254198D01*
X14336729Y-35254198D02*
X14327205Y-35263722D01*
X14327205Y-35263722D02*
X14317682Y-35254198D01*
X14317682Y-35254198D02*
X14327205Y-35244674D01*
X14327205Y-35244674D02*
X14327205Y-35263722D01*
D10*
X12645000Y-35672000D02*
X12695000Y-35722000D01*
X12695000Y-35672000D02*
X12645000Y-35722000D01*
D11*
X12993872Y-35588484D02*
X13012920Y-35588484D01*
X13012920Y-35588484D02*
X13031967Y-35598008D01*
X13031967Y-35598008D02*
X13041491Y-35607531D01*
X13041491Y-35607531D02*
X13051015Y-35626579D01*
X13051015Y-35626579D02*
X13060539Y-35664674D01*
X13060539Y-35664674D02*
X13060539Y-35712293D01*
X13060539Y-35712293D02*
X13051015Y-35750389D01*
X13051015Y-35750389D02*
X13041491Y-35769436D01*
X13041491Y-35769436D02*
X13031967Y-35778960D01*
X13031967Y-35778960D02*
X13012920Y-35788484D01*
X13012920Y-35788484D02*
X12993872Y-35788484D01*
X12993872Y-35788484D02*
X12974824Y-35778960D01*
X12974824Y-35778960D02*
X12965301Y-35769436D01*
X12965301Y-35769436D02*
X12955777Y-35750389D01*
X12955777Y-35750389D02*
X12946253Y-35712293D01*
X12946253Y-35712293D02*
X12946253Y-35664674D01*
X12946253Y-35664674D02*
X12955777Y-35626579D01*
X12955777Y-35626579D02*
X12965301Y-35607531D01*
X12965301Y-35607531D02*
X12974824Y-35598008D01*
X12974824Y-35598008D02*
X12993872Y-35588484D01*
X13146253Y-35769436D02*
X13155777Y-35778960D01*
X13155777Y-35778960D02*
X13146253Y-35788484D01*
X13146253Y-35788484D02*
X13136729Y-35778960D01*
X13136729Y-35778960D02*
X13146253Y-35769436D01*
X13146253Y-35769436D02*
X13146253Y-35788484D01*
X13336729Y-35588484D02*
X13241491Y-35588484D01*
X13241491Y-35588484D02*
X13231967Y-35683722D01*
X13231967Y-35683722D02*
X13241491Y-35674198D01*
X13241491Y-35674198D02*
X13260539Y-35664674D01*
X13260539Y-35664674D02*
X13308158Y-35664674D01*
X13308158Y-35664674D02*
X13327205Y-35674198D01*
X13327205Y-35674198D02*
X13336729Y-35683722D01*
X13336729Y-35683722D02*
X13346253Y-35702770D01*
X13346253Y-35702770D02*
X13346253Y-35750389D01*
X13346253Y-35750389D02*
X13336729Y-35769436D01*
X13336729Y-35769436D02*
X13327205Y-35778960D01*
X13327205Y-35778960D02*
X13308158Y-35788484D01*
X13308158Y-35788484D02*
X13260539Y-35788484D01*
X13260539Y-35788484D02*
X13241491Y-35778960D01*
X13241491Y-35778960D02*
X13231967Y-35769436D01*
X13470062Y-35588484D02*
X13489110Y-35588484D01*
X13489110Y-35588484D02*
X13508158Y-35598008D01*
X13508158Y-35598008D02*
X13517682Y-35607531D01*
X13517682Y-35607531D02*
X13527205Y-35626579D01*
X13527205Y-35626579D02*
X13536729Y-35664674D01*
X13536729Y-35664674D02*
X13536729Y-35712293D01*
X13536729Y-35712293D02*
X13527205Y-35750389D01*
X13527205Y-35750389D02*
X13517682Y-35769436D01*
X13517682Y-35769436D02*
X13508158Y-35778960D01*
X13508158Y-35778960D02*
X13489110Y-35788484D01*
X13489110Y-35788484D02*
X13470062Y-35788484D01*
X13470062Y-35788484D02*
X13451015Y-35778960D01*
X13451015Y-35778960D02*
X13441491Y-35769436D01*
X13441491Y-35769436D02*
X13431967Y-35750389D01*
X13431967Y-35750389D02*
X13422443Y-35712293D01*
X13422443Y-35712293D02*
X13422443Y-35664674D01*
X13422443Y-35664674D02*
X13431967Y-35626579D01*
X13431967Y-35626579D02*
X13441491Y-35607531D01*
X13441491Y-35607531D02*
X13451015Y-35598008D01*
X13451015Y-35598008D02*
X13470062Y-35588484D01*
X13660539Y-35588484D02*
X13679586Y-35588484D01*
X13679586Y-35588484D02*
X13698634Y-35598008D01*
X13698634Y-35598008D02*
X13708158Y-35607531D01*
X13708158Y-35607531D02*
X13717682Y-35626579D01*
X13717682Y-35626579D02*
X13727205Y-35664674D01*
X13727205Y-35664674D02*
X13727205Y-35712293D01*
X13727205Y-35712293D02*
X13717682Y-35750389D01*
X13717682Y-35750389D02*
X13708158Y-35769436D01*
X13708158Y-35769436D02*
X13698634Y-35778960D01*
X13698634Y-35778960D02*
X13679586Y-35788484D01*
X13679586Y-35788484D02*
X13660539Y-35788484D01*
X13660539Y-35788484D02*
X13641491Y-35778960D01*
X13641491Y-35778960D02*
X13631967Y-35769436D01*
X13631967Y-35769436D02*
X13622443Y-35750389D01*
X13622443Y-35750389D02*
X13612920Y-35712293D01*
X13612920Y-35712293D02*
X13612920Y-35664674D01*
X13612920Y-35664674D02*
X13622443Y-35626579D01*
X13622443Y-35626579D02*
X13631967Y-35607531D01*
X13631967Y-35607531D02*
X13641491Y-35598008D01*
X13641491Y-35598008D02*
X13660539Y-35588484D01*
X13812920Y-35788484D02*
X13812920Y-35655150D01*
X13812920Y-35674198D02*
X13822443Y-35664674D01*
X13822443Y-35664674D02*
X13841491Y-35655150D01*
X13841491Y-35655150D02*
X13870063Y-35655150D01*
X13870063Y-35655150D02*
X13889110Y-35664674D01*
X13889110Y-35664674D02*
X13898634Y-35683722D01*
X13898634Y-35683722D02*
X13898634Y-35788484D01*
X13898634Y-35683722D02*
X13908158Y-35664674D01*
X13908158Y-35664674D02*
X13927205Y-35655150D01*
X13927205Y-35655150D02*
X13955777Y-35655150D01*
X13955777Y-35655150D02*
X13974824Y-35664674D01*
X13974824Y-35664674D02*
X13984348Y-35683722D01*
X13984348Y-35683722D02*
X13984348Y-35788484D01*
X14079586Y-35788484D02*
X14079586Y-35655150D01*
X14079586Y-35674198D02*
X14089110Y-35664674D01*
X14089110Y-35664674D02*
X14108158Y-35655150D01*
X14108158Y-35655150D02*
X14136729Y-35655150D01*
X14136729Y-35655150D02*
X14155777Y-35664674D01*
X14155777Y-35664674D02*
X14165301Y-35683722D01*
X14165301Y-35683722D02*
X14165301Y-35788484D01*
X14165301Y-35683722D02*
X14174824Y-35664674D01*
X14174824Y-35664674D02*
X14193872Y-35655150D01*
X14193872Y-35655150D02*
X14222443Y-35655150D01*
X14222443Y-35655150D02*
X14241491Y-35664674D01*
X14241491Y-35664674D02*
X14251015Y-35683722D01*
X14251015Y-35683722D02*
X14251015Y-35788484D01*
X14641491Y-35578960D02*
X14470063Y-35836103D01*
X14898634Y-35588484D02*
X14917682Y-35588484D01*
X14917682Y-35588484D02*
X14936729Y-35598008D01*
X14936729Y-35598008D02*
X14946253Y-35607531D01*
X14946253Y-35607531D02*
X14955777Y-35626579D01*
X14955777Y-35626579D02*
X14965301Y-35664674D01*
X14965301Y-35664674D02*
X14965301Y-35712293D01*
X14965301Y-35712293D02*
X14955777Y-35750389D01*
X14955777Y-35750389D02*
X14946253Y-35769436D01*
X14946253Y-35769436D02*
X14936729Y-35778960D01*
X14936729Y-35778960D02*
X14917682Y-35788484D01*
X14917682Y-35788484D02*
X14898634Y-35788484D01*
X14898634Y-35788484D02*
X14879586Y-35778960D01*
X14879586Y-35778960D02*
X14870063Y-35769436D01*
X14870063Y-35769436D02*
X14860539Y-35750389D01*
X14860539Y-35750389D02*
X14851015Y-35712293D01*
X14851015Y-35712293D02*
X14851015Y-35664674D01*
X14851015Y-35664674D02*
X14860539Y-35626579D01*
X14860539Y-35626579D02*
X14870063Y-35607531D01*
X14870063Y-35607531D02*
X14879586Y-35598008D01*
X14879586Y-35598008D02*
X14898634Y-35588484D01*
X15051015Y-35769436D02*
X15060539Y-35778960D01*
X15060539Y-35778960D02*
X15051015Y-35788484D01*
X15051015Y-35788484D02*
X15041491Y-35778960D01*
X15041491Y-35778960D02*
X15051015Y-35769436D01*
X15051015Y-35769436D02*
X15051015Y-35788484D01*
X15184348Y-35588484D02*
X15203396Y-35588484D01*
X15203396Y-35588484D02*
X15222444Y-35598008D01*
X15222444Y-35598008D02*
X15231967Y-35607531D01*
X15231967Y-35607531D02*
X15241491Y-35626579D01*
X15241491Y-35626579D02*
X15251015Y-35664674D01*
X15251015Y-35664674D02*
X15251015Y-35712293D01*
X15251015Y-35712293D02*
X15241491Y-35750389D01*
X15241491Y-35750389D02*
X15231967Y-35769436D01*
X15231967Y-35769436D02*
X15222444Y-35778960D01*
X15222444Y-35778960D02*
X15203396Y-35788484D01*
X15203396Y-35788484D02*
X15184348Y-35788484D01*
X15184348Y-35788484D02*
X15165301Y-35778960D01*
X15165301Y-35778960D02*
X15155777Y-35769436D01*
X15155777Y-35769436D02*
X15146253Y-35750389D01*
X15146253Y-35750389D02*
X15136729Y-35712293D01*
X15136729Y-35712293D02*
X15136729Y-35664674D01*
X15136729Y-35664674D02*
X15146253Y-35626579D01*
X15146253Y-35626579D02*
X15155777Y-35607531D01*
X15155777Y-35607531D02*
X15165301Y-35598008D01*
X15165301Y-35598008D02*
X15184348Y-35588484D01*
X15441491Y-35788484D02*
X15327206Y-35788484D01*
X15384348Y-35788484D02*
X15384348Y-35588484D01*
X15384348Y-35588484D02*
X15365301Y-35617055D01*
X15365301Y-35617055D02*
X15346253Y-35636103D01*
X15346253Y-35636103D02*
X15327206Y-35645627D01*
X15536729Y-35788484D02*
X15574825Y-35788484D01*
X15574825Y-35788484D02*
X15593872Y-35778960D01*
X15593872Y-35778960D02*
X15603396Y-35769436D01*
X15603396Y-35769436D02*
X15622444Y-35740865D01*
X15622444Y-35740865D02*
X15631967Y-35702770D01*
X15631967Y-35702770D02*
X15631967Y-35626579D01*
X15631967Y-35626579D02*
X15622444Y-35607531D01*
X15622444Y-35607531D02*
X15612920Y-35598008D01*
X15612920Y-35598008D02*
X15593872Y-35588484D01*
X15593872Y-35588484D02*
X15555777Y-35588484D01*
X15555777Y-35588484D02*
X15536729Y-35598008D01*
X15536729Y-35598008D02*
X15527206Y-35607531D01*
X15527206Y-35607531D02*
X15517682Y-35626579D01*
X15517682Y-35626579D02*
X15517682Y-35674198D01*
X15517682Y-35674198D02*
X15527206Y-35693246D01*
X15527206Y-35693246D02*
X15536729Y-35702770D01*
X15536729Y-35702770D02*
X15555777Y-35712293D01*
X15555777Y-35712293D02*
X15593872Y-35712293D01*
X15593872Y-35712293D02*
X15612920Y-35702770D01*
X15612920Y-35702770D02*
X15622444Y-35693246D01*
X15622444Y-35693246D02*
X15631967Y-35674198D01*
X15698634Y-35588484D02*
X15831967Y-35588484D01*
X15831967Y-35588484D02*
X15746253Y-35788484D01*
X15898634Y-35588484D02*
X15898634Y-35626579D01*
X15974825Y-35588484D02*
X15974825Y-35626579D01*
X16270063Y-35864674D02*
X16260539Y-35855150D01*
X16260539Y-35855150D02*
X16241491Y-35826579D01*
X16241491Y-35826579D02*
X16231968Y-35807531D01*
X16231968Y-35807531D02*
X16222444Y-35778960D01*
X16222444Y-35778960D02*
X16212920Y-35731341D01*
X16212920Y-35731341D02*
X16212920Y-35693246D01*
X16212920Y-35693246D02*
X16222444Y-35645627D01*
X16222444Y-35645627D02*
X16231968Y-35617055D01*
X16231968Y-35617055D02*
X16241491Y-35598008D01*
X16241491Y-35598008D02*
X16260539Y-35569436D01*
X16260539Y-35569436D02*
X16270063Y-35559912D01*
X16327206Y-35588484D02*
X16451015Y-35588484D01*
X16451015Y-35588484D02*
X16384348Y-35664674D01*
X16384348Y-35664674D02*
X16412920Y-35664674D01*
X16412920Y-35664674D02*
X16431968Y-35674198D01*
X16431968Y-35674198D02*
X16441491Y-35683722D01*
X16441491Y-35683722D02*
X16451015Y-35702770D01*
X16451015Y-35702770D02*
X16451015Y-35750389D01*
X16451015Y-35750389D02*
X16441491Y-35769436D01*
X16441491Y-35769436D02*
X16431968Y-35778960D01*
X16431968Y-35778960D02*
X16412920Y-35788484D01*
X16412920Y-35788484D02*
X16355777Y-35788484D01*
X16355777Y-35788484D02*
X16336729Y-35778960D01*
X16336729Y-35778960D02*
X16327206Y-35769436D01*
X16527206Y-35607531D02*
X16536729Y-35598008D01*
X16536729Y-35598008D02*
X16555777Y-35588484D01*
X16555777Y-35588484D02*
X16603396Y-35588484D01*
X16603396Y-35588484D02*
X16622444Y-35598008D01*
X16622444Y-35598008D02*
X16631968Y-35607531D01*
X16631968Y-35607531D02*
X16641491Y-35626579D01*
X16641491Y-35626579D02*
X16641491Y-35645627D01*
X16641491Y-35645627D02*
X16631968Y-35674198D01*
X16631968Y-35674198D02*
X16517682Y-35788484D01*
X16517682Y-35788484D02*
X16641491Y-35788484D01*
X16879587Y-35788484D02*
X16879587Y-35588484D01*
X16965301Y-35788484D02*
X16965301Y-35683722D01*
X16965301Y-35683722D02*
X16955777Y-35664674D01*
X16955777Y-35664674D02*
X16936730Y-35655150D01*
X16936730Y-35655150D02*
X16908158Y-35655150D01*
X16908158Y-35655150D02*
X16889111Y-35664674D01*
X16889111Y-35664674D02*
X16879587Y-35674198D01*
X17089111Y-35788484D02*
X17070063Y-35778960D01*
X17070063Y-35778960D02*
X17060539Y-35769436D01*
X17060539Y-35769436D02*
X17051015Y-35750389D01*
X17051015Y-35750389D02*
X17051015Y-35693246D01*
X17051015Y-35693246D02*
X17060539Y-35674198D01*
X17060539Y-35674198D02*
X17070063Y-35664674D01*
X17070063Y-35664674D02*
X17089111Y-35655150D01*
X17089111Y-35655150D02*
X17117682Y-35655150D01*
X17117682Y-35655150D02*
X17136730Y-35664674D01*
X17136730Y-35664674D02*
X17146253Y-35674198D01*
X17146253Y-35674198D02*
X17155777Y-35693246D01*
X17155777Y-35693246D02*
X17155777Y-35750389D01*
X17155777Y-35750389D02*
X17146253Y-35769436D01*
X17146253Y-35769436D02*
X17136730Y-35778960D01*
X17136730Y-35778960D02*
X17117682Y-35788484D01*
X17117682Y-35788484D02*
X17089111Y-35788484D01*
X17270063Y-35788484D02*
X17251015Y-35778960D01*
X17251015Y-35778960D02*
X17241492Y-35759912D01*
X17241492Y-35759912D02*
X17241492Y-35588484D01*
X17422444Y-35778960D02*
X17403396Y-35788484D01*
X17403396Y-35788484D02*
X17365301Y-35788484D01*
X17365301Y-35788484D02*
X17346253Y-35778960D01*
X17346253Y-35778960D02*
X17336730Y-35759912D01*
X17336730Y-35759912D02*
X17336730Y-35683722D01*
X17336730Y-35683722D02*
X17346253Y-35664674D01*
X17346253Y-35664674D02*
X17365301Y-35655150D01*
X17365301Y-35655150D02*
X17403396Y-35655150D01*
X17403396Y-35655150D02*
X17422444Y-35664674D01*
X17422444Y-35664674D02*
X17431968Y-35683722D01*
X17431968Y-35683722D02*
X17431968Y-35702770D01*
X17431968Y-35702770D02*
X17336730Y-35721817D01*
X17508158Y-35778960D02*
X17527206Y-35788484D01*
X17527206Y-35788484D02*
X17565301Y-35788484D01*
X17565301Y-35788484D02*
X17584349Y-35778960D01*
X17584349Y-35778960D02*
X17593873Y-35759912D01*
X17593873Y-35759912D02*
X17593873Y-35750389D01*
X17593873Y-35750389D02*
X17584349Y-35731341D01*
X17584349Y-35731341D02*
X17565301Y-35721817D01*
X17565301Y-35721817D02*
X17536730Y-35721817D01*
X17536730Y-35721817D02*
X17517682Y-35712293D01*
X17517682Y-35712293D02*
X17508158Y-35693246D01*
X17508158Y-35693246D02*
X17508158Y-35683722D01*
X17508158Y-35683722D02*
X17517682Y-35664674D01*
X17517682Y-35664674D02*
X17536730Y-35655150D01*
X17536730Y-35655150D02*
X17565301Y-35655150D01*
X17565301Y-35655150D02*
X17584349Y-35664674D01*
X17660539Y-35864674D02*
X17670063Y-35855150D01*
X17670063Y-35855150D02*
X17689111Y-35826579D01*
X17689111Y-35826579D02*
X17698634Y-35807531D01*
X17698634Y-35807531D02*
X17708158Y-35778960D01*
X17708158Y-35778960D02*
X17717682Y-35731341D01*
X17717682Y-35731341D02*
X17717682Y-35693246D01*
X17717682Y-35693246D02*
X17708158Y-35645627D01*
X17708158Y-35645627D02*
X17698634Y-35617055D01*
X17698634Y-35617055D02*
X17689111Y-35598008D01*
X17689111Y-35598008D02*
X17670063Y-35569436D01*
X17670063Y-35569436D02*
X17660539Y-35559912D01*
D10*
X12695000Y-35961000D02*
G75*
G02*
X12625000Y-35961000I-35000J0D01*
G01*
X12625000Y-35961000D02*
G75*
G02*
X12695000Y-35961000I35000J0D01*
G01*
D11*
X12993872Y-35852484D02*
X13012920Y-35852484D01*
X13012920Y-35852484D02*
X13031967Y-35862008D01*
X13031967Y-35862008D02*
X13041491Y-35871531D01*
X13041491Y-35871531D02*
X13051015Y-35890579D01*
X13051015Y-35890579D02*
X13060539Y-35928674D01*
X13060539Y-35928674D02*
X13060539Y-35976293D01*
X13060539Y-35976293D02*
X13051015Y-36014389D01*
X13051015Y-36014389D02*
X13041491Y-36033436D01*
X13041491Y-36033436D02*
X13031967Y-36042960D01*
X13031967Y-36042960D02*
X13012920Y-36052484D01*
X13012920Y-36052484D02*
X12993872Y-36052484D01*
X12993872Y-36052484D02*
X12974824Y-36042960D01*
X12974824Y-36042960D02*
X12965301Y-36033436D01*
X12965301Y-36033436D02*
X12955777Y-36014389D01*
X12955777Y-36014389D02*
X12946253Y-35976293D01*
X12946253Y-35976293D02*
X12946253Y-35928674D01*
X12946253Y-35928674D02*
X12955777Y-35890579D01*
X12955777Y-35890579D02*
X12965301Y-35871531D01*
X12965301Y-35871531D02*
X12974824Y-35862008D01*
X12974824Y-35862008D02*
X12993872Y-35852484D01*
X13146253Y-36033436D02*
X13155777Y-36042960D01*
X13155777Y-36042960D02*
X13146253Y-36052484D01*
X13146253Y-36052484D02*
X13136729Y-36042960D01*
X13136729Y-36042960D02*
X13146253Y-36033436D01*
X13146253Y-36033436D02*
X13146253Y-36052484D01*
X13222443Y-35852484D02*
X13355777Y-35852484D01*
X13355777Y-35852484D02*
X13270062Y-36052484D01*
X13470062Y-35852484D02*
X13489110Y-35852484D01*
X13489110Y-35852484D02*
X13508158Y-35862008D01*
X13508158Y-35862008D02*
X13517682Y-35871531D01*
X13517682Y-35871531D02*
X13527205Y-35890579D01*
X13527205Y-35890579D02*
X13536729Y-35928674D01*
X13536729Y-35928674D02*
X13536729Y-35976293D01*
X13536729Y-35976293D02*
X13527205Y-36014389D01*
X13527205Y-36014389D02*
X13517682Y-36033436D01*
X13517682Y-36033436D02*
X13508158Y-36042960D01*
X13508158Y-36042960D02*
X13489110Y-36052484D01*
X13489110Y-36052484D02*
X13470062Y-36052484D01*
X13470062Y-36052484D02*
X13451015Y-36042960D01*
X13451015Y-36042960D02*
X13441491Y-36033436D01*
X13441491Y-36033436D02*
X13431967Y-36014389D01*
X13431967Y-36014389D02*
X13422443Y-35976293D01*
X13422443Y-35976293D02*
X13422443Y-35928674D01*
X13422443Y-35928674D02*
X13431967Y-35890579D01*
X13431967Y-35890579D02*
X13441491Y-35871531D01*
X13441491Y-35871531D02*
X13451015Y-35862008D01*
X13451015Y-35862008D02*
X13470062Y-35852484D01*
X13660539Y-35852484D02*
X13679586Y-35852484D01*
X13679586Y-35852484D02*
X13698634Y-35862008D01*
X13698634Y-35862008D02*
X13708158Y-35871531D01*
X13708158Y-35871531D02*
X13717682Y-35890579D01*
X13717682Y-35890579D02*
X13727205Y-35928674D01*
X13727205Y-35928674D02*
X13727205Y-35976293D01*
X13727205Y-35976293D02*
X13717682Y-36014389D01*
X13717682Y-36014389D02*
X13708158Y-36033436D01*
X13708158Y-36033436D02*
X13698634Y-36042960D01*
X13698634Y-36042960D02*
X13679586Y-36052484D01*
X13679586Y-36052484D02*
X13660539Y-36052484D01*
X13660539Y-36052484D02*
X13641491Y-36042960D01*
X13641491Y-36042960D02*
X13631967Y-36033436D01*
X13631967Y-36033436D02*
X13622443Y-36014389D01*
X13622443Y-36014389D02*
X13612920Y-35976293D01*
X13612920Y-35976293D02*
X13612920Y-35928674D01*
X13612920Y-35928674D02*
X13622443Y-35890579D01*
X13622443Y-35890579D02*
X13631967Y-35871531D01*
X13631967Y-35871531D02*
X13641491Y-35862008D01*
X13641491Y-35862008D02*
X13660539Y-35852484D01*
X13812920Y-36052484D02*
X13812920Y-35919150D01*
X13812920Y-35938198D02*
X13822443Y-35928674D01*
X13822443Y-35928674D02*
X13841491Y-35919150D01*
X13841491Y-35919150D02*
X13870063Y-35919150D01*
X13870063Y-35919150D02*
X13889110Y-35928674D01*
X13889110Y-35928674D02*
X13898634Y-35947722D01*
X13898634Y-35947722D02*
X13898634Y-36052484D01*
X13898634Y-35947722D02*
X13908158Y-35928674D01*
X13908158Y-35928674D02*
X13927205Y-35919150D01*
X13927205Y-35919150D02*
X13955777Y-35919150D01*
X13955777Y-35919150D02*
X13974824Y-35928674D01*
X13974824Y-35928674D02*
X13984348Y-35947722D01*
X13984348Y-35947722D02*
X13984348Y-36052484D01*
X14079586Y-36052484D02*
X14079586Y-35919150D01*
X14079586Y-35938198D02*
X14089110Y-35928674D01*
X14089110Y-35928674D02*
X14108158Y-35919150D01*
X14108158Y-35919150D02*
X14136729Y-35919150D01*
X14136729Y-35919150D02*
X14155777Y-35928674D01*
X14155777Y-35928674D02*
X14165301Y-35947722D01*
X14165301Y-35947722D02*
X14165301Y-36052484D01*
X14165301Y-35947722D02*
X14174824Y-35928674D01*
X14174824Y-35928674D02*
X14193872Y-35919150D01*
X14193872Y-35919150D02*
X14222443Y-35919150D01*
X14222443Y-35919150D02*
X14241491Y-35928674D01*
X14241491Y-35928674D02*
X14251015Y-35947722D01*
X14251015Y-35947722D02*
X14251015Y-36052484D01*
X14641491Y-35842960D02*
X14470063Y-36100103D01*
X14898634Y-35852484D02*
X14917682Y-35852484D01*
X14917682Y-35852484D02*
X14936729Y-35862008D01*
X14936729Y-35862008D02*
X14946253Y-35871531D01*
X14946253Y-35871531D02*
X14955777Y-35890579D01*
X14955777Y-35890579D02*
X14965301Y-35928674D01*
X14965301Y-35928674D02*
X14965301Y-35976293D01*
X14965301Y-35976293D02*
X14955777Y-36014389D01*
X14955777Y-36014389D02*
X14946253Y-36033436D01*
X14946253Y-36033436D02*
X14936729Y-36042960D01*
X14936729Y-36042960D02*
X14917682Y-36052484D01*
X14917682Y-36052484D02*
X14898634Y-36052484D01*
X14898634Y-36052484D02*
X14879586Y-36042960D01*
X14879586Y-36042960D02*
X14870063Y-36033436D01*
X14870063Y-36033436D02*
X14860539Y-36014389D01*
X14860539Y-36014389D02*
X14851015Y-35976293D01*
X14851015Y-35976293D02*
X14851015Y-35928674D01*
X14851015Y-35928674D02*
X14860539Y-35890579D01*
X14860539Y-35890579D02*
X14870063Y-35871531D01*
X14870063Y-35871531D02*
X14879586Y-35862008D01*
X14879586Y-35862008D02*
X14898634Y-35852484D01*
X15051015Y-36033436D02*
X15060539Y-36042960D01*
X15060539Y-36042960D02*
X15051015Y-36052484D01*
X15051015Y-36052484D02*
X15041491Y-36042960D01*
X15041491Y-36042960D02*
X15051015Y-36033436D01*
X15051015Y-36033436D02*
X15051015Y-36052484D01*
X15184348Y-35852484D02*
X15203396Y-35852484D01*
X15203396Y-35852484D02*
X15222444Y-35862008D01*
X15222444Y-35862008D02*
X15231967Y-35871531D01*
X15231967Y-35871531D02*
X15241491Y-35890579D01*
X15241491Y-35890579D02*
X15251015Y-35928674D01*
X15251015Y-35928674D02*
X15251015Y-35976293D01*
X15251015Y-35976293D02*
X15241491Y-36014389D01*
X15241491Y-36014389D02*
X15231967Y-36033436D01*
X15231967Y-36033436D02*
X15222444Y-36042960D01*
X15222444Y-36042960D02*
X15203396Y-36052484D01*
X15203396Y-36052484D02*
X15184348Y-36052484D01*
X15184348Y-36052484D02*
X15165301Y-36042960D01*
X15165301Y-36042960D02*
X15155777Y-36033436D01*
X15155777Y-36033436D02*
X15146253Y-36014389D01*
X15146253Y-36014389D02*
X15136729Y-35976293D01*
X15136729Y-35976293D02*
X15136729Y-35928674D01*
X15136729Y-35928674D02*
X15146253Y-35890579D01*
X15146253Y-35890579D02*
X15155777Y-35871531D01*
X15155777Y-35871531D02*
X15165301Y-35862008D01*
X15165301Y-35862008D02*
X15184348Y-35852484D01*
X15327206Y-35871531D02*
X15336729Y-35862008D01*
X15336729Y-35862008D02*
X15355777Y-35852484D01*
X15355777Y-35852484D02*
X15403396Y-35852484D01*
X15403396Y-35852484D02*
X15422444Y-35862008D01*
X15422444Y-35862008D02*
X15431967Y-35871531D01*
X15431967Y-35871531D02*
X15441491Y-35890579D01*
X15441491Y-35890579D02*
X15441491Y-35909627D01*
X15441491Y-35909627D02*
X15431967Y-35938198D01*
X15431967Y-35938198D02*
X15317682Y-36052484D01*
X15317682Y-36052484D02*
X15441491Y-36052484D01*
X15508158Y-35852484D02*
X15641491Y-35852484D01*
X15641491Y-35852484D02*
X15555777Y-36052484D01*
X15803396Y-35852484D02*
X15765301Y-35852484D01*
X15765301Y-35852484D02*
X15746253Y-35862008D01*
X15746253Y-35862008D02*
X15736729Y-35871531D01*
X15736729Y-35871531D02*
X15717682Y-35900103D01*
X15717682Y-35900103D02*
X15708158Y-35938198D01*
X15708158Y-35938198D02*
X15708158Y-36014389D01*
X15708158Y-36014389D02*
X15717682Y-36033436D01*
X15717682Y-36033436D02*
X15727206Y-36042960D01*
X15727206Y-36042960D02*
X15746253Y-36052484D01*
X15746253Y-36052484D02*
X15784348Y-36052484D01*
X15784348Y-36052484D02*
X15803396Y-36042960D01*
X15803396Y-36042960D02*
X15812920Y-36033436D01*
X15812920Y-36033436D02*
X15822444Y-36014389D01*
X15822444Y-36014389D02*
X15822444Y-35966770D01*
X15822444Y-35966770D02*
X15812920Y-35947722D01*
X15812920Y-35947722D02*
X15803396Y-35938198D01*
X15803396Y-35938198D02*
X15784348Y-35928674D01*
X15784348Y-35928674D02*
X15746253Y-35928674D01*
X15746253Y-35928674D02*
X15727206Y-35938198D01*
X15727206Y-35938198D02*
X15717682Y-35947722D01*
X15717682Y-35947722D02*
X15708158Y-35966770D01*
X15898634Y-35852484D02*
X15898634Y-35890579D01*
X15974825Y-35852484D02*
X15974825Y-35890579D01*
X16270063Y-36128674D02*
X16260539Y-36119150D01*
X16260539Y-36119150D02*
X16241491Y-36090579D01*
X16241491Y-36090579D02*
X16231968Y-36071531D01*
X16231968Y-36071531D02*
X16222444Y-36042960D01*
X16222444Y-36042960D02*
X16212920Y-35995341D01*
X16212920Y-35995341D02*
X16212920Y-35957246D01*
X16212920Y-35957246D02*
X16222444Y-35909627D01*
X16222444Y-35909627D02*
X16231968Y-35881055D01*
X16231968Y-35881055D02*
X16241491Y-35862008D01*
X16241491Y-35862008D02*
X16260539Y-35833436D01*
X16260539Y-35833436D02*
X16270063Y-35823912D01*
X16431968Y-35919150D02*
X16431968Y-36052484D01*
X16384348Y-35842960D02*
X16336729Y-35985817D01*
X16336729Y-35985817D02*
X16460539Y-35985817D01*
X16689110Y-36052484D02*
X16689110Y-35852484D01*
X16774825Y-36052484D02*
X16774825Y-35947722D01*
X16774825Y-35947722D02*
X16765301Y-35928674D01*
X16765301Y-35928674D02*
X16746253Y-35919150D01*
X16746253Y-35919150D02*
X16717682Y-35919150D01*
X16717682Y-35919150D02*
X16698634Y-35928674D01*
X16698634Y-35928674D02*
X16689110Y-35938198D01*
X16898634Y-36052484D02*
X16879587Y-36042960D01*
X16879587Y-36042960D02*
X16870063Y-36033436D01*
X16870063Y-36033436D02*
X16860539Y-36014389D01*
X16860539Y-36014389D02*
X16860539Y-35957246D01*
X16860539Y-35957246D02*
X16870063Y-35938198D01*
X16870063Y-35938198D02*
X16879587Y-35928674D01*
X16879587Y-35928674D02*
X16898634Y-35919150D01*
X16898634Y-35919150D02*
X16927206Y-35919150D01*
X16927206Y-35919150D02*
X16946253Y-35928674D01*
X16946253Y-35928674D02*
X16955777Y-35938198D01*
X16955777Y-35938198D02*
X16965301Y-35957246D01*
X16965301Y-35957246D02*
X16965301Y-36014389D01*
X16965301Y-36014389D02*
X16955777Y-36033436D01*
X16955777Y-36033436D02*
X16946253Y-36042960D01*
X16946253Y-36042960D02*
X16927206Y-36052484D01*
X16927206Y-36052484D02*
X16898634Y-36052484D01*
X17079587Y-36052484D02*
X17060539Y-36042960D01*
X17060539Y-36042960D02*
X17051015Y-36023912D01*
X17051015Y-36023912D02*
X17051015Y-35852484D01*
X17231968Y-36042960D02*
X17212920Y-36052484D01*
X17212920Y-36052484D02*
X17174825Y-36052484D01*
X17174825Y-36052484D02*
X17155777Y-36042960D01*
X17155777Y-36042960D02*
X17146253Y-36023912D01*
X17146253Y-36023912D02*
X17146253Y-35947722D01*
X17146253Y-35947722D02*
X17155777Y-35928674D01*
X17155777Y-35928674D02*
X17174825Y-35919150D01*
X17174825Y-35919150D02*
X17212920Y-35919150D01*
X17212920Y-35919150D02*
X17231968Y-35928674D01*
X17231968Y-35928674D02*
X17241492Y-35947722D01*
X17241492Y-35947722D02*
X17241492Y-35966770D01*
X17241492Y-35966770D02*
X17146253Y-35985817D01*
X17317682Y-36042960D02*
X17336730Y-36052484D01*
X17336730Y-36052484D02*
X17374825Y-36052484D01*
X17374825Y-36052484D02*
X17393873Y-36042960D01*
X17393873Y-36042960D02*
X17403396Y-36023912D01*
X17403396Y-36023912D02*
X17403396Y-36014389D01*
X17403396Y-36014389D02*
X17393873Y-35995341D01*
X17393873Y-35995341D02*
X17374825Y-35985817D01*
X17374825Y-35985817D02*
X17346253Y-35985817D01*
X17346253Y-35985817D02*
X17327206Y-35976293D01*
X17327206Y-35976293D02*
X17317682Y-35957246D01*
X17317682Y-35957246D02*
X17317682Y-35947722D01*
X17317682Y-35947722D02*
X17327206Y-35928674D01*
X17327206Y-35928674D02*
X17346253Y-35919150D01*
X17346253Y-35919150D02*
X17374825Y-35919150D01*
X17374825Y-35919150D02*
X17393873Y-35928674D01*
X17470063Y-36128674D02*
X17479587Y-36119150D01*
X17479587Y-36119150D02*
X17498634Y-36090579D01*
X17498634Y-36090579D02*
X17508158Y-36071531D01*
X17508158Y-36071531D02*
X17517682Y-36042960D01*
X17517682Y-36042960D02*
X17527206Y-35995341D01*
X17527206Y-35995341D02*
X17527206Y-35957246D01*
X17527206Y-35957246D02*
X17517682Y-35909627D01*
X17517682Y-35909627D02*
X17508158Y-35881055D01*
X17508158Y-35881055D02*
X17498634Y-35862008D01*
X17498634Y-35862008D02*
X17479587Y-35833436D01*
X17479587Y-35833436D02*
X17470063Y-35823912D01*
D10*
X12657500Y-36187500D02*
X12657500Y-36262500D01*
X12620000Y-36225000D02*
X12695000Y-36225000D01*
D11*
X12993872Y-36116484D02*
X13012920Y-36116484D01*
X13012920Y-36116484D02*
X13031967Y-36126008D01*
X13031967Y-36126008D02*
X13041491Y-36135531D01*
X13041491Y-36135531D02*
X13051015Y-36154579D01*
X13051015Y-36154579D02*
X13060539Y-36192674D01*
X13060539Y-36192674D02*
X13060539Y-36240293D01*
X13060539Y-36240293D02*
X13051015Y-36278389D01*
X13051015Y-36278389D02*
X13041491Y-36297436D01*
X13041491Y-36297436D02*
X13031967Y-36306960D01*
X13031967Y-36306960D02*
X13012920Y-36316484D01*
X13012920Y-36316484D02*
X12993872Y-36316484D01*
X12993872Y-36316484D02*
X12974824Y-36306960D01*
X12974824Y-36306960D02*
X12965301Y-36297436D01*
X12965301Y-36297436D02*
X12955777Y-36278389D01*
X12955777Y-36278389D02*
X12946253Y-36240293D01*
X12946253Y-36240293D02*
X12946253Y-36192674D01*
X12946253Y-36192674D02*
X12955777Y-36154579D01*
X12955777Y-36154579D02*
X12965301Y-36135531D01*
X12965301Y-36135531D02*
X12974824Y-36126008D01*
X12974824Y-36126008D02*
X12993872Y-36116484D01*
X13146253Y-36297436D02*
X13155777Y-36306960D01*
X13155777Y-36306960D02*
X13146253Y-36316484D01*
X13146253Y-36316484D02*
X13136729Y-36306960D01*
X13136729Y-36306960D02*
X13146253Y-36297436D01*
X13146253Y-36297436D02*
X13146253Y-36316484D01*
X13222443Y-36116484D02*
X13355777Y-36116484D01*
X13355777Y-36116484D02*
X13270062Y-36316484D01*
X13527205Y-36116484D02*
X13431967Y-36116484D01*
X13431967Y-36116484D02*
X13422443Y-36211722D01*
X13422443Y-36211722D02*
X13431967Y-36202198D01*
X13431967Y-36202198D02*
X13451015Y-36192674D01*
X13451015Y-36192674D02*
X13498634Y-36192674D01*
X13498634Y-36192674D02*
X13517682Y-36202198D01*
X13517682Y-36202198D02*
X13527205Y-36211722D01*
X13527205Y-36211722D02*
X13536729Y-36230770D01*
X13536729Y-36230770D02*
X13536729Y-36278389D01*
X13536729Y-36278389D02*
X13527205Y-36297436D01*
X13527205Y-36297436D02*
X13517682Y-36306960D01*
X13517682Y-36306960D02*
X13498634Y-36316484D01*
X13498634Y-36316484D02*
X13451015Y-36316484D01*
X13451015Y-36316484D02*
X13431967Y-36306960D01*
X13431967Y-36306960D02*
X13422443Y-36297436D01*
X13660539Y-36116484D02*
X13679586Y-36116484D01*
X13679586Y-36116484D02*
X13698634Y-36126008D01*
X13698634Y-36126008D02*
X13708158Y-36135531D01*
X13708158Y-36135531D02*
X13717682Y-36154579D01*
X13717682Y-36154579D02*
X13727205Y-36192674D01*
X13727205Y-36192674D02*
X13727205Y-36240293D01*
X13727205Y-36240293D02*
X13717682Y-36278389D01*
X13717682Y-36278389D02*
X13708158Y-36297436D01*
X13708158Y-36297436D02*
X13698634Y-36306960D01*
X13698634Y-36306960D02*
X13679586Y-36316484D01*
X13679586Y-36316484D02*
X13660539Y-36316484D01*
X13660539Y-36316484D02*
X13641491Y-36306960D01*
X13641491Y-36306960D02*
X13631967Y-36297436D01*
X13631967Y-36297436D02*
X13622443Y-36278389D01*
X13622443Y-36278389D02*
X13612920Y-36240293D01*
X13612920Y-36240293D02*
X13612920Y-36192674D01*
X13612920Y-36192674D02*
X13622443Y-36154579D01*
X13622443Y-36154579D02*
X13631967Y-36135531D01*
X13631967Y-36135531D02*
X13641491Y-36126008D01*
X13641491Y-36126008D02*
X13660539Y-36116484D01*
X13812920Y-36316484D02*
X13812920Y-36183150D01*
X13812920Y-36202198D02*
X13822443Y-36192674D01*
X13822443Y-36192674D02*
X13841491Y-36183150D01*
X13841491Y-36183150D02*
X13870063Y-36183150D01*
X13870063Y-36183150D02*
X13889110Y-36192674D01*
X13889110Y-36192674D02*
X13898634Y-36211722D01*
X13898634Y-36211722D02*
X13898634Y-36316484D01*
X13898634Y-36211722D02*
X13908158Y-36192674D01*
X13908158Y-36192674D02*
X13927205Y-36183150D01*
X13927205Y-36183150D02*
X13955777Y-36183150D01*
X13955777Y-36183150D02*
X13974824Y-36192674D01*
X13974824Y-36192674D02*
X13984348Y-36211722D01*
X13984348Y-36211722D02*
X13984348Y-36316484D01*
X14079586Y-36316484D02*
X14079586Y-36183150D01*
X14079586Y-36202198D02*
X14089110Y-36192674D01*
X14089110Y-36192674D02*
X14108158Y-36183150D01*
X14108158Y-36183150D02*
X14136729Y-36183150D01*
X14136729Y-36183150D02*
X14155777Y-36192674D01*
X14155777Y-36192674D02*
X14165301Y-36211722D01*
X14165301Y-36211722D02*
X14165301Y-36316484D01*
X14165301Y-36211722D02*
X14174824Y-36192674D01*
X14174824Y-36192674D02*
X14193872Y-36183150D01*
X14193872Y-36183150D02*
X14222443Y-36183150D01*
X14222443Y-36183150D02*
X14241491Y-36192674D01*
X14241491Y-36192674D02*
X14251015Y-36211722D01*
X14251015Y-36211722D02*
X14251015Y-36316484D01*
X14641491Y-36106960D02*
X14470063Y-36364103D01*
X14898634Y-36116484D02*
X14917682Y-36116484D01*
X14917682Y-36116484D02*
X14936729Y-36126008D01*
X14936729Y-36126008D02*
X14946253Y-36135531D01*
X14946253Y-36135531D02*
X14955777Y-36154579D01*
X14955777Y-36154579D02*
X14965301Y-36192674D01*
X14965301Y-36192674D02*
X14965301Y-36240293D01*
X14965301Y-36240293D02*
X14955777Y-36278389D01*
X14955777Y-36278389D02*
X14946253Y-36297436D01*
X14946253Y-36297436D02*
X14936729Y-36306960D01*
X14936729Y-36306960D02*
X14917682Y-36316484D01*
X14917682Y-36316484D02*
X14898634Y-36316484D01*
X14898634Y-36316484D02*
X14879586Y-36306960D01*
X14879586Y-36306960D02*
X14870063Y-36297436D01*
X14870063Y-36297436D02*
X14860539Y-36278389D01*
X14860539Y-36278389D02*
X14851015Y-36240293D01*
X14851015Y-36240293D02*
X14851015Y-36192674D01*
X14851015Y-36192674D02*
X14860539Y-36154579D01*
X14860539Y-36154579D02*
X14870063Y-36135531D01*
X14870063Y-36135531D02*
X14879586Y-36126008D01*
X14879586Y-36126008D02*
X14898634Y-36116484D01*
X15051015Y-36297436D02*
X15060539Y-36306960D01*
X15060539Y-36306960D02*
X15051015Y-36316484D01*
X15051015Y-36316484D02*
X15041491Y-36306960D01*
X15041491Y-36306960D02*
X15051015Y-36297436D01*
X15051015Y-36297436D02*
X15051015Y-36316484D01*
X15184348Y-36116484D02*
X15203396Y-36116484D01*
X15203396Y-36116484D02*
X15222444Y-36126008D01*
X15222444Y-36126008D02*
X15231967Y-36135531D01*
X15231967Y-36135531D02*
X15241491Y-36154579D01*
X15241491Y-36154579D02*
X15251015Y-36192674D01*
X15251015Y-36192674D02*
X15251015Y-36240293D01*
X15251015Y-36240293D02*
X15241491Y-36278389D01*
X15241491Y-36278389D02*
X15231967Y-36297436D01*
X15231967Y-36297436D02*
X15222444Y-36306960D01*
X15222444Y-36306960D02*
X15203396Y-36316484D01*
X15203396Y-36316484D02*
X15184348Y-36316484D01*
X15184348Y-36316484D02*
X15165301Y-36306960D01*
X15165301Y-36306960D02*
X15155777Y-36297436D01*
X15155777Y-36297436D02*
X15146253Y-36278389D01*
X15146253Y-36278389D02*
X15136729Y-36240293D01*
X15136729Y-36240293D02*
X15136729Y-36192674D01*
X15136729Y-36192674D02*
X15146253Y-36154579D01*
X15146253Y-36154579D02*
X15155777Y-36135531D01*
X15155777Y-36135531D02*
X15165301Y-36126008D01*
X15165301Y-36126008D02*
X15184348Y-36116484D01*
X15327206Y-36135531D02*
X15336729Y-36126008D01*
X15336729Y-36126008D02*
X15355777Y-36116484D01*
X15355777Y-36116484D02*
X15403396Y-36116484D01*
X15403396Y-36116484D02*
X15422444Y-36126008D01*
X15422444Y-36126008D02*
X15431967Y-36135531D01*
X15431967Y-36135531D02*
X15441491Y-36154579D01*
X15441491Y-36154579D02*
X15441491Y-36173627D01*
X15441491Y-36173627D02*
X15431967Y-36202198D01*
X15431967Y-36202198D02*
X15317682Y-36316484D01*
X15317682Y-36316484D02*
X15441491Y-36316484D01*
X15536729Y-36316484D02*
X15574825Y-36316484D01*
X15574825Y-36316484D02*
X15593872Y-36306960D01*
X15593872Y-36306960D02*
X15603396Y-36297436D01*
X15603396Y-36297436D02*
X15622444Y-36268865D01*
X15622444Y-36268865D02*
X15631967Y-36230770D01*
X15631967Y-36230770D02*
X15631967Y-36154579D01*
X15631967Y-36154579D02*
X15622444Y-36135531D01*
X15622444Y-36135531D02*
X15612920Y-36126008D01*
X15612920Y-36126008D02*
X15593872Y-36116484D01*
X15593872Y-36116484D02*
X15555777Y-36116484D01*
X15555777Y-36116484D02*
X15536729Y-36126008D01*
X15536729Y-36126008D02*
X15527206Y-36135531D01*
X15527206Y-36135531D02*
X15517682Y-36154579D01*
X15517682Y-36154579D02*
X15517682Y-36202198D01*
X15517682Y-36202198D02*
X15527206Y-36221246D01*
X15527206Y-36221246D02*
X15536729Y-36230770D01*
X15536729Y-36230770D02*
X15555777Y-36240293D01*
X15555777Y-36240293D02*
X15593872Y-36240293D01*
X15593872Y-36240293D02*
X15612920Y-36230770D01*
X15612920Y-36230770D02*
X15622444Y-36221246D01*
X15622444Y-36221246D02*
X15631967Y-36202198D01*
X15812920Y-36116484D02*
X15717682Y-36116484D01*
X15717682Y-36116484D02*
X15708158Y-36211722D01*
X15708158Y-36211722D02*
X15717682Y-36202198D01*
X15717682Y-36202198D02*
X15736729Y-36192674D01*
X15736729Y-36192674D02*
X15784348Y-36192674D01*
X15784348Y-36192674D02*
X15803396Y-36202198D01*
X15803396Y-36202198D02*
X15812920Y-36211722D01*
X15812920Y-36211722D02*
X15822444Y-36230770D01*
X15822444Y-36230770D02*
X15822444Y-36278389D01*
X15822444Y-36278389D02*
X15812920Y-36297436D01*
X15812920Y-36297436D02*
X15803396Y-36306960D01*
X15803396Y-36306960D02*
X15784348Y-36316484D01*
X15784348Y-36316484D02*
X15736729Y-36316484D01*
X15736729Y-36316484D02*
X15717682Y-36306960D01*
X15717682Y-36306960D02*
X15708158Y-36297436D01*
X15898634Y-36116484D02*
X15898634Y-36154579D01*
X15974825Y-36116484D02*
X15974825Y-36154579D01*
X16270063Y-36392674D02*
X16260539Y-36383150D01*
X16260539Y-36383150D02*
X16241491Y-36354579D01*
X16241491Y-36354579D02*
X16231968Y-36335531D01*
X16231968Y-36335531D02*
X16222444Y-36306960D01*
X16222444Y-36306960D02*
X16212920Y-36259341D01*
X16212920Y-36259341D02*
X16212920Y-36221246D01*
X16212920Y-36221246D02*
X16222444Y-36173627D01*
X16222444Y-36173627D02*
X16231968Y-36145055D01*
X16231968Y-36145055D02*
X16241491Y-36126008D01*
X16241491Y-36126008D02*
X16260539Y-36097436D01*
X16260539Y-36097436D02*
X16270063Y-36087912D01*
X16327206Y-36116484D02*
X16451015Y-36116484D01*
X16451015Y-36116484D02*
X16384348Y-36192674D01*
X16384348Y-36192674D02*
X16412920Y-36192674D01*
X16412920Y-36192674D02*
X16431968Y-36202198D01*
X16431968Y-36202198D02*
X16441491Y-36211722D01*
X16441491Y-36211722D02*
X16451015Y-36230770D01*
X16451015Y-36230770D02*
X16451015Y-36278389D01*
X16451015Y-36278389D02*
X16441491Y-36297436D01*
X16441491Y-36297436D02*
X16431968Y-36306960D01*
X16431968Y-36306960D02*
X16412920Y-36316484D01*
X16412920Y-36316484D02*
X16355777Y-36316484D01*
X16355777Y-36316484D02*
X16336729Y-36306960D01*
X16336729Y-36306960D02*
X16327206Y-36297436D01*
X16689110Y-36316484D02*
X16689110Y-36116484D01*
X16774825Y-36316484D02*
X16774825Y-36211722D01*
X16774825Y-36211722D02*
X16765301Y-36192674D01*
X16765301Y-36192674D02*
X16746253Y-36183150D01*
X16746253Y-36183150D02*
X16717682Y-36183150D01*
X16717682Y-36183150D02*
X16698634Y-36192674D01*
X16698634Y-36192674D02*
X16689110Y-36202198D01*
X16898634Y-36316484D02*
X16879587Y-36306960D01*
X16879587Y-36306960D02*
X16870063Y-36297436D01*
X16870063Y-36297436D02*
X16860539Y-36278389D01*
X16860539Y-36278389D02*
X16860539Y-36221246D01*
X16860539Y-36221246D02*
X16870063Y-36202198D01*
X16870063Y-36202198D02*
X16879587Y-36192674D01*
X16879587Y-36192674D02*
X16898634Y-36183150D01*
X16898634Y-36183150D02*
X16927206Y-36183150D01*
X16927206Y-36183150D02*
X16946253Y-36192674D01*
X16946253Y-36192674D02*
X16955777Y-36202198D01*
X16955777Y-36202198D02*
X16965301Y-36221246D01*
X16965301Y-36221246D02*
X16965301Y-36278389D01*
X16965301Y-36278389D02*
X16955777Y-36297436D01*
X16955777Y-36297436D02*
X16946253Y-36306960D01*
X16946253Y-36306960D02*
X16927206Y-36316484D01*
X16927206Y-36316484D02*
X16898634Y-36316484D01*
X17079587Y-36316484D02*
X17060539Y-36306960D01*
X17060539Y-36306960D02*
X17051015Y-36287912D01*
X17051015Y-36287912D02*
X17051015Y-36116484D01*
X17231968Y-36306960D02*
X17212920Y-36316484D01*
X17212920Y-36316484D02*
X17174825Y-36316484D01*
X17174825Y-36316484D02*
X17155777Y-36306960D01*
X17155777Y-36306960D02*
X17146253Y-36287912D01*
X17146253Y-36287912D02*
X17146253Y-36211722D01*
X17146253Y-36211722D02*
X17155777Y-36192674D01*
X17155777Y-36192674D02*
X17174825Y-36183150D01*
X17174825Y-36183150D02*
X17212920Y-36183150D01*
X17212920Y-36183150D02*
X17231968Y-36192674D01*
X17231968Y-36192674D02*
X17241492Y-36211722D01*
X17241492Y-36211722D02*
X17241492Y-36230770D01*
X17241492Y-36230770D02*
X17146253Y-36249817D01*
X17317682Y-36306960D02*
X17336730Y-36316484D01*
X17336730Y-36316484D02*
X17374825Y-36316484D01*
X17374825Y-36316484D02*
X17393873Y-36306960D01*
X17393873Y-36306960D02*
X17403396Y-36287912D01*
X17403396Y-36287912D02*
X17403396Y-36278389D01*
X17403396Y-36278389D02*
X17393873Y-36259341D01*
X17393873Y-36259341D02*
X17374825Y-36249817D01*
X17374825Y-36249817D02*
X17346253Y-36249817D01*
X17346253Y-36249817D02*
X17327206Y-36240293D01*
X17327206Y-36240293D02*
X17317682Y-36221246D01*
X17317682Y-36221246D02*
X17317682Y-36211722D01*
X17317682Y-36211722D02*
X17327206Y-36192674D01*
X17327206Y-36192674D02*
X17346253Y-36183150D01*
X17346253Y-36183150D02*
X17374825Y-36183150D01*
X17374825Y-36183150D02*
X17393873Y-36192674D01*
X17470063Y-36392674D02*
X17479587Y-36383150D01*
X17479587Y-36383150D02*
X17498634Y-36354579D01*
X17498634Y-36354579D02*
X17508158Y-36335531D01*
X17508158Y-36335531D02*
X17517682Y-36306960D01*
X17517682Y-36306960D02*
X17527206Y-36259341D01*
X17527206Y-36259341D02*
X17527206Y-36221246D01*
X17527206Y-36221246D02*
X17517682Y-36173627D01*
X17517682Y-36173627D02*
X17508158Y-36145055D01*
X17508158Y-36145055D02*
X17498634Y-36126008D01*
X17498634Y-36126008D02*
X17479587Y-36097436D01*
X17479587Y-36097436D02*
X17470063Y-36087912D01*
D10*
X12680356Y-36524356D02*
X12680356Y-36453644D01*
X12609644Y-36453644D01*
X12609644Y-36524356D01*
X12680356Y-36524356D01*
D11*
X13060539Y-36580484D02*
X12946253Y-36580484D01*
X13003396Y-36580484D02*
X13003396Y-36380484D01*
X13003396Y-36380484D02*
X12984348Y-36409055D01*
X12984348Y-36409055D02*
X12965301Y-36428103D01*
X12965301Y-36428103D02*
X12946253Y-36437627D01*
X13146253Y-36561436D02*
X13155777Y-36570960D01*
X13155777Y-36570960D02*
X13146253Y-36580484D01*
X13146253Y-36580484D02*
X13136729Y-36570960D01*
X13136729Y-36570960D02*
X13146253Y-36561436D01*
X13146253Y-36561436D02*
X13146253Y-36580484D01*
X13279586Y-36380484D02*
X13298634Y-36380484D01*
X13298634Y-36380484D02*
X13317682Y-36390008D01*
X13317682Y-36390008D02*
X13327205Y-36399531D01*
X13327205Y-36399531D02*
X13336729Y-36418579D01*
X13336729Y-36418579D02*
X13346253Y-36456674D01*
X13346253Y-36456674D02*
X13346253Y-36504293D01*
X13346253Y-36504293D02*
X13336729Y-36542389D01*
X13336729Y-36542389D02*
X13327205Y-36561436D01*
X13327205Y-36561436D02*
X13317682Y-36570960D01*
X13317682Y-36570960D02*
X13298634Y-36580484D01*
X13298634Y-36580484D02*
X13279586Y-36580484D01*
X13279586Y-36580484D02*
X13260539Y-36570960D01*
X13260539Y-36570960D02*
X13251015Y-36561436D01*
X13251015Y-36561436D02*
X13241491Y-36542389D01*
X13241491Y-36542389D02*
X13231967Y-36504293D01*
X13231967Y-36504293D02*
X13231967Y-36456674D01*
X13231967Y-36456674D02*
X13241491Y-36418579D01*
X13241491Y-36418579D02*
X13251015Y-36399531D01*
X13251015Y-36399531D02*
X13260539Y-36390008D01*
X13260539Y-36390008D02*
X13279586Y-36380484D01*
X13470062Y-36380484D02*
X13489110Y-36380484D01*
X13489110Y-36380484D02*
X13508158Y-36390008D01*
X13508158Y-36390008D02*
X13517682Y-36399531D01*
X13517682Y-36399531D02*
X13527205Y-36418579D01*
X13527205Y-36418579D02*
X13536729Y-36456674D01*
X13536729Y-36456674D02*
X13536729Y-36504293D01*
X13536729Y-36504293D02*
X13527205Y-36542389D01*
X13527205Y-36542389D02*
X13517682Y-36561436D01*
X13517682Y-36561436D02*
X13508158Y-36570960D01*
X13508158Y-36570960D02*
X13489110Y-36580484D01*
X13489110Y-36580484D02*
X13470062Y-36580484D01*
X13470062Y-36580484D02*
X13451015Y-36570960D01*
X13451015Y-36570960D02*
X13441491Y-36561436D01*
X13441491Y-36561436D02*
X13431967Y-36542389D01*
X13431967Y-36542389D02*
X13422443Y-36504293D01*
X13422443Y-36504293D02*
X13422443Y-36456674D01*
X13422443Y-36456674D02*
X13431967Y-36418579D01*
X13431967Y-36418579D02*
X13441491Y-36399531D01*
X13441491Y-36399531D02*
X13451015Y-36390008D01*
X13451015Y-36390008D02*
X13470062Y-36380484D01*
X13660539Y-36380484D02*
X13679586Y-36380484D01*
X13679586Y-36380484D02*
X13698634Y-36390008D01*
X13698634Y-36390008D02*
X13708158Y-36399531D01*
X13708158Y-36399531D02*
X13717682Y-36418579D01*
X13717682Y-36418579D02*
X13727205Y-36456674D01*
X13727205Y-36456674D02*
X13727205Y-36504293D01*
X13727205Y-36504293D02*
X13717682Y-36542389D01*
X13717682Y-36542389D02*
X13708158Y-36561436D01*
X13708158Y-36561436D02*
X13698634Y-36570960D01*
X13698634Y-36570960D02*
X13679586Y-36580484D01*
X13679586Y-36580484D02*
X13660539Y-36580484D01*
X13660539Y-36580484D02*
X13641491Y-36570960D01*
X13641491Y-36570960D02*
X13631967Y-36561436D01*
X13631967Y-36561436D02*
X13622443Y-36542389D01*
X13622443Y-36542389D02*
X13612920Y-36504293D01*
X13612920Y-36504293D02*
X13612920Y-36456674D01*
X13612920Y-36456674D02*
X13622443Y-36418579D01*
X13622443Y-36418579D02*
X13631967Y-36399531D01*
X13631967Y-36399531D02*
X13641491Y-36390008D01*
X13641491Y-36390008D02*
X13660539Y-36380484D01*
X13812920Y-36580484D02*
X13812920Y-36447150D01*
X13812920Y-36466198D02*
X13822443Y-36456674D01*
X13822443Y-36456674D02*
X13841491Y-36447150D01*
X13841491Y-36447150D02*
X13870063Y-36447150D01*
X13870063Y-36447150D02*
X13889110Y-36456674D01*
X13889110Y-36456674D02*
X13898634Y-36475722D01*
X13898634Y-36475722D02*
X13898634Y-36580484D01*
X13898634Y-36475722D02*
X13908158Y-36456674D01*
X13908158Y-36456674D02*
X13927205Y-36447150D01*
X13927205Y-36447150D02*
X13955777Y-36447150D01*
X13955777Y-36447150D02*
X13974824Y-36456674D01*
X13974824Y-36456674D02*
X13984348Y-36475722D01*
X13984348Y-36475722D02*
X13984348Y-36580484D01*
X14079586Y-36580484D02*
X14079586Y-36447150D01*
X14079586Y-36466198D02*
X14089110Y-36456674D01*
X14089110Y-36456674D02*
X14108158Y-36447150D01*
X14108158Y-36447150D02*
X14136729Y-36447150D01*
X14136729Y-36447150D02*
X14155777Y-36456674D01*
X14155777Y-36456674D02*
X14165301Y-36475722D01*
X14165301Y-36475722D02*
X14165301Y-36580484D01*
X14165301Y-36475722D02*
X14174824Y-36456674D01*
X14174824Y-36456674D02*
X14193872Y-36447150D01*
X14193872Y-36447150D02*
X14222443Y-36447150D01*
X14222443Y-36447150D02*
X14241491Y-36456674D01*
X14241491Y-36456674D02*
X14251015Y-36475722D01*
X14251015Y-36475722D02*
X14251015Y-36580484D01*
X14641491Y-36370960D02*
X14470063Y-36628103D01*
X14898634Y-36380484D02*
X14917682Y-36380484D01*
X14917682Y-36380484D02*
X14936729Y-36390008D01*
X14936729Y-36390008D02*
X14946253Y-36399531D01*
X14946253Y-36399531D02*
X14955777Y-36418579D01*
X14955777Y-36418579D02*
X14965301Y-36456674D01*
X14965301Y-36456674D02*
X14965301Y-36504293D01*
X14965301Y-36504293D02*
X14955777Y-36542389D01*
X14955777Y-36542389D02*
X14946253Y-36561436D01*
X14946253Y-36561436D02*
X14936729Y-36570960D01*
X14936729Y-36570960D02*
X14917682Y-36580484D01*
X14917682Y-36580484D02*
X14898634Y-36580484D01*
X14898634Y-36580484D02*
X14879586Y-36570960D01*
X14879586Y-36570960D02*
X14870063Y-36561436D01*
X14870063Y-36561436D02*
X14860539Y-36542389D01*
X14860539Y-36542389D02*
X14851015Y-36504293D01*
X14851015Y-36504293D02*
X14851015Y-36456674D01*
X14851015Y-36456674D02*
X14860539Y-36418579D01*
X14860539Y-36418579D02*
X14870063Y-36399531D01*
X14870063Y-36399531D02*
X14879586Y-36390008D01*
X14879586Y-36390008D02*
X14898634Y-36380484D01*
X15051015Y-36561436D02*
X15060539Y-36570960D01*
X15060539Y-36570960D02*
X15051015Y-36580484D01*
X15051015Y-36580484D02*
X15041491Y-36570960D01*
X15041491Y-36570960D02*
X15051015Y-36561436D01*
X15051015Y-36561436D02*
X15051015Y-36580484D01*
X15184348Y-36380484D02*
X15203396Y-36380484D01*
X15203396Y-36380484D02*
X15222444Y-36390008D01*
X15222444Y-36390008D02*
X15231967Y-36399531D01*
X15231967Y-36399531D02*
X15241491Y-36418579D01*
X15241491Y-36418579D02*
X15251015Y-36456674D01*
X15251015Y-36456674D02*
X15251015Y-36504293D01*
X15251015Y-36504293D02*
X15241491Y-36542389D01*
X15241491Y-36542389D02*
X15231967Y-36561436D01*
X15231967Y-36561436D02*
X15222444Y-36570960D01*
X15222444Y-36570960D02*
X15203396Y-36580484D01*
X15203396Y-36580484D02*
X15184348Y-36580484D01*
X15184348Y-36580484D02*
X15165301Y-36570960D01*
X15165301Y-36570960D02*
X15155777Y-36561436D01*
X15155777Y-36561436D02*
X15146253Y-36542389D01*
X15146253Y-36542389D02*
X15136729Y-36504293D01*
X15136729Y-36504293D02*
X15136729Y-36456674D01*
X15136729Y-36456674D02*
X15146253Y-36418579D01*
X15146253Y-36418579D02*
X15155777Y-36399531D01*
X15155777Y-36399531D02*
X15165301Y-36390008D01*
X15165301Y-36390008D02*
X15184348Y-36380484D01*
X15317682Y-36380484D02*
X15441491Y-36380484D01*
X15441491Y-36380484D02*
X15374825Y-36456674D01*
X15374825Y-36456674D02*
X15403396Y-36456674D01*
X15403396Y-36456674D02*
X15422444Y-36466198D01*
X15422444Y-36466198D02*
X15431967Y-36475722D01*
X15431967Y-36475722D02*
X15441491Y-36494770D01*
X15441491Y-36494770D02*
X15441491Y-36542389D01*
X15441491Y-36542389D02*
X15431967Y-36561436D01*
X15431967Y-36561436D02*
X15422444Y-36570960D01*
X15422444Y-36570960D02*
X15403396Y-36580484D01*
X15403396Y-36580484D02*
X15346253Y-36580484D01*
X15346253Y-36580484D02*
X15327206Y-36570960D01*
X15327206Y-36570960D02*
X15317682Y-36561436D01*
X15536729Y-36580484D02*
X15574825Y-36580484D01*
X15574825Y-36580484D02*
X15593872Y-36570960D01*
X15593872Y-36570960D02*
X15603396Y-36561436D01*
X15603396Y-36561436D02*
X15622444Y-36532865D01*
X15622444Y-36532865D02*
X15631967Y-36494770D01*
X15631967Y-36494770D02*
X15631967Y-36418579D01*
X15631967Y-36418579D02*
X15622444Y-36399531D01*
X15622444Y-36399531D02*
X15612920Y-36390008D01*
X15612920Y-36390008D02*
X15593872Y-36380484D01*
X15593872Y-36380484D02*
X15555777Y-36380484D01*
X15555777Y-36380484D02*
X15536729Y-36390008D01*
X15536729Y-36390008D02*
X15527206Y-36399531D01*
X15527206Y-36399531D02*
X15517682Y-36418579D01*
X15517682Y-36418579D02*
X15517682Y-36466198D01*
X15517682Y-36466198D02*
X15527206Y-36485246D01*
X15527206Y-36485246D02*
X15536729Y-36494770D01*
X15536729Y-36494770D02*
X15555777Y-36504293D01*
X15555777Y-36504293D02*
X15593872Y-36504293D01*
X15593872Y-36504293D02*
X15612920Y-36494770D01*
X15612920Y-36494770D02*
X15622444Y-36485246D01*
X15622444Y-36485246D02*
X15631967Y-36466198D01*
X15803396Y-36447150D02*
X15803396Y-36580484D01*
X15755777Y-36370960D02*
X15708158Y-36513817D01*
X15708158Y-36513817D02*
X15831967Y-36513817D01*
X15898634Y-36380484D02*
X15898634Y-36418579D01*
X15974825Y-36380484D02*
X15974825Y-36418579D01*
X16270063Y-36656674D02*
X16260539Y-36647150D01*
X16260539Y-36647150D02*
X16241491Y-36618579D01*
X16241491Y-36618579D02*
X16231968Y-36599531D01*
X16231968Y-36599531D02*
X16222444Y-36570960D01*
X16222444Y-36570960D02*
X16212920Y-36523341D01*
X16212920Y-36523341D02*
X16212920Y-36485246D01*
X16212920Y-36485246D02*
X16222444Y-36437627D01*
X16222444Y-36437627D02*
X16231968Y-36409055D01*
X16231968Y-36409055D02*
X16241491Y-36390008D01*
X16241491Y-36390008D02*
X16260539Y-36361436D01*
X16260539Y-36361436D02*
X16270063Y-36351912D01*
X16327206Y-36380484D02*
X16451015Y-36380484D01*
X16451015Y-36380484D02*
X16384348Y-36456674D01*
X16384348Y-36456674D02*
X16412920Y-36456674D01*
X16412920Y-36456674D02*
X16431968Y-36466198D01*
X16431968Y-36466198D02*
X16441491Y-36475722D01*
X16441491Y-36475722D02*
X16451015Y-36494770D01*
X16451015Y-36494770D02*
X16451015Y-36542389D01*
X16451015Y-36542389D02*
X16441491Y-36561436D01*
X16441491Y-36561436D02*
X16431968Y-36570960D01*
X16431968Y-36570960D02*
X16412920Y-36580484D01*
X16412920Y-36580484D02*
X16355777Y-36580484D01*
X16355777Y-36580484D02*
X16336729Y-36570960D01*
X16336729Y-36570960D02*
X16327206Y-36561436D01*
X16689110Y-36580484D02*
X16689110Y-36380484D01*
X16774825Y-36580484D02*
X16774825Y-36475722D01*
X16774825Y-36475722D02*
X16765301Y-36456674D01*
X16765301Y-36456674D02*
X16746253Y-36447150D01*
X16746253Y-36447150D02*
X16717682Y-36447150D01*
X16717682Y-36447150D02*
X16698634Y-36456674D01*
X16698634Y-36456674D02*
X16689110Y-36466198D01*
X16898634Y-36580484D02*
X16879587Y-36570960D01*
X16879587Y-36570960D02*
X16870063Y-36561436D01*
X16870063Y-36561436D02*
X16860539Y-36542389D01*
X16860539Y-36542389D02*
X16860539Y-36485246D01*
X16860539Y-36485246D02*
X16870063Y-36466198D01*
X16870063Y-36466198D02*
X16879587Y-36456674D01*
X16879587Y-36456674D02*
X16898634Y-36447150D01*
X16898634Y-36447150D02*
X16927206Y-36447150D01*
X16927206Y-36447150D02*
X16946253Y-36456674D01*
X16946253Y-36456674D02*
X16955777Y-36466198D01*
X16955777Y-36466198D02*
X16965301Y-36485246D01*
X16965301Y-36485246D02*
X16965301Y-36542389D01*
X16965301Y-36542389D02*
X16955777Y-36561436D01*
X16955777Y-36561436D02*
X16946253Y-36570960D01*
X16946253Y-36570960D02*
X16927206Y-36580484D01*
X16927206Y-36580484D02*
X16898634Y-36580484D01*
X17079587Y-36580484D02*
X17060539Y-36570960D01*
X17060539Y-36570960D02*
X17051015Y-36551912D01*
X17051015Y-36551912D02*
X17051015Y-36380484D01*
X17231968Y-36570960D02*
X17212920Y-36580484D01*
X17212920Y-36580484D02*
X17174825Y-36580484D01*
X17174825Y-36580484D02*
X17155777Y-36570960D01*
X17155777Y-36570960D02*
X17146253Y-36551912D01*
X17146253Y-36551912D02*
X17146253Y-36475722D01*
X17146253Y-36475722D02*
X17155777Y-36456674D01*
X17155777Y-36456674D02*
X17174825Y-36447150D01*
X17174825Y-36447150D02*
X17212920Y-36447150D01*
X17212920Y-36447150D02*
X17231968Y-36456674D01*
X17231968Y-36456674D02*
X17241492Y-36475722D01*
X17241492Y-36475722D02*
X17241492Y-36494770D01*
X17241492Y-36494770D02*
X17146253Y-36513817D01*
X17317682Y-36570960D02*
X17336730Y-36580484D01*
X17336730Y-36580484D02*
X17374825Y-36580484D01*
X17374825Y-36580484D02*
X17393873Y-36570960D01*
X17393873Y-36570960D02*
X17403396Y-36551912D01*
X17403396Y-36551912D02*
X17403396Y-36542389D01*
X17403396Y-36542389D02*
X17393873Y-36523341D01*
X17393873Y-36523341D02*
X17374825Y-36513817D01*
X17374825Y-36513817D02*
X17346253Y-36513817D01*
X17346253Y-36513817D02*
X17327206Y-36504293D01*
X17327206Y-36504293D02*
X17317682Y-36485246D01*
X17317682Y-36485246D02*
X17317682Y-36475722D01*
X17317682Y-36475722D02*
X17327206Y-36456674D01*
X17327206Y-36456674D02*
X17346253Y-36447150D01*
X17346253Y-36447150D02*
X17374825Y-36447150D01*
X17374825Y-36447150D02*
X17393873Y-36456674D01*
X17470063Y-36656674D02*
X17479587Y-36647150D01*
X17479587Y-36647150D02*
X17498634Y-36618579D01*
X17498634Y-36618579D02*
X17508158Y-36599531D01*
X17508158Y-36599531D02*
X17517682Y-36570960D01*
X17517682Y-36570960D02*
X17527206Y-36523341D01*
X17527206Y-36523341D02*
X17527206Y-36485246D01*
X17527206Y-36485246D02*
X17517682Y-36437627D01*
X17517682Y-36437627D02*
X17508158Y-36409055D01*
X17508158Y-36409055D02*
X17498634Y-36390008D01*
X17498634Y-36390008D02*
X17479587Y-36361436D01*
X17479587Y-36361436D02*
X17470063Y-36351912D01*
X12595000Y-36853000D02*
X12695000Y-36753000D01*
X12595000Y-36653000D01*
X12495000Y-36753000D01*
X12595000Y-36853000D01*
X12946253Y-36663531D02*
X12955777Y-36654008D01*
X12955777Y-36654008D02*
X12974824Y-36644484D01*
X12974824Y-36644484D02*
X13022443Y-36644484D01*
X13022443Y-36644484D02*
X13041491Y-36654008D01*
X13041491Y-36654008D02*
X13051015Y-36663531D01*
X13051015Y-36663531D02*
X13060539Y-36682579D01*
X13060539Y-36682579D02*
X13060539Y-36701627D01*
X13060539Y-36701627D02*
X13051015Y-36730198D01*
X13051015Y-36730198D02*
X12936729Y-36844484D01*
X12936729Y-36844484D02*
X13060539Y-36844484D01*
X13146253Y-36825436D02*
X13155777Y-36834960D01*
X13155777Y-36834960D02*
X13146253Y-36844484D01*
X13146253Y-36844484D02*
X13136729Y-36834960D01*
X13136729Y-36834960D02*
X13146253Y-36825436D01*
X13146253Y-36825436D02*
X13146253Y-36844484D01*
X13336729Y-36644484D02*
X13241491Y-36644484D01*
X13241491Y-36644484D02*
X13231967Y-36739722D01*
X13231967Y-36739722D02*
X13241491Y-36730198D01*
X13241491Y-36730198D02*
X13260539Y-36720674D01*
X13260539Y-36720674D02*
X13308158Y-36720674D01*
X13308158Y-36720674D02*
X13327205Y-36730198D01*
X13327205Y-36730198D02*
X13336729Y-36739722D01*
X13336729Y-36739722D02*
X13346253Y-36758770D01*
X13346253Y-36758770D02*
X13346253Y-36806389D01*
X13346253Y-36806389D02*
X13336729Y-36825436D01*
X13336729Y-36825436D02*
X13327205Y-36834960D01*
X13327205Y-36834960D02*
X13308158Y-36844484D01*
X13308158Y-36844484D02*
X13260539Y-36844484D01*
X13260539Y-36844484D02*
X13241491Y-36834960D01*
X13241491Y-36834960D02*
X13231967Y-36825436D01*
X13470062Y-36644484D02*
X13489110Y-36644484D01*
X13489110Y-36644484D02*
X13508158Y-36654008D01*
X13508158Y-36654008D02*
X13517682Y-36663531D01*
X13517682Y-36663531D02*
X13527205Y-36682579D01*
X13527205Y-36682579D02*
X13536729Y-36720674D01*
X13536729Y-36720674D02*
X13536729Y-36768293D01*
X13536729Y-36768293D02*
X13527205Y-36806389D01*
X13527205Y-36806389D02*
X13517682Y-36825436D01*
X13517682Y-36825436D02*
X13508158Y-36834960D01*
X13508158Y-36834960D02*
X13489110Y-36844484D01*
X13489110Y-36844484D02*
X13470062Y-36844484D01*
X13470062Y-36844484D02*
X13451015Y-36834960D01*
X13451015Y-36834960D02*
X13441491Y-36825436D01*
X13441491Y-36825436D02*
X13431967Y-36806389D01*
X13431967Y-36806389D02*
X13422443Y-36768293D01*
X13422443Y-36768293D02*
X13422443Y-36720674D01*
X13422443Y-36720674D02*
X13431967Y-36682579D01*
X13431967Y-36682579D02*
X13441491Y-36663531D01*
X13441491Y-36663531D02*
X13451015Y-36654008D01*
X13451015Y-36654008D02*
X13470062Y-36644484D01*
X13660539Y-36644484D02*
X13679586Y-36644484D01*
X13679586Y-36644484D02*
X13698634Y-36654008D01*
X13698634Y-36654008D02*
X13708158Y-36663531D01*
X13708158Y-36663531D02*
X13717682Y-36682579D01*
X13717682Y-36682579D02*
X13727205Y-36720674D01*
X13727205Y-36720674D02*
X13727205Y-36768293D01*
X13727205Y-36768293D02*
X13717682Y-36806389D01*
X13717682Y-36806389D02*
X13708158Y-36825436D01*
X13708158Y-36825436D02*
X13698634Y-36834960D01*
X13698634Y-36834960D02*
X13679586Y-36844484D01*
X13679586Y-36844484D02*
X13660539Y-36844484D01*
X13660539Y-36844484D02*
X13641491Y-36834960D01*
X13641491Y-36834960D02*
X13631967Y-36825436D01*
X13631967Y-36825436D02*
X13622443Y-36806389D01*
X13622443Y-36806389D02*
X13612920Y-36768293D01*
X13612920Y-36768293D02*
X13612920Y-36720674D01*
X13612920Y-36720674D02*
X13622443Y-36682579D01*
X13622443Y-36682579D02*
X13631967Y-36663531D01*
X13631967Y-36663531D02*
X13641491Y-36654008D01*
X13641491Y-36654008D02*
X13660539Y-36644484D01*
X13812920Y-36844484D02*
X13812920Y-36711150D01*
X13812920Y-36730198D02*
X13822443Y-36720674D01*
X13822443Y-36720674D02*
X13841491Y-36711150D01*
X13841491Y-36711150D02*
X13870063Y-36711150D01*
X13870063Y-36711150D02*
X13889110Y-36720674D01*
X13889110Y-36720674D02*
X13898634Y-36739722D01*
X13898634Y-36739722D02*
X13898634Y-36844484D01*
X13898634Y-36739722D02*
X13908158Y-36720674D01*
X13908158Y-36720674D02*
X13927205Y-36711150D01*
X13927205Y-36711150D02*
X13955777Y-36711150D01*
X13955777Y-36711150D02*
X13974824Y-36720674D01*
X13974824Y-36720674D02*
X13984348Y-36739722D01*
X13984348Y-36739722D02*
X13984348Y-36844484D01*
X14079586Y-36844484D02*
X14079586Y-36711150D01*
X14079586Y-36730198D02*
X14089110Y-36720674D01*
X14089110Y-36720674D02*
X14108158Y-36711150D01*
X14108158Y-36711150D02*
X14136729Y-36711150D01*
X14136729Y-36711150D02*
X14155777Y-36720674D01*
X14155777Y-36720674D02*
X14165301Y-36739722D01*
X14165301Y-36739722D02*
X14165301Y-36844484D01*
X14165301Y-36739722D02*
X14174824Y-36720674D01*
X14174824Y-36720674D02*
X14193872Y-36711150D01*
X14193872Y-36711150D02*
X14222443Y-36711150D01*
X14222443Y-36711150D02*
X14241491Y-36720674D01*
X14241491Y-36720674D02*
X14251015Y-36739722D01*
X14251015Y-36739722D02*
X14251015Y-36844484D01*
X14641491Y-36634960D02*
X14470063Y-36892103D01*
X14898634Y-36644484D02*
X14917682Y-36644484D01*
X14917682Y-36644484D02*
X14936729Y-36654008D01*
X14936729Y-36654008D02*
X14946253Y-36663531D01*
X14946253Y-36663531D02*
X14955777Y-36682579D01*
X14955777Y-36682579D02*
X14965301Y-36720674D01*
X14965301Y-36720674D02*
X14965301Y-36768293D01*
X14965301Y-36768293D02*
X14955777Y-36806389D01*
X14955777Y-36806389D02*
X14946253Y-36825436D01*
X14946253Y-36825436D02*
X14936729Y-36834960D01*
X14936729Y-36834960D02*
X14917682Y-36844484D01*
X14917682Y-36844484D02*
X14898634Y-36844484D01*
X14898634Y-36844484D02*
X14879586Y-36834960D01*
X14879586Y-36834960D02*
X14870063Y-36825436D01*
X14870063Y-36825436D02*
X14860539Y-36806389D01*
X14860539Y-36806389D02*
X14851015Y-36768293D01*
X14851015Y-36768293D02*
X14851015Y-36720674D01*
X14851015Y-36720674D02*
X14860539Y-36682579D01*
X14860539Y-36682579D02*
X14870063Y-36663531D01*
X14870063Y-36663531D02*
X14879586Y-36654008D01*
X14879586Y-36654008D02*
X14898634Y-36644484D01*
X15051015Y-36825436D02*
X15060539Y-36834960D01*
X15060539Y-36834960D02*
X15051015Y-36844484D01*
X15051015Y-36844484D02*
X15041491Y-36834960D01*
X15041491Y-36834960D02*
X15051015Y-36825436D01*
X15051015Y-36825436D02*
X15051015Y-36844484D01*
X15184348Y-36644484D02*
X15203396Y-36644484D01*
X15203396Y-36644484D02*
X15222444Y-36654008D01*
X15222444Y-36654008D02*
X15231967Y-36663531D01*
X15231967Y-36663531D02*
X15241491Y-36682579D01*
X15241491Y-36682579D02*
X15251015Y-36720674D01*
X15251015Y-36720674D02*
X15251015Y-36768293D01*
X15251015Y-36768293D02*
X15241491Y-36806389D01*
X15241491Y-36806389D02*
X15231967Y-36825436D01*
X15231967Y-36825436D02*
X15222444Y-36834960D01*
X15222444Y-36834960D02*
X15203396Y-36844484D01*
X15203396Y-36844484D02*
X15184348Y-36844484D01*
X15184348Y-36844484D02*
X15165301Y-36834960D01*
X15165301Y-36834960D02*
X15155777Y-36825436D01*
X15155777Y-36825436D02*
X15146253Y-36806389D01*
X15146253Y-36806389D02*
X15136729Y-36768293D01*
X15136729Y-36768293D02*
X15136729Y-36720674D01*
X15136729Y-36720674D02*
X15146253Y-36682579D01*
X15146253Y-36682579D02*
X15155777Y-36663531D01*
X15155777Y-36663531D02*
X15165301Y-36654008D01*
X15165301Y-36654008D02*
X15184348Y-36644484D01*
X15346253Y-36844484D02*
X15384348Y-36844484D01*
X15384348Y-36844484D02*
X15403396Y-36834960D01*
X15403396Y-36834960D02*
X15412920Y-36825436D01*
X15412920Y-36825436D02*
X15431967Y-36796865D01*
X15431967Y-36796865D02*
X15441491Y-36758770D01*
X15441491Y-36758770D02*
X15441491Y-36682579D01*
X15441491Y-36682579D02*
X15431967Y-36663531D01*
X15431967Y-36663531D02*
X15422444Y-36654008D01*
X15422444Y-36654008D02*
X15403396Y-36644484D01*
X15403396Y-36644484D02*
X15365301Y-36644484D01*
X15365301Y-36644484D02*
X15346253Y-36654008D01*
X15346253Y-36654008D02*
X15336729Y-36663531D01*
X15336729Y-36663531D02*
X15327206Y-36682579D01*
X15327206Y-36682579D02*
X15327206Y-36730198D01*
X15327206Y-36730198D02*
X15336729Y-36749246D01*
X15336729Y-36749246D02*
X15346253Y-36758770D01*
X15346253Y-36758770D02*
X15365301Y-36768293D01*
X15365301Y-36768293D02*
X15403396Y-36768293D01*
X15403396Y-36768293D02*
X15422444Y-36758770D01*
X15422444Y-36758770D02*
X15431967Y-36749246D01*
X15431967Y-36749246D02*
X15441491Y-36730198D01*
X15555777Y-36730198D02*
X15536729Y-36720674D01*
X15536729Y-36720674D02*
X15527206Y-36711150D01*
X15527206Y-36711150D02*
X15517682Y-36692103D01*
X15517682Y-36692103D02*
X15517682Y-36682579D01*
X15517682Y-36682579D02*
X15527206Y-36663531D01*
X15527206Y-36663531D02*
X15536729Y-36654008D01*
X15536729Y-36654008D02*
X15555777Y-36644484D01*
X15555777Y-36644484D02*
X15593872Y-36644484D01*
X15593872Y-36644484D02*
X15612920Y-36654008D01*
X15612920Y-36654008D02*
X15622444Y-36663531D01*
X15622444Y-36663531D02*
X15631967Y-36682579D01*
X15631967Y-36682579D02*
X15631967Y-36692103D01*
X15631967Y-36692103D02*
X15622444Y-36711150D01*
X15622444Y-36711150D02*
X15612920Y-36720674D01*
X15612920Y-36720674D02*
X15593872Y-36730198D01*
X15593872Y-36730198D02*
X15555777Y-36730198D01*
X15555777Y-36730198D02*
X15536729Y-36739722D01*
X15536729Y-36739722D02*
X15527206Y-36749246D01*
X15527206Y-36749246D02*
X15517682Y-36768293D01*
X15517682Y-36768293D02*
X15517682Y-36806389D01*
X15517682Y-36806389D02*
X15527206Y-36825436D01*
X15527206Y-36825436D02*
X15536729Y-36834960D01*
X15536729Y-36834960D02*
X15555777Y-36844484D01*
X15555777Y-36844484D02*
X15593872Y-36844484D01*
X15593872Y-36844484D02*
X15612920Y-36834960D01*
X15612920Y-36834960D02*
X15622444Y-36825436D01*
X15622444Y-36825436D02*
X15631967Y-36806389D01*
X15631967Y-36806389D02*
X15631967Y-36768293D01*
X15631967Y-36768293D02*
X15622444Y-36749246D01*
X15622444Y-36749246D02*
X15612920Y-36739722D01*
X15612920Y-36739722D02*
X15593872Y-36730198D01*
X15803396Y-36711150D02*
X15803396Y-36844484D01*
X15755777Y-36634960D02*
X15708158Y-36777817D01*
X15708158Y-36777817D02*
X15831967Y-36777817D01*
X15898634Y-36644484D02*
X15898634Y-36682579D01*
X15974825Y-36644484D02*
X15974825Y-36682579D01*
X16270063Y-36920674D02*
X16260539Y-36911150D01*
X16260539Y-36911150D02*
X16241491Y-36882579D01*
X16241491Y-36882579D02*
X16231968Y-36863531D01*
X16231968Y-36863531D02*
X16222444Y-36834960D01*
X16222444Y-36834960D02*
X16212920Y-36787341D01*
X16212920Y-36787341D02*
X16212920Y-36749246D01*
X16212920Y-36749246D02*
X16222444Y-36701627D01*
X16222444Y-36701627D02*
X16231968Y-36673055D01*
X16231968Y-36673055D02*
X16241491Y-36654008D01*
X16241491Y-36654008D02*
X16260539Y-36625436D01*
X16260539Y-36625436D02*
X16270063Y-36615912D01*
X16431968Y-36711150D02*
X16431968Y-36844484D01*
X16384348Y-36634960D02*
X16336729Y-36777817D01*
X16336729Y-36777817D02*
X16460539Y-36777817D01*
X16689110Y-36844484D02*
X16689110Y-36644484D01*
X16774825Y-36844484D02*
X16774825Y-36739722D01*
X16774825Y-36739722D02*
X16765301Y-36720674D01*
X16765301Y-36720674D02*
X16746253Y-36711150D01*
X16746253Y-36711150D02*
X16717682Y-36711150D01*
X16717682Y-36711150D02*
X16698634Y-36720674D01*
X16698634Y-36720674D02*
X16689110Y-36730198D01*
X16898634Y-36844484D02*
X16879587Y-36834960D01*
X16879587Y-36834960D02*
X16870063Y-36825436D01*
X16870063Y-36825436D02*
X16860539Y-36806389D01*
X16860539Y-36806389D02*
X16860539Y-36749246D01*
X16860539Y-36749246D02*
X16870063Y-36730198D01*
X16870063Y-36730198D02*
X16879587Y-36720674D01*
X16879587Y-36720674D02*
X16898634Y-36711150D01*
X16898634Y-36711150D02*
X16927206Y-36711150D01*
X16927206Y-36711150D02*
X16946253Y-36720674D01*
X16946253Y-36720674D02*
X16955777Y-36730198D01*
X16955777Y-36730198D02*
X16965301Y-36749246D01*
X16965301Y-36749246D02*
X16965301Y-36806389D01*
X16965301Y-36806389D02*
X16955777Y-36825436D01*
X16955777Y-36825436D02*
X16946253Y-36834960D01*
X16946253Y-36834960D02*
X16927206Y-36844484D01*
X16927206Y-36844484D02*
X16898634Y-36844484D01*
X17079587Y-36844484D02*
X17060539Y-36834960D01*
X17060539Y-36834960D02*
X17051015Y-36815912D01*
X17051015Y-36815912D02*
X17051015Y-36644484D01*
X17231968Y-36834960D02*
X17212920Y-36844484D01*
X17212920Y-36844484D02*
X17174825Y-36844484D01*
X17174825Y-36844484D02*
X17155777Y-36834960D01*
X17155777Y-36834960D02*
X17146253Y-36815912D01*
X17146253Y-36815912D02*
X17146253Y-36739722D01*
X17146253Y-36739722D02*
X17155777Y-36720674D01*
X17155777Y-36720674D02*
X17174825Y-36711150D01*
X17174825Y-36711150D02*
X17212920Y-36711150D01*
X17212920Y-36711150D02*
X17231968Y-36720674D01*
X17231968Y-36720674D02*
X17241492Y-36739722D01*
X17241492Y-36739722D02*
X17241492Y-36758770D01*
X17241492Y-36758770D02*
X17146253Y-36777817D01*
X17317682Y-36834960D02*
X17336730Y-36844484D01*
X17336730Y-36844484D02*
X17374825Y-36844484D01*
X17374825Y-36844484D02*
X17393873Y-36834960D01*
X17393873Y-36834960D02*
X17403396Y-36815912D01*
X17403396Y-36815912D02*
X17403396Y-36806389D01*
X17403396Y-36806389D02*
X17393873Y-36787341D01*
X17393873Y-36787341D02*
X17374825Y-36777817D01*
X17374825Y-36777817D02*
X17346253Y-36777817D01*
X17346253Y-36777817D02*
X17327206Y-36768293D01*
X17327206Y-36768293D02*
X17317682Y-36749246D01*
X17317682Y-36749246D02*
X17317682Y-36739722D01*
X17317682Y-36739722D02*
X17327206Y-36720674D01*
X17327206Y-36720674D02*
X17346253Y-36711150D01*
X17346253Y-36711150D02*
X17374825Y-36711150D01*
X17374825Y-36711150D02*
X17393873Y-36720674D01*
X17470063Y-36920674D02*
X17479587Y-36911150D01*
X17479587Y-36911150D02*
X17498634Y-36882579D01*
X17498634Y-36882579D02*
X17508158Y-36863531D01*
X17508158Y-36863531D02*
X17517682Y-36834960D01*
X17517682Y-36834960D02*
X17527206Y-36787341D01*
X17527206Y-36787341D02*
X17527206Y-36749246D01*
X17527206Y-36749246D02*
X17517682Y-36701627D01*
X17517682Y-36701627D02*
X17508158Y-36673055D01*
X17508158Y-36673055D02*
X17498634Y-36654008D01*
X17498634Y-36654008D02*
X17479587Y-36625436D01*
X17479587Y-36625436D02*
X17470063Y-36615912D01*
M02*
