%TF.GenerationSoftware,KiCad,Pcbnew,8.0.0*%
%TF.CreationDate,2024-03-22T00:36:29-04:00*%
%TF.ProjectId,WaterSensor,57617465-7253-4656-9e73-6f722e6b6963,rev?*%
%TF.SameCoordinates,Original*%
%TF.FileFunction,Copper,L2,Bot*%
%TF.FilePolarity,Positive*%
%FSLAX46Y46*%
G04 Gerber Fmt 4.6, Leading zero omitted, Abs format (unit mm)*
G04 Created by KiCad (PCBNEW 8.0.0) date 2024-03-22 00:36:29*
%MOMM*%
%LPD*%
G01*
G04 APERTURE LIST*
%TA.AperFunction,ComponentPad*%
%ADD10C,0.800000*%
%TD*%
%TA.AperFunction,ComponentPad*%
%ADD11C,5.000000*%
%TD*%
%TA.AperFunction,ComponentPad*%
%ADD12C,1.400000*%
%TD*%
%TA.AperFunction,ComponentPad*%
%ADD13O,1.400000X1.400000*%
%TD*%
%TA.AperFunction,ComponentPad*%
%ADD14R,1.700000X1.700000*%
%TD*%
%TA.AperFunction,ComponentPad*%
%ADD15O,1.700000X1.700000*%
%TD*%
%TA.AperFunction,ComponentPad*%
%ADD16R,1.500000X1.050000*%
%TD*%
%TA.AperFunction,ComponentPad*%
%ADD17O,1.500000X1.050000*%
%TD*%
%TA.AperFunction,Conductor*%
%ADD18C,0.250000*%
%TD*%
G04 APERTURE END LIST*
D10*
%TO.P,H2,1,1*%
%TO.N,GND*%
X138490000Y-60960000D03*
X139039175Y-59634175D03*
X139039175Y-62285825D03*
X140365000Y-59085000D03*
D11*
X140365000Y-60960000D03*
D10*
X140365000Y-62835000D03*
X141690825Y-59634175D03*
X141690825Y-62285825D03*
X142240000Y-60960000D03*
%TD*%
%TO.P,H4,1,1*%
%TO.N,GND*%
X140365000Y-335280000D03*
X140914175Y-333954175D03*
X140914175Y-336605825D03*
X142240000Y-333405000D03*
D11*
X142240000Y-335280000D03*
D10*
X142240000Y-337155000D03*
X143565825Y-333954175D03*
X143565825Y-336605825D03*
X144115000Y-335280000D03*
%TD*%
%TO.P,H1,1,1*%
%TO.N,GND*%
X418439175Y-57094175D03*
X418988350Y-55768350D03*
X418988350Y-58420000D03*
X420314175Y-55219175D03*
D11*
X420314175Y-57094175D03*
D10*
X420314175Y-58969175D03*
X421640000Y-55768350D03*
X421640000Y-58420000D03*
X422189175Y-57094175D03*
%TD*%
%TO.P,H3,1,1*%
%TO.N,GND*%
X414685000Y-335280000D03*
X415234175Y-333954175D03*
X415234175Y-336605825D03*
X416560000Y-333405000D03*
D11*
X416560000Y-335280000D03*
D10*
X416560000Y-337155000D03*
X417885825Y-333954175D03*
X417885825Y-336605825D03*
X418435000Y-335280000D03*
%TD*%
D12*
%TO.P,R2,1*%
%TO.N,SIG*%
X395327500Y-68580000D03*
D13*
%TO.P,R2,2*%
%TO.N,GND*%
X393427500Y-68580000D03*
%TD*%
D14*
%TO.P,J2,1,Pin_1*%
%TO.N,+5V*%
X396240000Y-55880000D03*
D15*
%TO.P,J2,2,Pin_2*%
%TO.N,SIG*%
X398780000Y-55880000D03*
%TO.P,J2,3,Pin_3*%
%TO.N,GND*%
X401320000Y-55880000D03*
%TD*%
D12*
%TO.P,R1,1*%
%TO.N,+5V*%
X396240000Y-61600000D03*
D13*
%TO.P,R1,2*%
%TO.N,PWR_SENSE*%
X396240000Y-63500000D03*
%TD*%
D16*
%TO.P,Q1,1,E*%
%TO.N,SIG*%
X388620006Y-63500000D03*
D17*
%TO.P,Q1,2,B*%
%TO.N,BASE_SENSE*%
X388620006Y-64770000D03*
%TO.P,Q1,3,C*%
%TO.N,+5V*%
X388620006Y-66040000D03*
%TD*%
D18*
%TO.N,SIG*%
X398780000Y-55880000D02*
X398780000Y-65127500D01*
X390247500Y-63500000D02*
X388620006Y-63500000D01*
X398780000Y-65127500D02*
X395327500Y-68580000D01*
X395327500Y-68580000D02*
X390247500Y-63500000D01*
%TO.N,+5V*%
X391160000Y-55880000D02*
X386080000Y-60960000D01*
X396240000Y-55880000D02*
X391160000Y-55880000D01*
X396240000Y-55880000D02*
X396240000Y-61600000D01*
X386080000Y-66040000D02*
X388620006Y-66040000D01*
X386080000Y-60960000D02*
X386080000Y-66040000D01*
%TD*%
%TA.AperFunction,Conductor*%
%TO.N,GND*%
G36*
X430992539Y-46490185D02*
G01*
X431038294Y-46542989D01*
X431049500Y-46594500D01*
X431049500Y-349645500D01*
X431029815Y-349712539D01*
X430977011Y-349758294D01*
X430925500Y-349769500D01*
X127874500Y-349769500D01*
X127807461Y-349749815D01*
X127761706Y-349697011D01*
X127750500Y-349645500D01*
X127750500Y-335280003D01*
X139234916Y-335280003D01*
X139255235Y-335628869D01*
X139255236Y-335628880D01*
X139315914Y-335973002D01*
X139315916Y-335973011D01*
X139416145Y-336307800D01*
X139554555Y-336628670D01*
X139554561Y-336628683D01*
X139729289Y-336931322D01*
X139937967Y-337211625D01*
X139946148Y-337220296D01*
X141196319Y-335970124D01*
X141286554Y-336094320D01*
X141425680Y-336233446D01*
X141549873Y-336323678D01*
X140302818Y-337570733D01*
X140302819Y-337570734D01*
X140445484Y-337690445D01*
X140737461Y-337882480D01*
X141049739Y-338039314D01*
X141049745Y-338039316D01*
X141378130Y-338158838D01*
X141378133Y-338158839D01*
X141718171Y-338239429D01*
X142065276Y-338279999D01*
X142065277Y-338280000D01*
X142414723Y-338280000D01*
X142414723Y-338279999D01*
X142761827Y-338239429D01*
X142761829Y-338239429D01*
X143101866Y-338158839D01*
X143101869Y-338158838D01*
X143430254Y-338039316D01*
X143430260Y-338039314D01*
X143742538Y-337882480D01*
X144034509Y-337690449D01*
X144034510Y-337690448D01*
X144177179Y-337570734D01*
X144177180Y-337570733D01*
X142930126Y-336323678D01*
X143054320Y-336233446D01*
X143193446Y-336094320D01*
X143283678Y-335970126D01*
X144533849Y-337220297D01*
X144533851Y-337220296D01*
X144542022Y-337211636D01*
X144542033Y-337211623D01*
X144750710Y-336931322D01*
X144925438Y-336628683D01*
X144925444Y-336628670D01*
X145063854Y-336307800D01*
X145164083Y-335973011D01*
X145164085Y-335973002D01*
X145224763Y-335628880D01*
X145224764Y-335628869D01*
X145245084Y-335280003D01*
X413554916Y-335280003D01*
X413575235Y-335628869D01*
X413575236Y-335628880D01*
X413635914Y-335973002D01*
X413635916Y-335973011D01*
X413736145Y-336307800D01*
X413874555Y-336628670D01*
X413874561Y-336628683D01*
X414049289Y-336931322D01*
X414257967Y-337211625D01*
X414266148Y-337220296D01*
X415516320Y-335970125D01*
X415606554Y-336094320D01*
X415745680Y-336233446D01*
X415869873Y-336323678D01*
X414622818Y-337570733D01*
X414622819Y-337570734D01*
X414765484Y-337690445D01*
X415057461Y-337882480D01*
X415369739Y-338039314D01*
X415369745Y-338039316D01*
X415698130Y-338158838D01*
X415698133Y-338158839D01*
X416038171Y-338239429D01*
X416385276Y-338279999D01*
X416385277Y-338280000D01*
X416734723Y-338280000D01*
X416734723Y-338279999D01*
X417081827Y-338239429D01*
X417081829Y-338239429D01*
X417421866Y-338158839D01*
X417421869Y-338158838D01*
X417750254Y-338039316D01*
X417750260Y-338039314D01*
X418062538Y-337882480D01*
X418354509Y-337690449D01*
X418354510Y-337690448D01*
X418497179Y-337570734D01*
X418497180Y-337570733D01*
X417250126Y-336323678D01*
X417374320Y-336233446D01*
X417513446Y-336094320D01*
X417603678Y-335970126D01*
X418853849Y-337220297D01*
X418853851Y-337220296D01*
X418862022Y-337211636D01*
X418862033Y-337211623D01*
X419070710Y-336931322D01*
X419245438Y-336628683D01*
X419245444Y-336628670D01*
X419383854Y-336307800D01*
X419484083Y-335973011D01*
X419484085Y-335973002D01*
X419544763Y-335628880D01*
X419544764Y-335628869D01*
X419565084Y-335280003D01*
X419565084Y-335279996D01*
X419544764Y-334931130D01*
X419544763Y-334931119D01*
X419484085Y-334586997D01*
X419484083Y-334586988D01*
X419383854Y-334252199D01*
X419245444Y-333931329D01*
X419245438Y-333931316D01*
X419070710Y-333628677D01*
X418862032Y-333348374D01*
X418853850Y-333339702D01*
X417603678Y-334589873D01*
X417513446Y-334465680D01*
X417374320Y-334326554D01*
X417250125Y-334236320D01*
X418497180Y-332989265D01*
X418497179Y-332989264D01*
X418354519Y-332869557D01*
X418062538Y-332677519D01*
X417750260Y-332520685D01*
X417750254Y-332520683D01*
X417421869Y-332401161D01*
X417421866Y-332401160D01*
X417081828Y-332320570D01*
X416734723Y-332280000D01*
X416385277Y-332280000D01*
X416038172Y-332320570D01*
X416038170Y-332320570D01*
X415698133Y-332401160D01*
X415698130Y-332401161D01*
X415369745Y-332520683D01*
X415369739Y-332520685D01*
X415057461Y-332677519D01*
X414765480Y-332869557D01*
X414622819Y-332989264D01*
X414622818Y-332989265D01*
X415869874Y-334236320D01*
X415745680Y-334326554D01*
X415606554Y-334465680D01*
X415516320Y-334589873D01*
X414266148Y-333339701D01*
X414266147Y-333339702D01*
X414257976Y-333348363D01*
X414257972Y-333348368D01*
X414049289Y-333628677D01*
X413874561Y-333931316D01*
X413874555Y-333931329D01*
X413736145Y-334252199D01*
X413635916Y-334586988D01*
X413635914Y-334586997D01*
X413575236Y-334931119D01*
X413575235Y-334931130D01*
X413554916Y-335279996D01*
X413554916Y-335280003D01*
X145245084Y-335280003D01*
X145245084Y-335279996D01*
X145224764Y-334931130D01*
X145224763Y-334931119D01*
X145164085Y-334586997D01*
X145164083Y-334586988D01*
X145063854Y-334252199D01*
X144925444Y-333931329D01*
X144925438Y-333931316D01*
X144750710Y-333628677D01*
X144542032Y-333348374D01*
X144533850Y-333339702D01*
X143283678Y-334589873D01*
X143193446Y-334465680D01*
X143054320Y-334326554D01*
X142930125Y-334236320D01*
X144177180Y-332989265D01*
X144177179Y-332989264D01*
X144034519Y-332869557D01*
X143742538Y-332677519D01*
X143430260Y-332520685D01*
X143430254Y-332520683D01*
X143101869Y-332401161D01*
X143101866Y-332401160D01*
X142761828Y-332320570D01*
X142414723Y-332280000D01*
X142065277Y-332280000D01*
X141718172Y-332320570D01*
X141718170Y-332320570D01*
X141378133Y-332401160D01*
X141378130Y-332401161D01*
X141049745Y-332520683D01*
X141049739Y-332520685D01*
X140737461Y-332677519D01*
X140445480Y-332869557D01*
X140302819Y-332989264D01*
X140302818Y-332989265D01*
X141549874Y-334236320D01*
X141425680Y-334326554D01*
X141286554Y-334465680D01*
X141196320Y-334589873D01*
X139946148Y-333339701D01*
X139946147Y-333339702D01*
X139937976Y-333348363D01*
X139937972Y-333348368D01*
X139729289Y-333628677D01*
X139554561Y-333931316D01*
X139554555Y-333931329D01*
X139416145Y-334252199D01*
X139315916Y-334586988D01*
X139315914Y-334586997D01*
X139255236Y-334931119D01*
X139255235Y-334931130D01*
X139234916Y-335279996D01*
X139234916Y-335280003D01*
X127750500Y-335280003D01*
X127750500Y-68830000D01*
X392251005Y-68830000D01*
X392303739Y-69015349D01*
X392402868Y-69214425D01*
X392536891Y-69391900D01*
X392701238Y-69541721D01*
X392890320Y-69658797D01*
X392890322Y-69658798D01*
X393097695Y-69739135D01*
X393177500Y-69754052D01*
X393177500Y-68830000D01*
X392251005Y-68830000D01*
X127750500Y-68830000D01*
X127750500Y-66102398D01*
X385446500Y-66102398D01*
X385470843Y-66224777D01*
X385470845Y-66224785D01*
X385518598Y-66340072D01*
X385518603Y-66340081D01*
X385587928Y-66443832D01*
X385587931Y-66443836D01*
X385676163Y-66532068D01*
X385676167Y-66532071D01*
X385779918Y-66601396D01*
X385779924Y-66601399D01*
X385779925Y-66601400D01*
X385895215Y-66649155D01*
X386017601Y-66673499D01*
X386017605Y-66673500D01*
X386017606Y-66673500D01*
X386142394Y-66673500D01*
X387515553Y-66673500D01*
X387582592Y-66693185D01*
X387603234Y-66709819D01*
X387736184Y-66842769D01*
X387736188Y-66842772D01*
X387905453Y-66955872D01*
X387905466Y-66955879D01*
X388093540Y-67033781D01*
X388093545Y-67033783D01*
X388293210Y-67073499D01*
X388293213Y-67073500D01*
X388293215Y-67073500D01*
X388946799Y-67073500D01*
X388946800Y-67073499D01*
X389146467Y-67033783D01*
X389334552Y-66955876D01*
X389503824Y-66842772D01*
X389647778Y-66698818D01*
X389760882Y-66529546D01*
X389838789Y-66341461D01*
X389878506Y-66141791D01*
X389878506Y-65938209D01*
X389878506Y-65938206D01*
X389878505Y-65938204D01*
X389838790Y-65738546D01*
X389838789Y-65738539D01*
X389838787Y-65738534D01*
X389760885Y-65550460D01*
X389760883Y-65550457D01*
X389760882Y-65550454D01*
X389709721Y-65473887D01*
X389688845Y-65407214D01*
X389707329Y-65339834D01*
X389709685Y-65336167D01*
X389760882Y-65259546D01*
X389838789Y-65071461D01*
X389878506Y-64871791D01*
X389878506Y-64668209D01*
X389878506Y-64668206D01*
X389878505Y-64668204D01*
X389838789Y-64468539D01*
X389806813Y-64391343D01*
X389799345Y-64321875D01*
X389817754Y-64279589D01*
X389816646Y-64278984D01*
X389820890Y-64271209D01*
X389820895Y-64271204D01*
X389835482Y-64232094D01*
X389877352Y-64176162D01*
X389942816Y-64151745D01*
X390011089Y-64166596D01*
X390039344Y-64187748D01*
X393089098Y-67237502D01*
X393122583Y-67298825D01*
X393117599Y-67368517D01*
X393075727Y-67424450D01*
X393046211Y-67440810D01*
X392890322Y-67501201D01*
X392890320Y-67501202D01*
X392701238Y-67618278D01*
X392536891Y-67768099D01*
X392402868Y-67945574D01*
X392303739Y-68144650D01*
X392251005Y-68330000D01*
X393182525Y-68330000D01*
X393147430Y-68365095D01*
X393101352Y-68444905D01*
X393077500Y-68533922D01*
X393077500Y-68626078D01*
X393101352Y-68715095D01*
X393147430Y-68794905D01*
X393212595Y-68860070D01*
X393292405Y-68906148D01*
X393381422Y-68930000D01*
X393473578Y-68930000D01*
X393562595Y-68906148D01*
X393642405Y-68860070D01*
X393677500Y-68824975D01*
X393677500Y-69754052D01*
X393757304Y-69739135D01*
X393964677Y-69658798D01*
X393964679Y-69658797D01*
X394153761Y-69541721D01*
X394289311Y-69418152D01*
X394352115Y-69387535D01*
X394421502Y-69395732D01*
X394460530Y-69422108D01*
X394547721Y-69509299D01*
X394547724Y-69509301D01*
X394720942Y-69630589D01*
X394912590Y-69719956D01*
X395116845Y-69774686D01*
X395267312Y-69787850D01*
X395327498Y-69793116D01*
X395327500Y-69793116D01*
X395327502Y-69793116D01*
X395380163Y-69788508D01*
X395538155Y-69774686D01*
X395742410Y-69719956D01*
X395934058Y-69630589D01*
X396107276Y-69509301D01*
X396256801Y-69359776D01*
X396378089Y-69186558D01*
X396467456Y-68994910D01*
X396522186Y-68790655D01*
X396540616Y-68580000D01*
X396522186Y-68369345D01*
X396522093Y-68368997D01*
X396522096Y-68368839D01*
X396521245Y-68364008D01*
X396522215Y-68363836D01*
X396523752Y-68299148D01*
X396554183Y-68249219D01*
X399272071Y-65531333D01*
X399341400Y-65427575D01*
X399389155Y-65312285D01*
X399413500Y-65189894D01*
X399413500Y-65065107D01*
X399413500Y-57155729D01*
X399433185Y-57088690D01*
X399478484Y-57046674D01*
X399525566Y-57021195D01*
X399525569Y-57021192D01*
X399525576Y-57021189D01*
X399703240Y-56882906D01*
X399824594Y-56751082D01*
X399855715Y-56717276D01*
X399855715Y-56717275D01*
X399855722Y-56717268D01*
X399949749Y-56573347D01*
X400002894Y-56527994D01*
X400072125Y-56518570D01*
X400135461Y-56548072D01*
X400155130Y-56570048D01*
X400281890Y-56751078D01*
X400448917Y-56918105D01*
X400642421Y-57053600D01*
X400856507Y-57153429D01*
X400856516Y-57153433D01*
X401070000Y-57210634D01*
X401070000Y-56313012D01*
X401127007Y-56345925D01*
X401254174Y-56380000D01*
X401385826Y-56380000D01*
X401512993Y-56345925D01*
X401570000Y-56313012D01*
X401570000Y-57210633D01*
X401783483Y-57153433D01*
X401783492Y-57153429D01*
X401910557Y-57094178D01*
X417309091Y-57094178D01*
X417329410Y-57443044D01*
X417329411Y-57443055D01*
X417390089Y-57787177D01*
X417390091Y-57787186D01*
X417490320Y-58121975D01*
X417628730Y-58442845D01*
X417628736Y-58442858D01*
X417803464Y-58745497D01*
X418012142Y-59025800D01*
X418020323Y-59034471D01*
X419270494Y-57784299D01*
X419360729Y-57908495D01*
X419499855Y-58047621D01*
X419624048Y-58137853D01*
X418376993Y-59384908D01*
X418376994Y-59384909D01*
X418519659Y-59504620D01*
X418811636Y-59696655D01*
X419123914Y-59853489D01*
X419123920Y-59853491D01*
X419452305Y-59973013D01*
X419452308Y-59973014D01*
X419792346Y-60053604D01*
X420139451Y-60094174D01*
X420139452Y-60094175D01*
X420488898Y-60094175D01*
X420488898Y-60094174D01*
X420836002Y-60053604D01*
X420836004Y-60053604D01*
X421176041Y-59973014D01*
X421176044Y-59973013D01*
X421504429Y-59853491D01*
X421504435Y-59853489D01*
X421816713Y-59696655D01*
X422108684Y-59504624D01*
X422108685Y-59504623D01*
X422251354Y-59384909D01*
X422251355Y-59384908D01*
X421004301Y-58137853D01*
X421128495Y-58047621D01*
X421267621Y-57908495D01*
X421357853Y-57784301D01*
X422608024Y-59034472D01*
X422608026Y-59034471D01*
X422616197Y-59025811D01*
X422616208Y-59025798D01*
X422824885Y-58745497D01*
X422999613Y-58442858D01*
X422999619Y-58442845D01*
X423138029Y-58121975D01*
X423238258Y-57787186D01*
X423238260Y-57787177D01*
X423298938Y-57443055D01*
X423298939Y-57443044D01*
X423319259Y-57094178D01*
X423319259Y-57094171D01*
X423298939Y-56745305D01*
X423298938Y-56745294D01*
X423238260Y-56401172D01*
X423238258Y-56401163D01*
X423138029Y-56066374D01*
X422999619Y-55745504D01*
X422999613Y-55745491D01*
X422824885Y-55442852D01*
X422616207Y-55162549D01*
X422608025Y-55153877D01*
X421357853Y-56404048D01*
X421267621Y-56279855D01*
X421128495Y-56140729D01*
X421004300Y-56050495D01*
X422251355Y-54803440D01*
X422251354Y-54803439D01*
X422108694Y-54683732D01*
X421816713Y-54491694D01*
X421504435Y-54334860D01*
X421504429Y-54334858D01*
X421176044Y-54215336D01*
X421176041Y-54215335D01*
X420836003Y-54134745D01*
X420488898Y-54094175D01*
X420139452Y-54094175D01*
X419792347Y-54134745D01*
X419792345Y-54134745D01*
X419452308Y-54215335D01*
X419452305Y-54215336D01*
X419123920Y-54334858D01*
X419123914Y-54334860D01*
X418811636Y-54491694D01*
X418519655Y-54683732D01*
X418376994Y-54803439D01*
X418376993Y-54803440D01*
X419624049Y-56050495D01*
X419499855Y-56140729D01*
X419360729Y-56279855D01*
X419270495Y-56404048D01*
X418020323Y-55153876D01*
X418020322Y-55153877D01*
X418012151Y-55162538D01*
X418012147Y-55162543D01*
X417803464Y-55442852D01*
X417628736Y-55745491D01*
X417628730Y-55745504D01*
X417490320Y-56066374D01*
X417390091Y-56401163D01*
X417390089Y-56401172D01*
X417329411Y-56745294D01*
X417329410Y-56745305D01*
X417309091Y-57094171D01*
X417309091Y-57094178D01*
X401910557Y-57094178D01*
X401997578Y-57053600D01*
X402191082Y-56918105D01*
X402358105Y-56751082D01*
X402493600Y-56557578D01*
X402593429Y-56343492D01*
X402593432Y-56343486D01*
X402650636Y-56130000D01*
X401753012Y-56130000D01*
X401785925Y-56072993D01*
X401820000Y-55945826D01*
X401820000Y-55814174D01*
X401785925Y-55687007D01*
X401753012Y-55630000D01*
X402650636Y-55630000D01*
X402650635Y-55629999D01*
X402593432Y-55416513D01*
X402593429Y-55416507D01*
X402493600Y-55202422D01*
X402493599Y-55202420D01*
X402358113Y-55008926D01*
X402358108Y-55008920D01*
X402191082Y-54841894D01*
X401997578Y-54706399D01*
X401783492Y-54606570D01*
X401783486Y-54606567D01*
X401570000Y-54549364D01*
X401570000Y-55446988D01*
X401512993Y-55414075D01*
X401385826Y-55380000D01*
X401254174Y-55380000D01*
X401127007Y-55414075D01*
X401070000Y-55446988D01*
X401070000Y-54549364D01*
X401069999Y-54549364D01*
X400856513Y-54606567D01*
X400856507Y-54606570D01*
X400642422Y-54706399D01*
X400642420Y-54706400D01*
X400448926Y-54841886D01*
X400448920Y-54841891D01*
X400281891Y-55008920D01*
X400281890Y-55008922D01*
X400155131Y-55189952D01*
X400100554Y-55233577D01*
X400031055Y-55240769D01*
X399968701Y-55209247D01*
X399949752Y-55186656D01*
X399855722Y-55042732D01*
X399855715Y-55042725D01*
X399855715Y-55042723D01*
X399703243Y-54877097D01*
X399703238Y-54877092D01*
X399525577Y-54738812D01*
X399525572Y-54738808D01*
X399327580Y-54631661D01*
X399327577Y-54631659D01*
X399327574Y-54631658D01*
X399327571Y-54631657D01*
X399327569Y-54631656D01*
X399114637Y-54558556D01*
X398892569Y-54521500D01*
X398667431Y-54521500D01*
X398445362Y-54558556D01*
X398232430Y-54631656D01*
X398232419Y-54631661D01*
X398034427Y-54738808D01*
X398034422Y-54738812D01*
X397856761Y-54877092D01*
X397793548Y-54945760D01*
X397733661Y-54981750D01*
X397663823Y-54979649D01*
X397606207Y-54940124D01*
X397586138Y-54905110D01*
X397540889Y-54783796D01*
X397507214Y-54738812D01*
X397453261Y-54666739D01*
X397336204Y-54579111D01*
X397199203Y-54528011D01*
X397138654Y-54521500D01*
X397138638Y-54521500D01*
X395341362Y-54521500D01*
X395341345Y-54521500D01*
X395280797Y-54528011D01*
X395280795Y-54528011D01*
X395143795Y-54579111D01*
X395026739Y-54666739D01*
X394939111Y-54783795D01*
X394888011Y-54920795D01*
X394888011Y-54920797D01*
X394881500Y-54981345D01*
X394881500Y-55122500D01*
X394861815Y-55189539D01*
X394809011Y-55235294D01*
X394757500Y-55246500D01*
X391097601Y-55246500D01*
X390975222Y-55270843D01*
X390975214Y-55270845D01*
X390859927Y-55318598D01*
X390859918Y-55318603D01*
X390756167Y-55387928D01*
X390756163Y-55387931D01*
X386835419Y-59308677D01*
X385676167Y-60467929D01*
X385640372Y-60503724D01*
X385587927Y-60556168D01*
X385518603Y-60659918D01*
X385518598Y-60659927D01*
X385470845Y-60775214D01*
X385470843Y-60775222D01*
X385446500Y-60897601D01*
X385446500Y-66102398D01*
X127750500Y-66102398D01*
X127750500Y-60960003D01*
X137359916Y-60960003D01*
X137380235Y-61308869D01*
X137380236Y-61308880D01*
X137440914Y-61653002D01*
X137440916Y-61653011D01*
X137541145Y-61987800D01*
X137679555Y-62308670D01*
X137679561Y-62308683D01*
X137854289Y-62611322D01*
X138062967Y-62891625D01*
X138071148Y-62900296D01*
X139321320Y-61650125D01*
X139411554Y-61774320D01*
X139550680Y-61913446D01*
X139674873Y-62003678D01*
X138427818Y-63250733D01*
X138427819Y-63250734D01*
X138570484Y-63370445D01*
X138862461Y-63562480D01*
X139174739Y-63719314D01*
X139174745Y-63719316D01*
X139503130Y-63838838D01*
X139503133Y-63838839D01*
X139843171Y-63919429D01*
X140190276Y-63959999D01*
X140190277Y-63960000D01*
X140539723Y-63960000D01*
X140539723Y-63959999D01*
X140886827Y-63919429D01*
X140886829Y-63919429D01*
X141226866Y-63838839D01*
X141226869Y-63838838D01*
X141555254Y-63719316D01*
X141555260Y-63719314D01*
X141867538Y-63562480D01*
X142159509Y-63370449D01*
X142159510Y-63370448D01*
X142302179Y-63250734D01*
X142302180Y-63250733D01*
X141055126Y-62003678D01*
X141179320Y-61913446D01*
X141318446Y-61774320D01*
X141408678Y-61650126D01*
X142658849Y-62900297D01*
X142658851Y-62900296D01*
X142667022Y-62891636D01*
X142667033Y-62891623D01*
X142875710Y-62611322D01*
X143050438Y-62308683D01*
X143050444Y-62308670D01*
X143188854Y-61987800D01*
X143289083Y-61653011D01*
X143289085Y-61653002D01*
X143349763Y-61308880D01*
X143349764Y-61308869D01*
X143370084Y-60960003D01*
X143370084Y-60959996D01*
X143349764Y-60611130D01*
X143349763Y-60611119D01*
X143289085Y-60266997D01*
X143289083Y-60266988D01*
X143188854Y-59932199D01*
X143050444Y-59611329D01*
X143050438Y-59611316D01*
X142875710Y-59308677D01*
X142667032Y-59028374D01*
X142658850Y-59019702D01*
X141408678Y-60269873D01*
X141318446Y-60145680D01*
X141179320Y-60006554D01*
X141055125Y-59916320D01*
X142302180Y-58669265D01*
X142302179Y-58669264D01*
X142159519Y-58549557D01*
X141867538Y-58357519D01*
X141555260Y-58200685D01*
X141555254Y-58200683D01*
X141226869Y-58081161D01*
X141226866Y-58081160D01*
X140886828Y-58000570D01*
X140539723Y-57960000D01*
X140190277Y-57960000D01*
X139843172Y-58000570D01*
X139843170Y-58000570D01*
X139503133Y-58081160D01*
X139503130Y-58081161D01*
X139174745Y-58200683D01*
X139174739Y-58200685D01*
X138862461Y-58357519D01*
X138570480Y-58549557D01*
X138427819Y-58669264D01*
X138427818Y-58669265D01*
X139674874Y-59916320D01*
X139550680Y-60006554D01*
X139411554Y-60145680D01*
X139321320Y-60269873D01*
X138071148Y-59019701D01*
X138071147Y-59019702D01*
X138062976Y-59028363D01*
X138062972Y-59028368D01*
X137854289Y-59308677D01*
X137679561Y-59611316D01*
X137679555Y-59611329D01*
X137541145Y-59932199D01*
X137440916Y-60266988D01*
X137440914Y-60266997D01*
X137380236Y-60611119D01*
X137380235Y-60611130D01*
X137359916Y-60959996D01*
X137359916Y-60960003D01*
X127750500Y-60960003D01*
X127750500Y-46594500D01*
X127770185Y-46527461D01*
X127822989Y-46481706D01*
X127874500Y-46470500D01*
X430925500Y-46470500D01*
X430992539Y-46490185D01*
G37*
%TD.AperFunction*%
%TD*%
M02*
