%TF.GenerationSoftware,KiCad,Pcbnew,8.0.0*%
%TF.CreationDate,2024-03-22T00:36:29-04:00*%
%TF.ProjectId,WaterSensor,57617465-7253-4656-9e73-6f722e6b6963,rev?*%
%TF.SameCoordinates,Original*%
%TF.FileFunction,Copper,L1,Top*%
%TF.FilePolarity,Positive*%
%FSLAX46Y46*%
G04 Gerber Fmt 4.6, Leading zero omitted, Abs format (unit mm)*
G04 Created by KiCad (PCBNEW 8.0.0) date 2024-03-22 00:36:29*
%MOMM*%
%LPD*%
G01*
G04 APERTURE LIST*
%TA.AperFunction,ComponentPad*%
%ADD10C,0.800000*%
%TD*%
%TA.AperFunction,ComponentPad*%
%ADD11C,5.000000*%
%TD*%
%TA.AperFunction,ComponentPad*%
%ADD12C,1.400000*%
%TD*%
%TA.AperFunction,ComponentPad*%
%ADD13O,1.400000X1.400000*%
%TD*%
%TA.AperFunction,ComponentPad*%
%ADD14R,1.700000X1.700000*%
%TD*%
%TA.AperFunction,ComponentPad*%
%ADD15O,1.700000X1.700000*%
%TD*%
%TA.AperFunction,ComponentPad*%
%ADD16R,1.500000X1.050000*%
%TD*%
%TA.AperFunction,ComponentPad*%
%ADD17O,1.500000X1.050000*%
%TD*%
%TA.AperFunction,Conductor*%
%ADD18C,0.250000*%
%TD*%
G04 APERTURE END LIST*
D10*
%TO.P,H2,1,1*%
%TO.N,GND*%
X138490000Y-60960000D03*
X139039175Y-59634175D03*
X139039175Y-62285825D03*
X140365000Y-59085000D03*
D11*
X140365000Y-60960000D03*
D10*
X140365000Y-62835000D03*
X141690825Y-59634175D03*
X141690825Y-62285825D03*
X142240000Y-60960000D03*
%TD*%
%TO.P,H4,1,1*%
%TO.N,GND*%
X140365000Y-335280000D03*
X140914175Y-333954175D03*
X140914175Y-336605825D03*
X142240000Y-333405000D03*
D11*
X142240000Y-335280000D03*
D10*
X142240000Y-337155000D03*
X143565825Y-333954175D03*
X143565825Y-336605825D03*
X144115000Y-335280000D03*
%TD*%
%TO.P,H1,1,1*%
%TO.N,GND*%
X418439175Y-57094175D03*
X418988350Y-55768350D03*
X418988350Y-58420000D03*
X420314175Y-55219175D03*
D11*
X420314175Y-57094175D03*
D10*
X420314175Y-58969175D03*
X421640000Y-55768350D03*
X421640000Y-58420000D03*
X422189175Y-57094175D03*
%TD*%
%TO.P,H3,1,1*%
%TO.N,GND*%
X414685000Y-335280000D03*
X415234175Y-333954175D03*
X415234175Y-336605825D03*
X416560000Y-333405000D03*
D11*
X416560000Y-335280000D03*
D10*
X416560000Y-337155000D03*
X417885825Y-333954175D03*
X417885825Y-336605825D03*
X418435000Y-335280000D03*
%TD*%
D12*
%TO.P,R2,1*%
%TO.N,SIG*%
X395327500Y-68580000D03*
D13*
%TO.P,R2,2*%
%TO.N,GND*%
X393427500Y-68580000D03*
%TD*%
D14*
%TO.P,J2,1,Pin_1*%
%TO.N,+5V*%
X396240000Y-55880000D03*
D15*
%TO.P,J2,2,Pin_2*%
%TO.N,SIG*%
X398780000Y-55880000D03*
%TO.P,J2,3,Pin_3*%
%TO.N,GND*%
X401320000Y-55880000D03*
%TD*%
D12*
%TO.P,R1,1*%
%TO.N,+5V*%
X396240000Y-61600000D03*
D13*
%TO.P,R1,2*%
%TO.N,PWR_SENSE*%
X396240000Y-63500000D03*
%TD*%
D16*
%TO.P,Q1,1,E*%
%TO.N,SIG*%
X388620006Y-63500000D03*
D17*
%TO.P,Q1,2,B*%
%TO.N,BASE_SENSE*%
X388620006Y-64770000D03*
%TO.P,Q1,3,C*%
%TO.N,+5V*%
X388620006Y-66040000D03*
%TD*%
D18*
%TO.N,BASE_SENSE*%
X388620006Y-64770000D02*
X389275006Y-64770000D01*
%TO.N,PWR_SENSE*%
X375920000Y-48260000D02*
X375920000Y-347980000D01*
X419100000Y-347980000D02*
X419100000Y-340485000D01*
X393700000Y-66040000D02*
X391160000Y-68580000D01*
X416560000Y-62230000D02*
X414020000Y-62230000D01*
X154940000Y-48260000D02*
X154940000Y-347980000D01*
X294640000Y-48260000D02*
X294640000Y-347980000D01*
X416560000Y-340485000D02*
X414020000Y-340485000D01*
X208280000Y-48260000D02*
X208280000Y-347980000D01*
X419100000Y-62230000D02*
X416560000Y-62230000D01*
X147445000Y-344170000D02*
X147445000Y-347855000D01*
X154940000Y-48260000D02*
X152400000Y-48260000D01*
X414020000Y-347980000D02*
X414020000Y-340485000D01*
X144780000Y-48260000D02*
X142240000Y-48260000D01*
X160020000Y-48260000D02*
X157480000Y-48260000D01*
X396940000Y-64200000D02*
X396940000Y-70420000D01*
X276860000Y-48260000D02*
X276860000Y-342900000D01*
X424180000Y-52070000D02*
X421640000Y-52070000D01*
X137160000Y-48260000D02*
X137160000Y-53340000D01*
X320040000Y-48260000D02*
X320040000Y-347980000D01*
X317500000Y-48260000D02*
X317500000Y-347980000D01*
X139700000Y-327660000D02*
X137160000Y-327660000D01*
X200660000Y-48260000D02*
X198120000Y-48260000D01*
X424180000Y-62230000D02*
X424180000Y-347980000D01*
X137160000Y-327660000D02*
X137160000Y-68580000D01*
X302260000Y-48260000D02*
X302260000Y-347980000D01*
X421640000Y-52070000D02*
X419100000Y-52070000D01*
X337820000Y-48260000D02*
X327660000Y-48260000D01*
X215900000Y-48260000D02*
X213360000Y-48260000D01*
X256540000Y-48260000D02*
X256540000Y-347980000D01*
X388620000Y-68580000D02*
X388620000Y-347980000D01*
X426720000Y-48260000D02*
X426720000Y-347980000D01*
X384000000Y-48260000D02*
X337820000Y-48260000D01*
X274320000Y-48260000D02*
X274320000Y-342900000D01*
X254000000Y-48260000D02*
X254000000Y-347980000D01*
X393700000Y-48260000D02*
X391160000Y-48260000D01*
X365760000Y-48260000D02*
X365760000Y-347980000D01*
X414020000Y-62230000D02*
X414020000Y-53340000D01*
X139700000Y-48260000D02*
X137160000Y-48260000D01*
X419100000Y-52070000D02*
X417830000Y-52070000D01*
X172720000Y-48260000D02*
X172720000Y-347980000D01*
X147320000Y-324943222D02*
X147320000Y-327660000D01*
X401320000Y-63500000D02*
X401320000Y-71120000D01*
X152400000Y-327660000D02*
X152400000Y-342900000D01*
X289560000Y-48260000D02*
X289560000Y-347980000D01*
X190500000Y-48260000D02*
X187960000Y-48260000D01*
X396240000Y-63500000D02*
X398780000Y-63500000D01*
X408940000Y-48260000D02*
X408940000Y-347980000D01*
X274320000Y-48260000D02*
X264160000Y-48260000D01*
X396940000Y-70420000D02*
X396240000Y-71120000D01*
X347980000Y-48260000D02*
X347980000Y-347980000D01*
X391160000Y-60960000D02*
X393700000Y-63500000D01*
X228600000Y-48260000D02*
X215900000Y-48260000D01*
X287020000Y-48260000D02*
X287020000Y-347980000D01*
X205740000Y-48260000D02*
X203200000Y-48260000D01*
X337820000Y-48260000D02*
X337820000Y-347980000D01*
X271780000Y-48260000D02*
X271780000Y-347980000D01*
X396240000Y-71120000D02*
X393700000Y-71120000D01*
X241300000Y-48260000D02*
X241300000Y-347980000D01*
X391160000Y-68580000D02*
X391160000Y-347980000D01*
X388620000Y-48260000D02*
X386080000Y-48260000D01*
X238760000Y-48260000D02*
X238760000Y-347980000D01*
X424180000Y-62230000D02*
X421640000Y-62230000D01*
X147320000Y-327660000D02*
X144780000Y-327660000D01*
X360680000Y-48260000D02*
X360680000Y-347980000D01*
X401320000Y-71120000D02*
X401320000Y-347980000D01*
X142240000Y-341630000D02*
X139700000Y-341630000D01*
X264160000Y-48260000D02*
X256540000Y-48260000D01*
X279400000Y-48260000D02*
X279400000Y-342900000D01*
X175260000Y-48260000D02*
X172720000Y-48260000D01*
X429260000Y-48260000D02*
X429260000Y-347980000D01*
X157480000Y-48260000D02*
X157480000Y-347980000D01*
X393700000Y-60960000D02*
X393700000Y-48260000D01*
X421640000Y-340485000D02*
X419100000Y-340485000D01*
X424180000Y-52070000D02*
X424180000Y-62230000D01*
X177800000Y-48260000D02*
X175260000Y-48260000D01*
X187960000Y-48260000D02*
X187960000Y-347980000D01*
X307340000Y-48260000D02*
X307340000Y-347980000D01*
X200660000Y-325120000D02*
X200660000Y-347980000D01*
X353060000Y-48260000D02*
X353060000Y-347980000D01*
X327660000Y-48260000D02*
X320040000Y-48260000D01*
X383540000Y-48260000D02*
X383540000Y-347980000D01*
X314960000Y-48260000D02*
X314960000Y-347980000D01*
X160020000Y-48260000D02*
X160020000Y-347980000D01*
X355600000Y-48260000D02*
X355600000Y-347980000D01*
X325120000Y-48260000D02*
X325120000Y-347980000D01*
X215900000Y-337820000D02*
X215900000Y-347980000D01*
X134620000Y-48260000D02*
X132080000Y-48260000D01*
X393700000Y-71120000D02*
X393700000Y-347980000D01*
X147445000Y-327785000D02*
X147445000Y-341630000D01*
X414020000Y-62230000D02*
X414020000Y-327660000D01*
X388620000Y-68580000D02*
X386080000Y-68580000D01*
X281940000Y-48260000D02*
X281940000Y-347980000D01*
X350520000Y-48260000D02*
X350520000Y-347980000D01*
X132080000Y-48260000D02*
X132080000Y-347980000D01*
X139700000Y-341630000D02*
X139700000Y-347980000D01*
X144780000Y-341630000D02*
X144780000Y-347980000D01*
X177800000Y-48260000D02*
X177800000Y-347980000D01*
X231140000Y-48260000D02*
X231140000Y-347980000D01*
X167640000Y-48260000D02*
X167640000Y-347980000D01*
X292100000Y-48260000D02*
X292100000Y-347980000D01*
X147445000Y-341630000D02*
X147445000Y-344170000D01*
X137160000Y-48260000D02*
X134620000Y-48260000D01*
X139700000Y-341630000D02*
X137160000Y-341630000D01*
X142240000Y-48260000D02*
X139700000Y-48260000D01*
X185420000Y-48260000D02*
X185420000Y-347980000D01*
X398780000Y-63500000D02*
X398780000Y-58420000D01*
X391160000Y-68580000D02*
X388620000Y-68580000D01*
X292100000Y-48260000D02*
X274320000Y-48260000D01*
X391160000Y-48260000D02*
X388620000Y-48260000D01*
X137160000Y-53340000D02*
X137160000Y-55880000D01*
X330200000Y-48260000D02*
X330200000Y-347980000D01*
X210820000Y-48260000D02*
X208280000Y-48260000D01*
X228600000Y-48260000D02*
X228600000Y-347980000D01*
X137160000Y-68580000D02*
X137160000Y-67310000D01*
X215900000Y-48260000D02*
X215900000Y-337820000D01*
X421640000Y-62230000D02*
X419100000Y-62230000D01*
X203200000Y-48260000D02*
X203200000Y-347980000D01*
X134620000Y-66040000D02*
X134620000Y-347980000D01*
X185420000Y-48260000D02*
X182880000Y-48260000D01*
X408940000Y-48260000D02*
X408940000Y-347980000D01*
X195580000Y-48260000D02*
X193040000Y-48260000D01*
X421640000Y-52070000D02*
X421640000Y-49530000D01*
X386080000Y-68580000D02*
X386080000Y-347980000D01*
X213360000Y-48260000D02*
X210820000Y-48260000D01*
X142240000Y-341630000D02*
X142240000Y-347980000D01*
X340360000Y-48260000D02*
X340360000Y-347980000D01*
X142240000Y-48260000D02*
X142240000Y-53340000D01*
X401320000Y-48260000D02*
X429260000Y-48260000D01*
X411480000Y-48260000D02*
X411480000Y-342900000D01*
X175260000Y-48260000D02*
X175260000Y-347980000D01*
X203200000Y-48260000D02*
X200660000Y-48260000D01*
X421640000Y-347980000D02*
X421640000Y-340485000D01*
X193040000Y-332740000D02*
X193040000Y-347980000D01*
X419100000Y-52070000D02*
X419100000Y-49530000D01*
X312420000Y-48260000D02*
X312420000Y-347980000D01*
X236220000Y-48260000D02*
X236220000Y-347980000D01*
X137160000Y-341630000D02*
X137160000Y-347980000D01*
X264160000Y-48260000D02*
X264160000Y-347980000D01*
X259080000Y-48260000D02*
X259080000Y-347980000D01*
X220980000Y-48260000D02*
X220980000Y-347980000D01*
X363220000Y-48260000D02*
X363220000Y-347980000D01*
X304800000Y-48260000D02*
X304800000Y-347980000D01*
X167640000Y-48260000D02*
X165100000Y-48260000D01*
X165100000Y-287020000D02*
X165100000Y-347980000D01*
X200660000Y-48260000D02*
X200660000Y-325120000D01*
X248920000Y-48260000D02*
X248920000Y-347980000D01*
X134620000Y-48260000D02*
X134620000Y-66040000D01*
X398780000Y-71120000D02*
X398780000Y-347980000D01*
X396240000Y-63500000D02*
X393700000Y-60960000D01*
X198120000Y-48260000D02*
X195580000Y-48260000D01*
X368300000Y-48260000D02*
X368300000Y-347980000D01*
X180340000Y-48260000D02*
X180340000Y-347980000D01*
X414020000Y-340485000D02*
X411480000Y-340485000D01*
X398780000Y-63500000D02*
X401320000Y-63500000D01*
X322580000Y-48260000D02*
X322580000Y-347980000D01*
X144780000Y-327660000D02*
X144780000Y-67310000D01*
X266700000Y-48260000D02*
X266700000Y-347980000D01*
X421640000Y-62230000D02*
X421640000Y-327660000D01*
X144780000Y-341630000D02*
X142240000Y-341630000D01*
X182880000Y-48260000D02*
X180340000Y-48260000D01*
X386080000Y-48260000D02*
X384000000Y-48260000D01*
X205740000Y-48260000D02*
X205740000Y-347980000D01*
X299720000Y-48260000D02*
X299720000Y-347980000D01*
X335280000Y-48260000D02*
X335280000Y-347980000D01*
X152400000Y-48260000D02*
X152400000Y-327660000D01*
X137160000Y-55880000D02*
X144780000Y-55880000D01*
X129540000Y-48260000D02*
X129540000Y-347980000D01*
X256540000Y-48260000D02*
X228600000Y-48260000D01*
X327660000Y-48260000D02*
X327660000Y-347980000D01*
X332740000Y-48260000D02*
X332740000Y-347980000D01*
X320040000Y-48260000D02*
X292100000Y-48260000D01*
X415290000Y-52070000D02*
X414020000Y-52070000D01*
X144780000Y-48260000D02*
X144780000Y-53340000D01*
X152400000Y-342900000D02*
X152400000Y-347980000D01*
X396240000Y-71120000D02*
X396240000Y-347980000D01*
X417830000Y-52070000D02*
X416560000Y-52070000D01*
X157480000Y-48260000D02*
X154940000Y-48260000D01*
X396240000Y-48260000D02*
X398780000Y-48260000D01*
X251460000Y-48260000D02*
X251460000Y-347980000D01*
X193040000Y-48260000D02*
X190500000Y-48260000D01*
X279400000Y-342900000D02*
X279400000Y-347980000D01*
X149860000Y-327660000D02*
X149860000Y-347980000D01*
X233680000Y-48260000D02*
X233680000Y-347980000D01*
X416560000Y-52070000D02*
X415290000Y-52070000D01*
X398780000Y-63500000D02*
X398780000Y-71120000D01*
X152400000Y-48260000D02*
X149860000Y-48260000D01*
X139700000Y-48260000D02*
X139700000Y-53340000D01*
X309880000Y-48260000D02*
X309880000Y-347980000D01*
X342900000Y-48260000D02*
X342900000Y-347980000D01*
X223520000Y-48260000D02*
X223520000Y-347980000D01*
X243840000Y-48260000D02*
X243840000Y-347980000D01*
X142240000Y-327660000D02*
X142240000Y-67310000D01*
X411480000Y-342900000D02*
X411480000Y-347980000D01*
X172720000Y-48260000D02*
X170180000Y-48260000D01*
X193040000Y-48260000D02*
X193040000Y-332740000D01*
X378460000Y-48260000D02*
X378460000Y-347980000D01*
X383540000Y-48260000D02*
X384000000Y-48260000D01*
X165100000Y-48260000D02*
X165100000Y-287020000D01*
X261620000Y-48260000D02*
X261620000Y-347980000D01*
X396240000Y-48260000D02*
X396240000Y-53340000D01*
X190500000Y-48260000D02*
X190500000Y-347980000D01*
X419100000Y-62230000D02*
X419100000Y-327660000D01*
X147445000Y-341630000D02*
X144780000Y-341630000D01*
X396240000Y-63500000D02*
X396940000Y-64200000D01*
X386080000Y-48260000D02*
X386080000Y-60960000D01*
X414020000Y-52070000D02*
X414020000Y-49530000D01*
X162560000Y-48260000D02*
X160020000Y-48260000D01*
X269240000Y-48260000D02*
X269240000Y-347980000D01*
X218440000Y-48260000D02*
X218440000Y-347980000D01*
X424180000Y-48260000D02*
X424180000Y-52070000D01*
X139700000Y-327660000D02*
X139700000Y-67310000D01*
X132080000Y-48260000D02*
X129540000Y-48260000D01*
X208280000Y-48260000D02*
X205740000Y-48260000D01*
X391160000Y-48260000D02*
X391160000Y-60960000D01*
X180340000Y-48260000D02*
X177800000Y-48260000D01*
X284480000Y-48260000D02*
X284480000Y-347980000D01*
X187960000Y-48260000D02*
X185420000Y-48260000D01*
X393700000Y-63500000D02*
X393700000Y-66040000D01*
X403860000Y-48260000D02*
X403860000Y-347980000D01*
X226060000Y-48260000D02*
X226060000Y-347980000D01*
X144780000Y-327660000D02*
X142240000Y-327660000D01*
X274320000Y-342900000D02*
X274320000Y-347980000D01*
X165100000Y-48260000D02*
X162560000Y-48260000D01*
X198120000Y-48260000D02*
X198120000Y-347980000D01*
X147320000Y-48260000D02*
X144780000Y-48260000D01*
X393700000Y-48260000D02*
X396240000Y-48260000D01*
X416560000Y-52070000D02*
X416560000Y-49530000D01*
X401320000Y-48260000D02*
X401320000Y-53340000D01*
X147320000Y-327660000D02*
X147445000Y-327785000D01*
X416560000Y-62230000D02*
X416560000Y-327660000D01*
X373380000Y-48260000D02*
X373380000Y-347980000D01*
X406400000Y-48260000D02*
X406400000Y-347980000D01*
X398780000Y-48260000D02*
X401320000Y-48260000D01*
X149860000Y-48260000D02*
X147320000Y-48260000D01*
X142240000Y-327660000D02*
X139700000Y-327660000D01*
X358140000Y-48260000D02*
X358140000Y-347980000D01*
X170180000Y-48260000D02*
X167640000Y-48260000D01*
X276860000Y-342900000D02*
X276860000Y-347980000D01*
X381000000Y-48260000D02*
X381000000Y-347980000D01*
X147320000Y-48260000D02*
X147320000Y-324943222D01*
X398780000Y-48260000D02*
X398780000Y-53340000D01*
X416560000Y-347980000D02*
X416560000Y-340485000D01*
X170180000Y-48260000D02*
X170180000Y-347980000D01*
X370840000Y-48260000D02*
X370840000Y-347980000D01*
X195580000Y-48260000D02*
X195580000Y-347980000D01*
X419100000Y-340485000D02*
X416560000Y-340485000D01*
X210820000Y-48260000D02*
X210820000Y-347980000D01*
X149860000Y-48260000D02*
X149860000Y-327660000D01*
X345440000Y-48260000D02*
X345440000Y-347980000D01*
X182880000Y-48260000D02*
X182880000Y-347980000D01*
X213360000Y-48260000D02*
X213360000Y-347980000D01*
X388620000Y-48260000D02*
X388620000Y-60960000D01*
X401320000Y-63500000D02*
X401320000Y-58420000D01*
X297180000Y-48260000D02*
X297180000Y-347980000D01*
X246380000Y-48260000D02*
X246380000Y-347980000D01*
X162560000Y-48260000D02*
X162560000Y-347980000D01*
%TD*%
%TA.AperFunction,Conductor*%
%TO.N,BASE_SENSE*%
G36*
X430992539Y-46490185D02*
G01*
X431038294Y-46542989D01*
X431049500Y-46594500D01*
X431049500Y-349645500D01*
X431029815Y-349712539D01*
X430977011Y-349758294D01*
X430925500Y-349769500D01*
X127874500Y-349769500D01*
X127807461Y-349749815D01*
X127761706Y-349697011D01*
X127750500Y-349645500D01*
X127750500Y-348022852D01*
X129214500Y-348022852D01*
X129236682Y-348105637D01*
X129236685Y-348105644D01*
X129279530Y-348179855D01*
X129279534Y-348179860D01*
X129279535Y-348179862D01*
X129340138Y-348240465D01*
X129340140Y-348240466D01*
X129340144Y-348240469D01*
X129414355Y-348283314D01*
X129414362Y-348283318D01*
X129497147Y-348305500D01*
X129497149Y-348305500D01*
X129582851Y-348305500D01*
X129582853Y-348305500D01*
X129665638Y-348283318D01*
X129739862Y-348240465D01*
X129800465Y-348179862D01*
X129843318Y-348105638D01*
X129865500Y-348022853D01*
X129865500Y-48709500D01*
X129885185Y-48642461D01*
X129937989Y-48596706D01*
X129989500Y-48585500D01*
X131630500Y-48585500D01*
X131697539Y-48605185D01*
X131743294Y-48657989D01*
X131754500Y-48709500D01*
X131754500Y-348022852D01*
X131776682Y-348105637D01*
X131776685Y-348105644D01*
X131819530Y-348179855D01*
X131819534Y-348179860D01*
X131819535Y-348179862D01*
X131880138Y-348240465D01*
X131880140Y-348240466D01*
X131880144Y-348240469D01*
X131954355Y-348283314D01*
X131954362Y-348283318D01*
X132037147Y-348305500D01*
X132037149Y-348305500D01*
X132122851Y-348305500D01*
X132122853Y-348305500D01*
X132205638Y-348283318D01*
X132279862Y-348240465D01*
X132340465Y-348179862D01*
X132383318Y-348105638D01*
X132405500Y-348022853D01*
X132405500Y-48709500D01*
X132425185Y-48642461D01*
X132477989Y-48596706D01*
X132529500Y-48585500D01*
X134170500Y-48585500D01*
X134237539Y-48605185D01*
X134283294Y-48657989D01*
X134294500Y-48709500D01*
X134294500Y-348022852D01*
X134316682Y-348105637D01*
X134316685Y-348105644D01*
X134359530Y-348179855D01*
X134359534Y-348179860D01*
X134359535Y-348179862D01*
X134420138Y-348240465D01*
X134420140Y-348240466D01*
X134420144Y-348240469D01*
X134494355Y-348283314D01*
X134494362Y-348283318D01*
X134577147Y-348305500D01*
X134577149Y-348305500D01*
X134662851Y-348305500D01*
X134662853Y-348305500D01*
X134745638Y-348283318D01*
X134819862Y-348240465D01*
X134880465Y-348179862D01*
X134923318Y-348105638D01*
X134945500Y-348022853D01*
X134945500Y-65997147D01*
X134945500Y-48709500D01*
X134965185Y-48642461D01*
X135017989Y-48596706D01*
X135069500Y-48585500D01*
X136710500Y-48585500D01*
X136777539Y-48605185D01*
X136823294Y-48657989D01*
X136834500Y-48709500D01*
X136834500Y-55756000D01*
X136814815Y-55823039D01*
X136762011Y-55868794D01*
X136710500Y-55880000D01*
X135830000Y-55880000D01*
X135830000Y-66040000D01*
X145990000Y-66040000D01*
X145990000Y-55880000D01*
X145212131Y-55880000D01*
X145145092Y-55860315D01*
X145099337Y-55807511D01*
X145092356Y-55788094D01*
X145083318Y-55754362D01*
X145083314Y-55754355D01*
X145040469Y-55680144D01*
X145040463Y-55680136D01*
X144979863Y-55619536D01*
X144979855Y-55619530D01*
X144905644Y-55576685D01*
X144905640Y-55576683D01*
X144905638Y-55576682D01*
X144822853Y-55554500D01*
X144822852Y-55554500D01*
X137609500Y-55554500D01*
X137542461Y-55534815D01*
X137496706Y-55482011D01*
X137485500Y-55430500D01*
X137485500Y-48709500D01*
X137505185Y-48642461D01*
X137557989Y-48596706D01*
X137609500Y-48585500D01*
X139250500Y-48585500D01*
X139317539Y-48605185D01*
X139363294Y-48657989D01*
X139374500Y-48709500D01*
X139374500Y-53382852D01*
X139396682Y-53465637D01*
X139396685Y-53465644D01*
X139439530Y-53539855D01*
X139439534Y-53539860D01*
X139439535Y-53539862D01*
X139500138Y-53600465D01*
X139500140Y-53600466D01*
X139500144Y-53600469D01*
X139574355Y-53643314D01*
X139574362Y-53643318D01*
X139657147Y-53665500D01*
X139657149Y-53665500D01*
X139742851Y-53665500D01*
X139742853Y-53665500D01*
X139825638Y-53643318D01*
X139899862Y-53600465D01*
X139960465Y-53539862D01*
X140003318Y-53465638D01*
X140025500Y-53382853D01*
X140025500Y-48709500D01*
X140045185Y-48642461D01*
X140097989Y-48596706D01*
X140149500Y-48585500D01*
X141790500Y-48585500D01*
X141857539Y-48605185D01*
X141903294Y-48657989D01*
X141914500Y-48709500D01*
X141914500Y-53382852D01*
X141936682Y-53465637D01*
X141936685Y-53465644D01*
X141979530Y-53539855D01*
X141979534Y-53539860D01*
X141979535Y-53539862D01*
X142040138Y-53600465D01*
X142040140Y-53600466D01*
X142040144Y-53600469D01*
X142114355Y-53643314D01*
X142114362Y-53643318D01*
X142197147Y-53665500D01*
X142197149Y-53665500D01*
X142282851Y-53665500D01*
X142282853Y-53665500D01*
X142365638Y-53643318D01*
X142439862Y-53600465D01*
X142500465Y-53539862D01*
X142543318Y-53465638D01*
X142565500Y-53382853D01*
X142565500Y-48709500D01*
X142585185Y-48642461D01*
X142637989Y-48596706D01*
X142689500Y-48585500D01*
X144330500Y-48585500D01*
X144397539Y-48605185D01*
X144443294Y-48657989D01*
X144454500Y-48709500D01*
X144454500Y-53382852D01*
X144476682Y-53465637D01*
X144476685Y-53465644D01*
X144519530Y-53539855D01*
X144519534Y-53539860D01*
X144519535Y-53539862D01*
X144580138Y-53600465D01*
X144580140Y-53600466D01*
X144580144Y-53600469D01*
X144654355Y-53643314D01*
X144654362Y-53643318D01*
X144737147Y-53665500D01*
X144737149Y-53665500D01*
X144822851Y-53665500D01*
X144822853Y-53665500D01*
X144905638Y-53643318D01*
X144979862Y-53600465D01*
X145040465Y-53539862D01*
X145083318Y-53465638D01*
X145105500Y-53382853D01*
X145105500Y-48709500D01*
X145125185Y-48642461D01*
X145177989Y-48596706D01*
X145229500Y-48585500D01*
X146870500Y-48585500D01*
X146937539Y-48605185D01*
X146983294Y-48657989D01*
X146994500Y-48709500D01*
X146994500Y-327210500D01*
X146974815Y-327277539D01*
X146922011Y-327323294D01*
X146870500Y-327334500D01*
X145229500Y-327334500D01*
X145162461Y-327314815D01*
X145116706Y-327262011D01*
X145105500Y-327210500D01*
X145105500Y-67267149D01*
X145105500Y-67267147D01*
X145083318Y-67184362D01*
X145083314Y-67184355D01*
X145040469Y-67110144D01*
X145040463Y-67110136D01*
X144979863Y-67049536D01*
X144979855Y-67049530D01*
X144905644Y-67006685D01*
X144905640Y-67006683D01*
X144905638Y-67006682D01*
X144822853Y-66984500D01*
X144737147Y-66984500D01*
X144654362Y-67006682D01*
X144654355Y-67006685D01*
X144580144Y-67049530D01*
X144580136Y-67049536D01*
X144519536Y-67110136D01*
X144519530Y-67110144D01*
X144476685Y-67184355D01*
X144476682Y-67184362D01*
X144454500Y-67267147D01*
X144454500Y-327210500D01*
X144434815Y-327277539D01*
X144382011Y-327323294D01*
X144330500Y-327334500D01*
X142689500Y-327334500D01*
X142622461Y-327314815D01*
X142576706Y-327262011D01*
X142565500Y-327210500D01*
X142565500Y-67267149D01*
X142565500Y-67267147D01*
X142543318Y-67184362D01*
X142543314Y-67184355D01*
X142500469Y-67110144D01*
X142500463Y-67110136D01*
X142439863Y-67049536D01*
X142439855Y-67049530D01*
X142365644Y-67006685D01*
X142365640Y-67006683D01*
X142365638Y-67006682D01*
X142282853Y-66984500D01*
X142197147Y-66984500D01*
X142114362Y-67006682D01*
X142114355Y-67006685D01*
X142040144Y-67049530D01*
X142040136Y-67049536D01*
X141979536Y-67110136D01*
X141979530Y-67110144D01*
X141936685Y-67184355D01*
X141936682Y-67184362D01*
X141914500Y-67267147D01*
X141914500Y-327210500D01*
X141894815Y-327277539D01*
X141842011Y-327323294D01*
X141790500Y-327334500D01*
X140149500Y-327334500D01*
X140082461Y-327314815D01*
X140036706Y-327262011D01*
X140025500Y-327210500D01*
X140025500Y-67267149D01*
X140025500Y-67267147D01*
X140003318Y-67184362D01*
X140003314Y-67184355D01*
X139960469Y-67110144D01*
X139960463Y-67110136D01*
X139899863Y-67049536D01*
X139899855Y-67049530D01*
X139825644Y-67006685D01*
X139825640Y-67006683D01*
X139825638Y-67006682D01*
X139742853Y-66984500D01*
X139657147Y-66984500D01*
X139574362Y-67006682D01*
X139574355Y-67006685D01*
X139500144Y-67049530D01*
X139500136Y-67049536D01*
X139439536Y-67110136D01*
X139439530Y-67110144D01*
X139396685Y-67184355D01*
X139396682Y-67184362D01*
X139374500Y-67267147D01*
X139374500Y-327210500D01*
X139354815Y-327277539D01*
X139302011Y-327323294D01*
X139250500Y-327334500D01*
X137609500Y-327334500D01*
X137542461Y-327314815D01*
X137496706Y-327262011D01*
X137485500Y-327210500D01*
X137485500Y-67267149D01*
X137485500Y-67267147D01*
X137463318Y-67184362D01*
X137463314Y-67184355D01*
X137420469Y-67110144D01*
X137420463Y-67110136D01*
X137359863Y-67049536D01*
X137359855Y-67049530D01*
X137285644Y-67006685D01*
X137285640Y-67006683D01*
X137285638Y-67006682D01*
X137202853Y-66984500D01*
X137117147Y-66984500D01*
X137034362Y-67006682D01*
X137034355Y-67006685D01*
X136960144Y-67049530D01*
X136960136Y-67049536D01*
X136899536Y-67110136D01*
X136899530Y-67110144D01*
X136856685Y-67184355D01*
X136856682Y-67184362D01*
X136834500Y-67267147D01*
X136834500Y-327702852D01*
X136856682Y-327785637D01*
X136856685Y-327785644D01*
X136899530Y-327859855D01*
X136899534Y-327859860D01*
X136899535Y-327859862D01*
X136960138Y-327920465D01*
X136960140Y-327920466D01*
X136960144Y-327920469D01*
X137034355Y-327963314D01*
X137034362Y-327963318D01*
X137117147Y-327985500D01*
X137202853Y-327985500D01*
X139657147Y-327985500D01*
X142197147Y-327985500D01*
X144737147Y-327985500D01*
X144822853Y-327985500D01*
X146995500Y-327985500D01*
X147062539Y-328005185D01*
X147108294Y-328057989D01*
X147119500Y-328109500D01*
X147119500Y-330076000D01*
X147099815Y-330143039D01*
X147047011Y-330188794D01*
X146995500Y-330200000D01*
X137160000Y-330200000D01*
X137160000Y-340360000D01*
X146995500Y-340360000D01*
X147062539Y-340379685D01*
X147108294Y-340432489D01*
X147119500Y-340484000D01*
X147119500Y-341180500D01*
X147099815Y-341247539D01*
X147047011Y-341293294D01*
X146995500Y-341304500D01*
X137117147Y-341304500D01*
X137034362Y-341326682D01*
X137034355Y-341326685D01*
X136960144Y-341369530D01*
X136960136Y-341369536D01*
X136899536Y-341430136D01*
X136899530Y-341430144D01*
X136856685Y-341504355D01*
X136856682Y-341504362D01*
X136834500Y-341587147D01*
X136834500Y-348022852D01*
X136856682Y-348105637D01*
X136856685Y-348105644D01*
X136899530Y-348179855D01*
X136899534Y-348179860D01*
X136899535Y-348179862D01*
X136960138Y-348240465D01*
X136960140Y-348240466D01*
X136960144Y-348240469D01*
X137034355Y-348283314D01*
X137034362Y-348283318D01*
X137117147Y-348305500D01*
X137117149Y-348305500D01*
X137202851Y-348305500D01*
X137202853Y-348305500D01*
X137285638Y-348283318D01*
X137359862Y-348240465D01*
X137420465Y-348179862D01*
X137463318Y-348105638D01*
X137485500Y-348022853D01*
X137485500Y-342079500D01*
X137505185Y-342012461D01*
X137557989Y-341966706D01*
X137609500Y-341955500D01*
X139250500Y-341955500D01*
X139317539Y-341975185D01*
X139363294Y-342027989D01*
X139374500Y-342079500D01*
X139374500Y-348022852D01*
X139396682Y-348105637D01*
X139396685Y-348105644D01*
X139439530Y-348179855D01*
X139439534Y-348179860D01*
X139439535Y-348179862D01*
X139500138Y-348240465D01*
X139500140Y-348240466D01*
X139500144Y-348240469D01*
X139574355Y-348283314D01*
X139574362Y-348283318D01*
X139657147Y-348305500D01*
X139657149Y-348305500D01*
X139742851Y-348305500D01*
X139742853Y-348305500D01*
X139825638Y-348283318D01*
X139899862Y-348240465D01*
X139960465Y-348179862D01*
X140003318Y-348105638D01*
X140025500Y-348022853D01*
X140025500Y-342079500D01*
X140045185Y-342012461D01*
X140097989Y-341966706D01*
X140149500Y-341955500D01*
X141790500Y-341955500D01*
X141857539Y-341975185D01*
X141903294Y-342027989D01*
X141914500Y-342079500D01*
X141914500Y-348022852D01*
X141936682Y-348105637D01*
X141936685Y-348105644D01*
X141979530Y-348179855D01*
X141979534Y-348179860D01*
X141979535Y-348179862D01*
X142040138Y-348240465D01*
X142040140Y-348240466D01*
X142040144Y-348240469D01*
X142114355Y-348283314D01*
X142114362Y-348283318D01*
X142197147Y-348305500D01*
X142197149Y-348305500D01*
X142282851Y-348305500D01*
X142282853Y-348305500D01*
X142365638Y-348283318D01*
X142439862Y-348240465D01*
X142500465Y-348179862D01*
X142543318Y-348105638D01*
X142565500Y-348022853D01*
X142565500Y-342079500D01*
X142585185Y-342012461D01*
X142637989Y-341966706D01*
X142689500Y-341955500D01*
X144330500Y-341955500D01*
X144397539Y-341975185D01*
X144443294Y-342027989D01*
X144454500Y-342079500D01*
X144454500Y-348022852D01*
X144476682Y-348105637D01*
X144476685Y-348105644D01*
X144519530Y-348179855D01*
X144519534Y-348179860D01*
X144519535Y-348179862D01*
X144580138Y-348240465D01*
X144580140Y-348240466D01*
X144580144Y-348240469D01*
X144654355Y-348283314D01*
X144654362Y-348283318D01*
X144737147Y-348305500D01*
X144737149Y-348305500D01*
X144822851Y-348305500D01*
X144822853Y-348305500D01*
X144905638Y-348283318D01*
X144979862Y-348240465D01*
X145040465Y-348179862D01*
X145083318Y-348105638D01*
X145105500Y-348022853D01*
X145105500Y-342079500D01*
X145125185Y-342012461D01*
X145177989Y-341966706D01*
X145229500Y-341955500D01*
X146995500Y-341955500D01*
X147062539Y-341975185D01*
X147108294Y-342027989D01*
X147119500Y-342079500D01*
X147119500Y-347897852D01*
X147141682Y-347980637D01*
X147141685Y-347980644D01*
X147184530Y-348054855D01*
X147184534Y-348054860D01*
X147184535Y-348054862D01*
X147245138Y-348115465D01*
X147245140Y-348115466D01*
X147245144Y-348115469D01*
X147319355Y-348158314D01*
X147319362Y-348158318D01*
X147402147Y-348180500D01*
X147402149Y-348180500D01*
X147487851Y-348180500D01*
X147487853Y-348180500D01*
X147570638Y-348158318D01*
X147644862Y-348115465D01*
X147705465Y-348054862D01*
X147748318Y-347980638D01*
X147770500Y-347897853D01*
X147770500Y-344127147D01*
X147770500Y-341587147D01*
X147770500Y-327837855D01*
X147770501Y-327837842D01*
X147770501Y-327742148D01*
X147770501Y-327742147D01*
X147748318Y-327659361D01*
X147723945Y-327617147D01*
X147705465Y-327585138D01*
X147681819Y-327561492D01*
X147648334Y-327500169D01*
X147645500Y-327473811D01*
X147645500Y-48709500D01*
X147665185Y-48642461D01*
X147717989Y-48596706D01*
X147769500Y-48585500D01*
X149410500Y-48585500D01*
X149477539Y-48605185D01*
X149523294Y-48657989D01*
X149534500Y-48709500D01*
X149534500Y-348022852D01*
X149556682Y-348105637D01*
X149556685Y-348105644D01*
X149599530Y-348179855D01*
X149599534Y-348179860D01*
X149599535Y-348179862D01*
X149660138Y-348240465D01*
X149660140Y-348240466D01*
X149660144Y-348240469D01*
X149734355Y-348283314D01*
X149734362Y-348283318D01*
X149817147Y-348305500D01*
X149817149Y-348305500D01*
X149902851Y-348305500D01*
X149902853Y-348305500D01*
X149985638Y-348283318D01*
X150059862Y-348240465D01*
X150120465Y-348179862D01*
X150163318Y-348105638D01*
X150185500Y-348022853D01*
X150185500Y-327617147D01*
X150185500Y-48709500D01*
X150205185Y-48642461D01*
X150257989Y-48596706D01*
X150309500Y-48585500D01*
X151950500Y-48585500D01*
X152017539Y-48605185D01*
X152063294Y-48657989D01*
X152074500Y-48709500D01*
X152074500Y-348022852D01*
X152096682Y-348105637D01*
X152096685Y-348105644D01*
X152139530Y-348179855D01*
X152139534Y-348179860D01*
X152139535Y-348179862D01*
X152200138Y-348240465D01*
X152200140Y-348240466D01*
X152200144Y-348240469D01*
X152274355Y-348283314D01*
X152274362Y-348283318D01*
X152357147Y-348305500D01*
X152357149Y-348305500D01*
X152442851Y-348305500D01*
X152442853Y-348305500D01*
X152525638Y-348283318D01*
X152599862Y-348240465D01*
X152660465Y-348179862D01*
X152703318Y-348105638D01*
X152725500Y-348022853D01*
X152725500Y-342857147D01*
X152725500Y-327617147D01*
X152725500Y-48709500D01*
X152745185Y-48642461D01*
X152797989Y-48596706D01*
X152849500Y-48585500D01*
X154490500Y-48585500D01*
X154557539Y-48605185D01*
X154603294Y-48657989D01*
X154614500Y-48709500D01*
X154614500Y-348022852D01*
X154636682Y-348105637D01*
X154636685Y-348105644D01*
X154679530Y-348179855D01*
X154679534Y-348179860D01*
X154679535Y-348179862D01*
X154740138Y-348240465D01*
X154740140Y-348240466D01*
X154740144Y-348240469D01*
X154814355Y-348283314D01*
X154814362Y-348283318D01*
X154897147Y-348305500D01*
X154897149Y-348305500D01*
X154982851Y-348305500D01*
X154982853Y-348305500D01*
X155065638Y-348283318D01*
X155139862Y-348240465D01*
X155200465Y-348179862D01*
X155243318Y-348105638D01*
X155265500Y-348022853D01*
X155265500Y-48709500D01*
X155285185Y-48642461D01*
X155337989Y-48596706D01*
X155389500Y-48585500D01*
X157030500Y-48585500D01*
X157097539Y-48605185D01*
X157143294Y-48657989D01*
X157154500Y-48709500D01*
X157154500Y-348022852D01*
X157176682Y-348105637D01*
X157176685Y-348105644D01*
X157219530Y-348179855D01*
X157219534Y-348179860D01*
X157219535Y-348179862D01*
X157280138Y-348240465D01*
X157280140Y-348240466D01*
X157280144Y-348240469D01*
X157354355Y-348283314D01*
X157354362Y-348283318D01*
X157437147Y-348305500D01*
X157437149Y-348305500D01*
X157522851Y-348305500D01*
X157522853Y-348305500D01*
X157605638Y-348283318D01*
X157679862Y-348240465D01*
X157740465Y-348179862D01*
X157783318Y-348105638D01*
X157805500Y-348022853D01*
X157805500Y-48709500D01*
X157825185Y-48642461D01*
X157877989Y-48596706D01*
X157929500Y-48585500D01*
X159570500Y-48585500D01*
X159637539Y-48605185D01*
X159683294Y-48657989D01*
X159694500Y-48709500D01*
X159694500Y-348022852D01*
X159716682Y-348105637D01*
X159716685Y-348105644D01*
X159759530Y-348179855D01*
X159759534Y-348179860D01*
X159759535Y-348179862D01*
X159820138Y-348240465D01*
X159820140Y-348240466D01*
X159820144Y-348240469D01*
X159894355Y-348283314D01*
X159894362Y-348283318D01*
X159977147Y-348305500D01*
X159977149Y-348305500D01*
X160062851Y-348305500D01*
X160062853Y-348305500D01*
X160145638Y-348283318D01*
X160219862Y-348240465D01*
X160280465Y-348179862D01*
X160323318Y-348105638D01*
X160345500Y-348022853D01*
X160345500Y-48709500D01*
X160365185Y-48642461D01*
X160417989Y-48596706D01*
X160469500Y-48585500D01*
X162110500Y-48585500D01*
X162177539Y-48605185D01*
X162223294Y-48657989D01*
X162234500Y-48709500D01*
X162234500Y-348022852D01*
X162256682Y-348105637D01*
X162256685Y-348105644D01*
X162299530Y-348179855D01*
X162299534Y-348179860D01*
X162299535Y-348179862D01*
X162360138Y-348240465D01*
X162360140Y-348240466D01*
X162360144Y-348240469D01*
X162434355Y-348283314D01*
X162434362Y-348283318D01*
X162517147Y-348305500D01*
X162517149Y-348305500D01*
X162602851Y-348305500D01*
X162602853Y-348305500D01*
X162685638Y-348283318D01*
X162759862Y-348240465D01*
X162820465Y-348179862D01*
X162863318Y-348105638D01*
X162885500Y-348022853D01*
X162885500Y-48709500D01*
X162905185Y-48642461D01*
X162957989Y-48596706D01*
X163009500Y-48585500D01*
X164650500Y-48585500D01*
X164717539Y-48605185D01*
X164763294Y-48657989D01*
X164774500Y-48709500D01*
X164774500Y-348022852D01*
X164796682Y-348105637D01*
X164796685Y-348105644D01*
X164839530Y-348179855D01*
X164839534Y-348179860D01*
X164839535Y-348179862D01*
X164900138Y-348240465D01*
X164900140Y-348240466D01*
X164900144Y-348240469D01*
X164974355Y-348283314D01*
X164974362Y-348283318D01*
X165057147Y-348305500D01*
X165057149Y-348305500D01*
X165142851Y-348305500D01*
X165142853Y-348305500D01*
X165225638Y-348283318D01*
X165299862Y-348240465D01*
X165360465Y-348179862D01*
X165403318Y-348105638D01*
X165425500Y-348022853D01*
X165425500Y-286977147D01*
X165425500Y-48709500D01*
X165445185Y-48642461D01*
X165497989Y-48596706D01*
X165549500Y-48585500D01*
X167190500Y-48585500D01*
X167257539Y-48605185D01*
X167303294Y-48657989D01*
X167314500Y-48709500D01*
X167314500Y-348022852D01*
X167336682Y-348105637D01*
X167336685Y-348105644D01*
X167379530Y-348179855D01*
X167379534Y-348179860D01*
X167379535Y-348179862D01*
X167440138Y-348240465D01*
X167440140Y-348240466D01*
X167440144Y-348240469D01*
X167514355Y-348283314D01*
X167514362Y-348283318D01*
X167597147Y-348305500D01*
X167597149Y-348305500D01*
X167682851Y-348305500D01*
X167682853Y-348305500D01*
X167765638Y-348283318D01*
X167839862Y-348240465D01*
X167900465Y-348179862D01*
X167943318Y-348105638D01*
X167965500Y-348022853D01*
X167965500Y-48709500D01*
X167985185Y-48642461D01*
X168037989Y-48596706D01*
X168089500Y-48585500D01*
X169730500Y-48585500D01*
X169797539Y-48605185D01*
X169843294Y-48657989D01*
X169854500Y-48709500D01*
X169854500Y-348022852D01*
X169876682Y-348105637D01*
X169876685Y-348105644D01*
X169919530Y-348179855D01*
X169919534Y-348179860D01*
X169919535Y-348179862D01*
X169980138Y-348240465D01*
X169980140Y-348240466D01*
X169980144Y-348240469D01*
X170054355Y-348283314D01*
X170054362Y-348283318D01*
X170137147Y-348305500D01*
X170137149Y-348305500D01*
X170222851Y-348305500D01*
X170222853Y-348305500D01*
X170305638Y-348283318D01*
X170379862Y-348240465D01*
X170440465Y-348179862D01*
X170483318Y-348105638D01*
X170505500Y-348022853D01*
X170505500Y-48709500D01*
X170525185Y-48642461D01*
X170577989Y-48596706D01*
X170629500Y-48585500D01*
X172270500Y-48585500D01*
X172337539Y-48605185D01*
X172383294Y-48657989D01*
X172394500Y-48709500D01*
X172394500Y-348022852D01*
X172416682Y-348105637D01*
X172416685Y-348105644D01*
X172459530Y-348179855D01*
X172459534Y-348179860D01*
X172459535Y-348179862D01*
X172520138Y-348240465D01*
X172520140Y-348240466D01*
X172520144Y-348240469D01*
X172594355Y-348283314D01*
X172594362Y-348283318D01*
X172677147Y-348305500D01*
X172677149Y-348305500D01*
X172762851Y-348305500D01*
X172762853Y-348305500D01*
X172845638Y-348283318D01*
X172919862Y-348240465D01*
X172980465Y-348179862D01*
X173023318Y-348105638D01*
X173045500Y-348022853D01*
X173045500Y-48709500D01*
X173065185Y-48642461D01*
X173117989Y-48596706D01*
X173169500Y-48585500D01*
X174810500Y-48585500D01*
X174877539Y-48605185D01*
X174923294Y-48657989D01*
X174934500Y-48709500D01*
X174934500Y-348022852D01*
X174956682Y-348105637D01*
X174956685Y-348105644D01*
X174999530Y-348179855D01*
X174999534Y-348179860D01*
X174999535Y-348179862D01*
X175060138Y-348240465D01*
X175060140Y-348240466D01*
X175060144Y-348240469D01*
X175134355Y-348283314D01*
X175134362Y-348283318D01*
X175217147Y-348305500D01*
X175217149Y-348305500D01*
X175302851Y-348305500D01*
X175302853Y-348305500D01*
X175385638Y-348283318D01*
X175459862Y-348240465D01*
X175520465Y-348179862D01*
X175563318Y-348105638D01*
X175585500Y-348022853D01*
X175585500Y-48709500D01*
X175605185Y-48642461D01*
X175657989Y-48596706D01*
X175709500Y-48585500D01*
X177350500Y-48585500D01*
X177417539Y-48605185D01*
X177463294Y-48657989D01*
X177474500Y-48709500D01*
X177474500Y-348022852D01*
X177496682Y-348105637D01*
X177496685Y-348105644D01*
X177539530Y-348179855D01*
X177539534Y-348179860D01*
X177539535Y-348179862D01*
X177600138Y-348240465D01*
X177600140Y-348240466D01*
X177600144Y-348240469D01*
X177674355Y-348283314D01*
X177674362Y-348283318D01*
X177757147Y-348305500D01*
X177757149Y-348305500D01*
X177842851Y-348305500D01*
X177842853Y-348305500D01*
X177925638Y-348283318D01*
X177999862Y-348240465D01*
X178060465Y-348179862D01*
X178103318Y-348105638D01*
X178125500Y-348022853D01*
X178125500Y-48709500D01*
X178145185Y-48642461D01*
X178197989Y-48596706D01*
X178249500Y-48585500D01*
X179890500Y-48585500D01*
X179957539Y-48605185D01*
X180003294Y-48657989D01*
X180014500Y-48709500D01*
X180014500Y-348022852D01*
X180036682Y-348105637D01*
X180036685Y-348105644D01*
X180079530Y-348179855D01*
X180079534Y-348179860D01*
X180079535Y-348179862D01*
X180140138Y-348240465D01*
X180140140Y-348240466D01*
X180140144Y-348240469D01*
X180214355Y-348283314D01*
X180214362Y-348283318D01*
X180297147Y-348305500D01*
X180297149Y-348305500D01*
X180382851Y-348305500D01*
X180382853Y-348305500D01*
X180465638Y-348283318D01*
X180539862Y-348240465D01*
X180600465Y-348179862D01*
X180643318Y-348105638D01*
X180665500Y-348022853D01*
X180665500Y-48709500D01*
X180685185Y-48642461D01*
X180737989Y-48596706D01*
X180789500Y-48585500D01*
X182430500Y-48585500D01*
X182497539Y-48605185D01*
X182543294Y-48657989D01*
X182554500Y-48709500D01*
X182554500Y-348022852D01*
X182576682Y-348105637D01*
X182576685Y-348105644D01*
X182619530Y-348179855D01*
X182619534Y-348179860D01*
X182619535Y-348179862D01*
X182680138Y-348240465D01*
X182680140Y-348240466D01*
X182680144Y-348240469D01*
X182754355Y-348283314D01*
X182754362Y-348283318D01*
X182837147Y-348305500D01*
X182837149Y-348305500D01*
X182922851Y-348305500D01*
X182922853Y-348305500D01*
X183005638Y-348283318D01*
X183079862Y-348240465D01*
X183140465Y-348179862D01*
X183183318Y-348105638D01*
X183205500Y-348022853D01*
X183205500Y-48709500D01*
X183225185Y-48642461D01*
X183277989Y-48596706D01*
X183329500Y-48585500D01*
X184970500Y-48585500D01*
X185037539Y-48605185D01*
X185083294Y-48657989D01*
X185094500Y-48709500D01*
X185094500Y-348022852D01*
X185116682Y-348105637D01*
X185116685Y-348105644D01*
X185159530Y-348179855D01*
X185159534Y-348179860D01*
X185159535Y-348179862D01*
X185220138Y-348240465D01*
X185220140Y-348240466D01*
X185220144Y-348240469D01*
X185294355Y-348283314D01*
X185294362Y-348283318D01*
X185377147Y-348305500D01*
X185377149Y-348305500D01*
X185462851Y-348305500D01*
X185462853Y-348305500D01*
X185545638Y-348283318D01*
X185619862Y-348240465D01*
X185680465Y-348179862D01*
X185723318Y-348105638D01*
X185745500Y-348022853D01*
X185745500Y-48709500D01*
X185765185Y-48642461D01*
X185817989Y-48596706D01*
X185869500Y-48585500D01*
X187510500Y-48585500D01*
X187577539Y-48605185D01*
X187623294Y-48657989D01*
X187634500Y-48709500D01*
X187634500Y-348022852D01*
X187656682Y-348105637D01*
X187656685Y-348105644D01*
X187699530Y-348179855D01*
X187699534Y-348179860D01*
X187699535Y-348179862D01*
X187760138Y-348240465D01*
X187760140Y-348240466D01*
X187760144Y-348240469D01*
X187834355Y-348283314D01*
X187834362Y-348283318D01*
X187917147Y-348305500D01*
X187917149Y-348305500D01*
X188002851Y-348305500D01*
X188002853Y-348305500D01*
X188085638Y-348283318D01*
X188159862Y-348240465D01*
X188220465Y-348179862D01*
X188263318Y-348105638D01*
X188285500Y-348022853D01*
X188285500Y-48709500D01*
X188305185Y-48642461D01*
X188357989Y-48596706D01*
X188409500Y-48585500D01*
X190050500Y-48585500D01*
X190117539Y-48605185D01*
X190163294Y-48657989D01*
X190174500Y-48709500D01*
X190174500Y-348022852D01*
X190196682Y-348105637D01*
X190196685Y-348105644D01*
X190239530Y-348179855D01*
X190239534Y-348179860D01*
X190239535Y-348179862D01*
X190300138Y-348240465D01*
X190300140Y-348240466D01*
X190300144Y-348240469D01*
X190374355Y-348283314D01*
X190374362Y-348283318D01*
X190457147Y-348305500D01*
X190457149Y-348305500D01*
X190542851Y-348305500D01*
X190542853Y-348305500D01*
X190625638Y-348283318D01*
X190699862Y-348240465D01*
X190760465Y-348179862D01*
X190803318Y-348105638D01*
X190825500Y-348022853D01*
X190825500Y-48709500D01*
X190845185Y-48642461D01*
X190897989Y-48596706D01*
X190949500Y-48585500D01*
X192590500Y-48585500D01*
X192657539Y-48605185D01*
X192703294Y-48657989D01*
X192714500Y-48709500D01*
X192714500Y-348022852D01*
X192736682Y-348105637D01*
X192736685Y-348105644D01*
X192779530Y-348179855D01*
X192779534Y-348179860D01*
X192779535Y-348179862D01*
X192840138Y-348240465D01*
X192840140Y-348240466D01*
X192840144Y-348240469D01*
X192914355Y-348283314D01*
X192914362Y-348283318D01*
X192997147Y-348305500D01*
X192997149Y-348305500D01*
X193082851Y-348305500D01*
X193082853Y-348305500D01*
X193165638Y-348283318D01*
X193239862Y-348240465D01*
X193300465Y-348179862D01*
X193343318Y-348105638D01*
X193365500Y-348022853D01*
X193365500Y-332697147D01*
X193365500Y-48709500D01*
X193385185Y-48642461D01*
X193437989Y-48596706D01*
X193489500Y-48585500D01*
X195130500Y-48585500D01*
X195197539Y-48605185D01*
X195243294Y-48657989D01*
X195254500Y-48709500D01*
X195254500Y-348022852D01*
X195276682Y-348105637D01*
X195276685Y-348105644D01*
X195319530Y-348179855D01*
X195319534Y-348179860D01*
X195319535Y-348179862D01*
X195380138Y-348240465D01*
X195380140Y-348240466D01*
X195380144Y-348240469D01*
X195454355Y-348283314D01*
X195454362Y-348283318D01*
X195537147Y-348305500D01*
X195537149Y-348305500D01*
X195622851Y-348305500D01*
X195622853Y-348305500D01*
X195705638Y-348283318D01*
X195779862Y-348240465D01*
X195840465Y-348179862D01*
X195883318Y-348105638D01*
X195905500Y-348022853D01*
X195905500Y-48709500D01*
X195925185Y-48642461D01*
X195977989Y-48596706D01*
X196029500Y-48585500D01*
X197670500Y-48585500D01*
X197737539Y-48605185D01*
X197783294Y-48657989D01*
X197794500Y-48709500D01*
X197794500Y-348022852D01*
X197816682Y-348105637D01*
X197816685Y-348105644D01*
X197859530Y-348179855D01*
X197859534Y-348179860D01*
X197859535Y-348179862D01*
X197920138Y-348240465D01*
X197920140Y-348240466D01*
X197920144Y-348240469D01*
X197994355Y-348283314D01*
X197994362Y-348283318D01*
X198077147Y-348305500D01*
X198077149Y-348305500D01*
X198162851Y-348305500D01*
X198162853Y-348305500D01*
X198245638Y-348283318D01*
X198319862Y-348240465D01*
X198380465Y-348179862D01*
X198423318Y-348105638D01*
X198445500Y-348022853D01*
X198445500Y-48709500D01*
X198465185Y-48642461D01*
X198517989Y-48596706D01*
X198569500Y-48585500D01*
X200210500Y-48585500D01*
X200277539Y-48605185D01*
X200323294Y-48657989D01*
X200334500Y-48709500D01*
X200334500Y-348022852D01*
X200356682Y-348105637D01*
X200356685Y-348105644D01*
X200399530Y-348179855D01*
X200399534Y-348179860D01*
X200399535Y-348179862D01*
X200460138Y-348240465D01*
X200460140Y-348240466D01*
X200460144Y-348240469D01*
X200534355Y-348283314D01*
X200534362Y-348283318D01*
X200617147Y-348305500D01*
X200617149Y-348305500D01*
X200702851Y-348305500D01*
X200702853Y-348305500D01*
X200785638Y-348283318D01*
X200859862Y-348240465D01*
X200920465Y-348179862D01*
X200963318Y-348105638D01*
X200985500Y-348022853D01*
X200985500Y-325077147D01*
X200985500Y-48709500D01*
X201005185Y-48642461D01*
X201057989Y-48596706D01*
X201109500Y-48585500D01*
X202750500Y-48585500D01*
X202817539Y-48605185D01*
X202863294Y-48657989D01*
X202874500Y-48709500D01*
X202874500Y-348022852D01*
X202896682Y-348105637D01*
X202896685Y-348105644D01*
X202939530Y-348179855D01*
X202939534Y-348179860D01*
X202939535Y-348179862D01*
X203000138Y-348240465D01*
X203000140Y-348240466D01*
X203000144Y-348240469D01*
X203074355Y-348283314D01*
X203074362Y-348283318D01*
X203157147Y-348305500D01*
X203157149Y-348305500D01*
X203242851Y-348305500D01*
X203242853Y-348305500D01*
X203325638Y-348283318D01*
X203399862Y-348240465D01*
X203460465Y-348179862D01*
X203503318Y-348105638D01*
X203525500Y-348022853D01*
X203525500Y-48709500D01*
X203545185Y-48642461D01*
X203597989Y-48596706D01*
X203649500Y-48585500D01*
X205290500Y-48585500D01*
X205357539Y-48605185D01*
X205403294Y-48657989D01*
X205414500Y-48709500D01*
X205414500Y-348022852D01*
X205436682Y-348105637D01*
X205436685Y-348105644D01*
X205479530Y-348179855D01*
X205479534Y-348179860D01*
X205479535Y-348179862D01*
X205540138Y-348240465D01*
X205540140Y-348240466D01*
X205540144Y-348240469D01*
X205614355Y-348283314D01*
X205614362Y-348283318D01*
X205697147Y-348305500D01*
X205697149Y-348305500D01*
X205782851Y-348305500D01*
X205782853Y-348305500D01*
X205865638Y-348283318D01*
X205939862Y-348240465D01*
X206000465Y-348179862D01*
X206043318Y-348105638D01*
X206065500Y-348022853D01*
X206065500Y-48709500D01*
X206085185Y-48642461D01*
X206137989Y-48596706D01*
X206189500Y-48585500D01*
X207830500Y-48585500D01*
X207897539Y-48605185D01*
X207943294Y-48657989D01*
X207954500Y-48709500D01*
X207954500Y-348022852D01*
X207976682Y-348105637D01*
X207976685Y-348105644D01*
X208019530Y-348179855D01*
X208019534Y-348179860D01*
X208019535Y-348179862D01*
X208080138Y-348240465D01*
X208080140Y-348240466D01*
X208080144Y-348240469D01*
X208154355Y-348283314D01*
X208154362Y-348283318D01*
X208237147Y-348305500D01*
X208237149Y-348305500D01*
X208322851Y-348305500D01*
X208322853Y-348305500D01*
X208405638Y-348283318D01*
X208479862Y-348240465D01*
X208540465Y-348179862D01*
X208583318Y-348105638D01*
X208605500Y-348022853D01*
X208605500Y-48709500D01*
X208625185Y-48642461D01*
X208677989Y-48596706D01*
X208729500Y-48585500D01*
X210370500Y-48585500D01*
X210437539Y-48605185D01*
X210483294Y-48657989D01*
X210494500Y-48709500D01*
X210494500Y-348022852D01*
X210516682Y-348105637D01*
X210516685Y-348105644D01*
X210559530Y-348179855D01*
X210559534Y-348179860D01*
X210559535Y-348179862D01*
X210620138Y-348240465D01*
X210620140Y-348240466D01*
X210620144Y-348240469D01*
X210694355Y-348283314D01*
X210694362Y-348283318D01*
X210777147Y-348305500D01*
X210777149Y-348305500D01*
X210862851Y-348305500D01*
X210862853Y-348305500D01*
X210945638Y-348283318D01*
X211019862Y-348240465D01*
X211080465Y-348179862D01*
X211123318Y-348105638D01*
X211145500Y-348022853D01*
X211145500Y-48709500D01*
X211165185Y-48642461D01*
X211217989Y-48596706D01*
X211269500Y-48585500D01*
X212910500Y-48585500D01*
X212977539Y-48605185D01*
X213023294Y-48657989D01*
X213034500Y-48709500D01*
X213034500Y-348022852D01*
X213056682Y-348105637D01*
X213056685Y-348105644D01*
X213099530Y-348179855D01*
X213099534Y-348179860D01*
X213099535Y-348179862D01*
X213160138Y-348240465D01*
X213160140Y-348240466D01*
X213160144Y-348240469D01*
X213234355Y-348283314D01*
X213234362Y-348283318D01*
X213317147Y-348305500D01*
X213317149Y-348305500D01*
X213402851Y-348305500D01*
X213402853Y-348305500D01*
X213485638Y-348283318D01*
X213559862Y-348240465D01*
X213620465Y-348179862D01*
X213663318Y-348105638D01*
X213685500Y-348022853D01*
X213685500Y-48709500D01*
X213705185Y-48642461D01*
X213757989Y-48596706D01*
X213809500Y-48585500D01*
X215450500Y-48585500D01*
X215517539Y-48605185D01*
X215563294Y-48657989D01*
X215574500Y-48709500D01*
X215574500Y-348022852D01*
X215596682Y-348105637D01*
X215596685Y-348105644D01*
X215639530Y-348179855D01*
X215639534Y-348179860D01*
X215639535Y-348179862D01*
X215700138Y-348240465D01*
X215700140Y-348240466D01*
X215700144Y-348240469D01*
X215774355Y-348283314D01*
X215774362Y-348283318D01*
X215857147Y-348305500D01*
X215857149Y-348305500D01*
X215942851Y-348305500D01*
X215942853Y-348305500D01*
X216025638Y-348283318D01*
X216099862Y-348240465D01*
X216160465Y-348179862D01*
X216203318Y-348105638D01*
X216225500Y-348022853D01*
X216225500Y-337777147D01*
X216225500Y-48709500D01*
X216245185Y-48642461D01*
X216297989Y-48596706D01*
X216349500Y-48585500D01*
X217990500Y-48585500D01*
X218057539Y-48605185D01*
X218103294Y-48657989D01*
X218114500Y-48709500D01*
X218114500Y-348022852D01*
X218136682Y-348105637D01*
X218136685Y-348105644D01*
X218179530Y-348179855D01*
X218179534Y-348179860D01*
X218179535Y-348179862D01*
X218240138Y-348240465D01*
X218240140Y-348240466D01*
X218240144Y-348240469D01*
X218314355Y-348283314D01*
X218314362Y-348283318D01*
X218397147Y-348305500D01*
X218397149Y-348305500D01*
X218482851Y-348305500D01*
X218482853Y-348305500D01*
X218565638Y-348283318D01*
X218639862Y-348240465D01*
X218700465Y-348179862D01*
X218743318Y-348105638D01*
X218765500Y-348022853D01*
X218765500Y-48709500D01*
X218785185Y-48642461D01*
X218837989Y-48596706D01*
X218889500Y-48585500D01*
X220530500Y-48585500D01*
X220597539Y-48605185D01*
X220643294Y-48657989D01*
X220654500Y-48709500D01*
X220654500Y-348022852D01*
X220676682Y-348105637D01*
X220676685Y-348105644D01*
X220719530Y-348179855D01*
X220719534Y-348179860D01*
X220719535Y-348179862D01*
X220780138Y-348240465D01*
X220780140Y-348240466D01*
X220780144Y-348240469D01*
X220854355Y-348283314D01*
X220854362Y-348283318D01*
X220937147Y-348305500D01*
X220937149Y-348305500D01*
X221022851Y-348305500D01*
X221022853Y-348305500D01*
X221105638Y-348283318D01*
X221179862Y-348240465D01*
X221240465Y-348179862D01*
X221283318Y-348105638D01*
X221305500Y-348022853D01*
X221305500Y-48709500D01*
X221325185Y-48642461D01*
X221377989Y-48596706D01*
X221429500Y-48585500D01*
X223070500Y-48585500D01*
X223137539Y-48605185D01*
X223183294Y-48657989D01*
X223194500Y-48709500D01*
X223194500Y-348022852D01*
X223216682Y-348105637D01*
X223216685Y-348105644D01*
X223259530Y-348179855D01*
X223259534Y-348179860D01*
X223259535Y-348179862D01*
X223320138Y-348240465D01*
X223320140Y-348240466D01*
X223320144Y-348240469D01*
X223394355Y-348283314D01*
X223394362Y-348283318D01*
X223477147Y-348305500D01*
X223477149Y-348305500D01*
X223562851Y-348305500D01*
X223562853Y-348305500D01*
X223645638Y-348283318D01*
X223719862Y-348240465D01*
X223780465Y-348179862D01*
X223823318Y-348105638D01*
X223845500Y-348022853D01*
X223845500Y-48709500D01*
X223865185Y-48642461D01*
X223917989Y-48596706D01*
X223969500Y-48585500D01*
X225610500Y-48585500D01*
X225677539Y-48605185D01*
X225723294Y-48657989D01*
X225734500Y-48709500D01*
X225734500Y-348022852D01*
X225756682Y-348105637D01*
X225756685Y-348105644D01*
X225799530Y-348179855D01*
X225799534Y-348179860D01*
X225799535Y-348179862D01*
X225860138Y-348240465D01*
X225860140Y-348240466D01*
X225860144Y-348240469D01*
X225934355Y-348283314D01*
X225934362Y-348283318D01*
X226017147Y-348305500D01*
X226017149Y-348305500D01*
X226102851Y-348305500D01*
X226102853Y-348305500D01*
X226185638Y-348283318D01*
X226259862Y-348240465D01*
X226320465Y-348179862D01*
X226363318Y-348105638D01*
X226385500Y-348022853D01*
X226385500Y-48709500D01*
X226405185Y-48642461D01*
X226457989Y-48596706D01*
X226509500Y-48585500D01*
X228150500Y-48585500D01*
X228217539Y-48605185D01*
X228263294Y-48657989D01*
X228274500Y-48709500D01*
X228274500Y-348022852D01*
X228296682Y-348105637D01*
X228296685Y-348105644D01*
X228339530Y-348179855D01*
X228339534Y-348179860D01*
X228339535Y-348179862D01*
X228400138Y-348240465D01*
X228400140Y-348240466D01*
X228400144Y-348240469D01*
X228474355Y-348283314D01*
X228474362Y-348283318D01*
X228557147Y-348305500D01*
X228557149Y-348305500D01*
X228642851Y-348305500D01*
X228642853Y-348305500D01*
X228725638Y-348283318D01*
X228799862Y-348240465D01*
X228860465Y-348179862D01*
X228903318Y-348105638D01*
X228925500Y-348022853D01*
X228925500Y-48709500D01*
X228945185Y-48642461D01*
X228997989Y-48596706D01*
X229049500Y-48585500D01*
X230690500Y-48585500D01*
X230757539Y-48605185D01*
X230803294Y-48657989D01*
X230814500Y-48709500D01*
X230814500Y-348022852D01*
X230836682Y-348105637D01*
X230836685Y-348105644D01*
X230879530Y-348179855D01*
X230879534Y-348179860D01*
X230879535Y-348179862D01*
X230940138Y-348240465D01*
X230940140Y-348240466D01*
X230940144Y-348240469D01*
X231014355Y-348283314D01*
X231014362Y-348283318D01*
X231097147Y-348305500D01*
X231097149Y-348305500D01*
X231182851Y-348305500D01*
X231182853Y-348305500D01*
X231265638Y-348283318D01*
X231339862Y-348240465D01*
X231400465Y-348179862D01*
X231443318Y-348105638D01*
X231465500Y-348022853D01*
X231465500Y-48709500D01*
X231485185Y-48642461D01*
X231537989Y-48596706D01*
X231589500Y-48585500D01*
X233230500Y-48585500D01*
X233297539Y-48605185D01*
X233343294Y-48657989D01*
X233354500Y-48709500D01*
X233354500Y-348022852D01*
X233376682Y-348105637D01*
X233376685Y-348105644D01*
X233419530Y-348179855D01*
X233419534Y-348179860D01*
X233419535Y-348179862D01*
X233480138Y-348240465D01*
X233480140Y-348240466D01*
X233480144Y-348240469D01*
X233554355Y-348283314D01*
X233554362Y-348283318D01*
X233637147Y-348305500D01*
X233637149Y-348305500D01*
X233722851Y-348305500D01*
X233722853Y-348305500D01*
X233805638Y-348283318D01*
X233879862Y-348240465D01*
X233940465Y-348179862D01*
X233983318Y-348105638D01*
X234005500Y-348022853D01*
X234005500Y-48709500D01*
X234025185Y-48642461D01*
X234077989Y-48596706D01*
X234129500Y-48585500D01*
X235770500Y-48585500D01*
X235837539Y-48605185D01*
X235883294Y-48657989D01*
X235894500Y-48709500D01*
X235894500Y-348022852D01*
X235916682Y-348105637D01*
X235916685Y-348105644D01*
X235959530Y-348179855D01*
X235959534Y-348179860D01*
X235959535Y-348179862D01*
X236020138Y-348240465D01*
X236020140Y-348240466D01*
X236020144Y-348240469D01*
X236094355Y-348283314D01*
X236094362Y-348283318D01*
X236177147Y-348305500D01*
X236177149Y-348305500D01*
X236262851Y-348305500D01*
X236262853Y-348305500D01*
X236345638Y-348283318D01*
X236419862Y-348240465D01*
X236480465Y-348179862D01*
X236523318Y-348105638D01*
X236545500Y-348022853D01*
X236545500Y-48709500D01*
X236565185Y-48642461D01*
X236617989Y-48596706D01*
X236669500Y-48585500D01*
X238310500Y-48585500D01*
X238377539Y-48605185D01*
X238423294Y-48657989D01*
X238434500Y-48709500D01*
X238434500Y-348022852D01*
X238456682Y-348105637D01*
X238456685Y-348105644D01*
X238499530Y-348179855D01*
X238499534Y-348179860D01*
X238499535Y-348179862D01*
X238560138Y-348240465D01*
X238560140Y-348240466D01*
X238560144Y-348240469D01*
X238634355Y-348283314D01*
X238634362Y-348283318D01*
X238717147Y-348305500D01*
X238717149Y-348305500D01*
X238802851Y-348305500D01*
X238802853Y-348305500D01*
X238885638Y-348283318D01*
X238959862Y-348240465D01*
X239020465Y-348179862D01*
X239063318Y-348105638D01*
X239085500Y-348022853D01*
X239085500Y-48709500D01*
X239105185Y-48642461D01*
X239157989Y-48596706D01*
X239209500Y-48585500D01*
X240850500Y-48585500D01*
X240917539Y-48605185D01*
X240963294Y-48657989D01*
X240974500Y-48709500D01*
X240974500Y-348022852D01*
X240996682Y-348105637D01*
X240996685Y-348105644D01*
X241039530Y-348179855D01*
X241039534Y-348179860D01*
X241039535Y-348179862D01*
X241100138Y-348240465D01*
X241100140Y-348240466D01*
X241100144Y-348240469D01*
X241174355Y-348283314D01*
X241174362Y-348283318D01*
X241257147Y-348305500D01*
X241257149Y-348305500D01*
X241342851Y-348305500D01*
X241342853Y-348305500D01*
X241425638Y-348283318D01*
X241499862Y-348240465D01*
X241560465Y-348179862D01*
X241603318Y-348105638D01*
X241625500Y-348022853D01*
X241625500Y-48709500D01*
X241645185Y-48642461D01*
X241697989Y-48596706D01*
X241749500Y-48585500D01*
X243390500Y-48585500D01*
X243457539Y-48605185D01*
X243503294Y-48657989D01*
X243514500Y-48709500D01*
X243514500Y-348022852D01*
X243536682Y-348105637D01*
X243536685Y-348105644D01*
X243579530Y-348179855D01*
X243579534Y-348179860D01*
X243579535Y-348179862D01*
X243640138Y-348240465D01*
X243640140Y-348240466D01*
X243640144Y-348240469D01*
X243714355Y-348283314D01*
X243714362Y-348283318D01*
X243797147Y-348305500D01*
X243797149Y-348305500D01*
X243882851Y-348305500D01*
X243882853Y-348305500D01*
X243965638Y-348283318D01*
X244039862Y-348240465D01*
X244100465Y-348179862D01*
X244143318Y-348105638D01*
X244165500Y-348022853D01*
X244165500Y-48709500D01*
X244185185Y-48642461D01*
X244237989Y-48596706D01*
X244289500Y-48585500D01*
X245930500Y-48585500D01*
X245997539Y-48605185D01*
X246043294Y-48657989D01*
X246054500Y-48709500D01*
X246054500Y-348022852D01*
X246076682Y-348105637D01*
X246076685Y-348105644D01*
X246119530Y-348179855D01*
X246119534Y-348179860D01*
X246119535Y-348179862D01*
X246180138Y-348240465D01*
X246180140Y-348240466D01*
X246180144Y-348240469D01*
X246254355Y-348283314D01*
X246254362Y-348283318D01*
X246337147Y-348305500D01*
X246337149Y-348305500D01*
X246422851Y-348305500D01*
X246422853Y-348305500D01*
X246505638Y-348283318D01*
X246579862Y-348240465D01*
X246640465Y-348179862D01*
X246683318Y-348105638D01*
X246705500Y-348022853D01*
X246705500Y-48709500D01*
X246725185Y-48642461D01*
X246777989Y-48596706D01*
X246829500Y-48585500D01*
X248470500Y-48585500D01*
X248537539Y-48605185D01*
X248583294Y-48657989D01*
X248594500Y-48709500D01*
X248594500Y-348022852D01*
X248616682Y-348105637D01*
X248616685Y-348105644D01*
X248659530Y-348179855D01*
X248659534Y-348179860D01*
X248659535Y-348179862D01*
X248720138Y-348240465D01*
X248720140Y-348240466D01*
X248720144Y-348240469D01*
X248794355Y-348283314D01*
X248794362Y-348283318D01*
X248877147Y-348305500D01*
X248877149Y-348305500D01*
X248962851Y-348305500D01*
X248962853Y-348305500D01*
X249045638Y-348283318D01*
X249119862Y-348240465D01*
X249180465Y-348179862D01*
X249223318Y-348105638D01*
X249245500Y-348022853D01*
X249245500Y-48709500D01*
X249265185Y-48642461D01*
X249317989Y-48596706D01*
X249369500Y-48585500D01*
X251010500Y-48585500D01*
X251077539Y-48605185D01*
X251123294Y-48657989D01*
X251134500Y-48709500D01*
X251134500Y-348022852D01*
X251156682Y-348105637D01*
X251156685Y-348105644D01*
X251199530Y-348179855D01*
X251199534Y-348179860D01*
X251199535Y-348179862D01*
X251260138Y-348240465D01*
X251260140Y-348240466D01*
X251260144Y-348240469D01*
X251334355Y-348283314D01*
X251334362Y-348283318D01*
X251417147Y-348305500D01*
X251417149Y-348305500D01*
X251502851Y-348305500D01*
X251502853Y-348305500D01*
X251585638Y-348283318D01*
X251659862Y-348240465D01*
X251720465Y-348179862D01*
X251763318Y-348105638D01*
X251785500Y-348022853D01*
X251785500Y-48709500D01*
X251805185Y-48642461D01*
X251857989Y-48596706D01*
X251909500Y-48585500D01*
X253550500Y-48585500D01*
X253617539Y-48605185D01*
X253663294Y-48657989D01*
X253674500Y-48709500D01*
X253674500Y-348022852D01*
X253696682Y-348105637D01*
X253696685Y-348105644D01*
X253739530Y-348179855D01*
X253739534Y-348179860D01*
X253739535Y-348179862D01*
X253800138Y-348240465D01*
X253800140Y-348240466D01*
X253800144Y-348240469D01*
X253874355Y-348283314D01*
X253874362Y-348283318D01*
X253957147Y-348305500D01*
X253957149Y-348305500D01*
X254042851Y-348305500D01*
X254042853Y-348305500D01*
X254125638Y-348283318D01*
X254199862Y-348240465D01*
X254260465Y-348179862D01*
X254303318Y-348105638D01*
X254325500Y-348022853D01*
X254325500Y-48709500D01*
X254345185Y-48642461D01*
X254397989Y-48596706D01*
X254449500Y-48585500D01*
X256090500Y-48585500D01*
X256157539Y-48605185D01*
X256203294Y-48657989D01*
X256214500Y-48709500D01*
X256214500Y-348022852D01*
X256236682Y-348105637D01*
X256236685Y-348105644D01*
X256279530Y-348179855D01*
X256279534Y-348179860D01*
X256279535Y-348179862D01*
X256340138Y-348240465D01*
X256340140Y-348240466D01*
X256340144Y-348240469D01*
X256414355Y-348283314D01*
X256414362Y-348283318D01*
X256497147Y-348305500D01*
X256497149Y-348305500D01*
X256582851Y-348305500D01*
X256582853Y-348305500D01*
X256665638Y-348283318D01*
X256739862Y-348240465D01*
X256800465Y-348179862D01*
X256843318Y-348105638D01*
X256865500Y-348022853D01*
X256865500Y-48709500D01*
X256885185Y-48642461D01*
X256937989Y-48596706D01*
X256989500Y-48585500D01*
X258630500Y-48585500D01*
X258697539Y-48605185D01*
X258743294Y-48657989D01*
X258754500Y-48709500D01*
X258754500Y-348022852D01*
X258776682Y-348105637D01*
X258776685Y-348105644D01*
X258819530Y-348179855D01*
X258819534Y-348179860D01*
X258819535Y-348179862D01*
X258880138Y-348240465D01*
X258880140Y-348240466D01*
X258880144Y-348240469D01*
X258954355Y-348283314D01*
X258954362Y-348283318D01*
X259037147Y-348305500D01*
X259037149Y-348305500D01*
X259122851Y-348305500D01*
X259122853Y-348305500D01*
X259205638Y-348283318D01*
X259279862Y-348240465D01*
X259340465Y-348179862D01*
X259383318Y-348105638D01*
X259405500Y-348022853D01*
X259405500Y-48709500D01*
X259425185Y-48642461D01*
X259477989Y-48596706D01*
X259529500Y-48585500D01*
X261170500Y-48585500D01*
X261237539Y-48605185D01*
X261283294Y-48657989D01*
X261294500Y-48709500D01*
X261294500Y-348022852D01*
X261316682Y-348105637D01*
X261316685Y-348105644D01*
X261359530Y-348179855D01*
X261359534Y-348179860D01*
X261359535Y-348179862D01*
X261420138Y-348240465D01*
X261420140Y-348240466D01*
X261420144Y-348240469D01*
X261494355Y-348283314D01*
X261494362Y-348283318D01*
X261577147Y-348305500D01*
X261577149Y-348305500D01*
X261662851Y-348305500D01*
X261662853Y-348305500D01*
X261745638Y-348283318D01*
X261819862Y-348240465D01*
X261880465Y-348179862D01*
X261923318Y-348105638D01*
X261945500Y-348022853D01*
X261945500Y-48709500D01*
X261965185Y-48642461D01*
X262017989Y-48596706D01*
X262069500Y-48585500D01*
X263710500Y-48585500D01*
X263777539Y-48605185D01*
X263823294Y-48657989D01*
X263834500Y-48709500D01*
X263834500Y-348022852D01*
X263856682Y-348105637D01*
X263856685Y-348105644D01*
X263899530Y-348179855D01*
X263899534Y-348179860D01*
X263899535Y-348179862D01*
X263960138Y-348240465D01*
X263960140Y-348240466D01*
X263960144Y-348240469D01*
X264034355Y-348283314D01*
X264034362Y-348283318D01*
X264117147Y-348305500D01*
X264117149Y-348305500D01*
X264202851Y-348305500D01*
X264202853Y-348305500D01*
X264285638Y-348283318D01*
X264359862Y-348240465D01*
X264420465Y-348179862D01*
X264463318Y-348105638D01*
X264485500Y-348022853D01*
X264485500Y-48709500D01*
X264505185Y-48642461D01*
X264557989Y-48596706D01*
X264609500Y-48585500D01*
X266250500Y-48585500D01*
X266317539Y-48605185D01*
X266363294Y-48657989D01*
X266374500Y-48709500D01*
X266374500Y-348022852D01*
X266396682Y-348105637D01*
X266396685Y-348105644D01*
X266439530Y-348179855D01*
X266439534Y-348179860D01*
X266439535Y-348179862D01*
X266500138Y-348240465D01*
X266500140Y-348240466D01*
X266500144Y-348240469D01*
X266574355Y-348283314D01*
X266574362Y-348283318D01*
X266657147Y-348305500D01*
X266657149Y-348305500D01*
X266742851Y-348305500D01*
X266742853Y-348305500D01*
X266825638Y-348283318D01*
X266899862Y-348240465D01*
X266960465Y-348179862D01*
X267003318Y-348105638D01*
X267025500Y-348022853D01*
X267025500Y-48709500D01*
X267045185Y-48642461D01*
X267097989Y-48596706D01*
X267149500Y-48585500D01*
X268790500Y-48585500D01*
X268857539Y-48605185D01*
X268903294Y-48657989D01*
X268914500Y-48709500D01*
X268914500Y-348022852D01*
X268936682Y-348105637D01*
X268936685Y-348105644D01*
X268979530Y-348179855D01*
X268979534Y-348179860D01*
X268979535Y-348179862D01*
X269040138Y-348240465D01*
X269040140Y-348240466D01*
X269040144Y-348240469D01*
X269114355Y-348283314D01*
X269114362Y-348283318D01*
X269197147Y-348305500D01*
X269197149Y-348305500D01*
X269282851Y-348305500D01*
X269282853Y-348305500D01*
X269365638Y-348283318D01*
X269439862Y-348240465D01*
X269500465Y-348179862D01*
X269543318Y-348105638D01*
X269565500Y-348022853D01*
X269565500Y-48709500D01*
X269585185Y-48642461D01*
X269637989Y-48596706D01*
X269689500Y-48585500D01*
X271330500Y-48585500D01*
X271397539Y-48605185D01*
X271443294Y-48657989D01*
X271454500Y-48709500D01*
X271454500Y-348022852D01*
X271476682Y-348105637D01*
X271476685Y-348105644D01*
X271519530Y-348179855D01*
X271519534Y-348179860D01*
X271519535Y-348179862D01*
X271580138Y-348240465D01*
X271580140Y-348240466D01*
X271580144Y-348240469D01*
X271654355Y-348283314D01*
X271654362Y-348283318D01*
X271737147Y-348305500D01*
X271737149Y-348305500D01*
X271822851Y-348305500D01*
X271822853Y-348305500D01*
X271905638Y-348283318D01*
X271979862Y-348240465D01*
X272040465Y-348179862D01*
X272083318Y-348105638D01*
X272105500Y-348022853D01*
X272105500Y-48709500D01*
X272125185Y-48642461D01*
X272177989Y-48596706D01*
X272229500Y-48585500D01*
X273870500Y-48585500D01*
X273937539Y-48605185D01*
X273983294Y-48657989D01*
X273994500Y-48709500D01*
X273994500Y-348022852D01*
X274016682Y-348105637D01*
X274016685Y-348105644D01*
X274059530Y-348179855D01*
X274059534Y-348179860D01*
X274059535Y-348179862D01*
X274120138Y-348240465D01*
X274120140Y-348240466D01*
X274120144Y-348240469D01*
X274194355Y-348283314D01*
X274194362Y-348283318D01*
X274277147Y-348305500D01*
X274277149Y-348305500D01*
X274362851Y-348305500D01*
X274362853Y-348305500D01*
X274445638Y-348283318D01*
X274519862Y-348240465D01*
X274580465Y-348179862D01*
X274623318Y-348105638D01*
X274645500Y-348022853D01*
X274645500Y-342857147D01*
X274645500Y-48709500D01*
X274665185Y-48642461D01*
X274717989Y-48596706D01*
X274769500Y-48585500D01*
X276410500Y-48585500D01*
X276477539Y-48605185D01*
X276523294Y-48657989D01*
X276534500Y-48709500D01*
X276534500Y-348022852D01*
X276556682Y-348105637D01*
X276556685Y-348105644D01*
X276599530Y-348179855D01*
X276599534Y-348179860D01*
X276599535Y-348179862D01*
X276660138Y-348240465D01*
X276660140Y-348240466D01*
X276660144Y-348240469D01*
X276734355Y-348283314D01*
X276734362Y-348283318D01*
X276817147Y-348305500D01*
X276817149Y-348305500D01*
X276902851Y-348305500D01*
X276902853Y-348305500D01*
X276985638Y-348283318D01*
X277059862Y-348240465D01*
X277120465Y-348179862D01*
X277163318Y-348105638D01*
X277185500Y-348022853D01*
X277185500Y-342857147D01*
X277185500Y-48709500D01*
X277205185Y-48642461D01*
X277257989Y-48596706D01*
X277309500Y-48585500D01*
X278950500Y-48585500D01*
X279017539Y-48605185D01*
X279063294Y-48657989D01*
X279074500Y-48709500D01*
X279074500Y-348022852D01*
X279096682Y-348105637D01*
X279096685Y-348105644D01*
X279139530Y-348179855D01*
X279139534Y-348179860D01*
X279139535Y-348179862D01*
X279200138Y-348240465D01*
X279200140Y-348240466D01*
X279200144Y-348240469D01*
X279274355Y-348283314D01*
X279274362Y-348283318D01*
X279357147Y-348305500D01*
X279357149Y-348305500D01*
X279442851Y-348305500D01*
X279442853Y-348305500D01*
X279525638Y-348283318D01*
X279599862Y-348240465D01*
X279660465Y-348179862D01*
X279703318Y-348105638D01*
X279725500Y-348022853D01*
X279725500Y-342857147D01*
X279725500Y-48709500D01*
X279745185Y-48642461D01*
X279797989Y-48596706D01*
X279849500Y-48585500D01*
X281490500Y-48585500D01*
X281557539Y-48605185D01*
X281603294Y-48657989D01*
X281614500Y-48709500D01*
X281614500Y-348022852D01*
X281636682Y-348105637D01*
X281636685Y-348105644D01*
X281679530Y-348179855D01*
X281679534Y-348179860D01*
X281679535Y-348179862D01*
X281740138Y-348240465D01*
X281740140Y-348240466D01*
X281740144Y-348240469D01*
X281814355Y-348283314D01*
X281814362Y-348283318D01*
X281897147Y-348305500D01*
X281897149Y-348305500D01*
X281982851Y-348305500D01*
X281982853Y-348305500D01*
X282065638Y-348283318D01*
X282139862Y-348240465D01*
X282200465Y-348179862D01*
X282243318Y-348105638D01*
X282265500Y-348022853D01*
X282265500Y-48709500D01*
X282285185Y-48642461D01*
X282337989Y-48596706D01*
X282389500Y-48585500D01*
X284030500Y-48585500D01*
X284097539Y-48605185D01*
X284143294Y-48657989D01*
X284154500Y-48709500D01*
X284154500Y-348022852D01*
X284176682Y-348105637D01*
X284176685Y-348105644D01*
X284219530Y-348179855D01*
X284219534Y-348179860D01*
X284219535Y-348179862D01*
X284280138Y-348240465D01*
X284280140Y-348240466D01*
X284280144Y-348240469D01*
X284354355Y-348283314D01*
X284354362Y-348283318D01*
X284437147Y-348305500D01*
X284437149Y-348305500D01*
X284522851Y-348305500D01*
X284522853Y-348305500D01*
X284605638Y-348283318D01*
X284679862Y-348240465D01*
X284740465Y-348179862D01*
X284783318Y-348105638D01*
X284805500Y-348022853D01*
X284805500Y-48709500D01*
X284825185Y-48642461D01*
X284877989Y-48596706D01*
X284929500Y-48585500D01*
X286570500Y-48585500D01*
X286637539Y-48605185D01*
X286683294Y-48657989D01*
X286694500Y-48709500D01*
X286694500Y-348022852D01*
X286716682Y-348105637D01*
X286716685Y-348105644D01*
X286759530Y-348179855D01*
X286759534Y-348179860D01*
X286759535Y-348179862D01*
X286820138Y-348240465D01*
X286820140Y-348240466D01*
X286820144Y-348240469D01*
X286894355Y-348283314D01*
X286894362Y-348283318D01*
X286977147Y-348305500D01*
X286977149Y-348305500D01*
X287062851Y-348305500D01*
X287062853Y-348305500D01*
X287145638Y-348283318D01*
X287219862Y-348240465D01*
X287280465Y-348179862D01*
X287323318Y-348105638D01*
X287345500Y-348022853D01*
X287345500Y-48709500D01*
X287365185Y-48642461D01*
X287417989Y-48596706D01*
X287469500Y-48585500D01*
X289110500Y-48585500D01*
X289177539Y-48605185D01*
X289223294Y-48657989D01*
X289234500Y-48709500D01*
X289234500Y-348022852D01*
X289256682Y-348105637D01*
X289256685Y-348105644D01*
X289299530Y-348179855D01*
X289299534Y-348179860D01*
X289299535Y-348179862D01*
X289360138Y-348240465D01*
X289360140Y-348240466D01*
X289360144Y-348240469D01*
X289434355Y-348283314D01*
X289434362Y-348283318D01*
X289517147Y-348305500D01*
X289517149Y-348305500D01*
X289602851Y-348305500D01*
X289602853Y-348305500D01*
X289685638Y-348283318D01*
X289759862Y-348240465D01*
X289820465Y-348179862D01*
X289863318Y-348105638D01*
X289885500Y-348022853D01*
X289885500Y-48709500D01*
X289905185Y-48642461D01*
X289957989Y-48596706D01*
X290009500Y-48585500D01*
X291650500Y-48585500D01*
X291717539Y-48605185D01*
X291763294Y-48657989D01*
X291774500Y-48709500D01*
X291774500Y-348022852D01*
X291796682Y-348105637D01*
X291796685Y-348105644D01*
X291839530Y-348179855D01*
X291839534Y-348179860D01*
X291839535Y-348179862D01*
X291900138Y-348240465D01*
X291900140Y-348240466D01*
X291900144Y-348240469D01*
X291974355Y-348283314D01*
X291974362Y-348283318D01*
X292057147Y-348305500D01*
X292057149Y-348305500D01*
X292142851Y-348305500D01*
X292142853Y-348305500D01*
X292225638Y-348283318D01*
X292299862Y-348240465D01*
X292360465Y-348179862D01*
X292403318Y-348105638D01*
X292425500Y-348022853D01*
X292425500Y-48709500D01*
X292445185Y-48642461D01*
X292497989Y-48596706D01*
X292549500Y-48585500D01*
X294190500Y-48585500D01*
X294257539Y-48605185D01*
X294303294Y-48657989D01*
X294314500Y-48709500D01*
X294314500Y-348022852D01*
X294336682Y-348105637D01*
X294336685Y-348105644D01*
X294379530Y-348179855D01*
X294379534Y-348179860D01*
X294379535Y-348179862D01*
X294440138Y-348240465D01*
X294440140Y-348240466D01*
X294440144Y-348240469D01*
X294514355Y-348283314D01*
X294514362Y-348283318D01*
X294597147Y-348305500D01*
X294597149Y-348305500D01*
X294682851Y-348305500D01*
X294682853Y-348305500D01*
X294765638Y-348283318D01*
X294839862Y-348240465D01*
X294900465Y-348179862D01*
X294943318Y-348105638D01*
X294965500Y-348022853D01*
X294965500Y-48709500D01*
X294985185Y-48642461D01*
X295037989Y-48596706D01*
X295089500Y-48585500D01*
X296730500Y-48585500D01*
X296797539Y-48605185D01*
X296843294Y-48657989D01*
X296854500Y-48709500D01*
X296854500Y-348022852D01*
X296876682Y-348105637D01*
X296876685Y-348105644D01*
X296919530Y-348179855D01*
X296919534Y-348179860D01*
X296919535Y-348179862D01*
X296980138Y-348240465D01*
X296980140Y-348240466D01*
X296980144Y-348240469D01*
X297054355Y-348283314D01*
X297054362Y-348283318D01*
X297137147Y-348305500D01*
X297137149Y-348305500D01*
X297222851Y-348305500D01*
X297222853Y-348305500D01*
X297305638Y-348283318D01*
X297379862Y-348240465D01*
X297440465Y-348179862D01*
X297483318Y-348105638D01*
X297505500Y-348022853D01*
X297505500Y-48709500D01*
X297525185Y-48642461D01*
X297577989Y-48596706D01*
X297629500Y-48585500D01*
X299270500Y-48585500D01*
X299337539Y-48605185D01*
X299383294Y-48657989D01*
X299394500Y-48709500D01*
X299394500Y-348022852D01*
X299416682Y-348105637D01*
X299416685Y-348105644D01*
X299459530Y-348179855D01*
X299459534Y-348179860D01*
X299459535Y-348179862D01*
X299520138Y-348240465D01*
X299520140Y-348240466D01*
X299520144Y-348240469D01*
X299594355Y-348283314D01*
X299594362Y-348283318D01*
X299677147Y-348305500D01*
X299677149Y-348305500D01*
X299762851Y-348305500D01*
X299762853Y-348305500D01*
X299845638Y-348283318D01*
X299919862Y-348240465D01*
X299980465Y-348179862D01*
X300023318Y-348105638D01*
X300045500Y-348022853D01*
X300045500Y-48709500D01*
X300065185Y-48642461D01*
X300117989Y-48596706D01*
X300169500Y-48585500D01*
X301810500Y-48585500D01*
X301877539Y-48605185D01*
X301923294Y-48657989D01*
X301934500Y-48709500D01*
X301934500Y-348022852D01*
X301956682Y-348105637D01*
X301956685Y-348105644D01*
X301999530Y-348179855D01*
X301999534Y-348179860D01*
X301999535Y-348179862D01*
X302060138Y-348240465D01*
X302060140Y-348240466D01*
X302060144Y-348240469D01*
X302134355Y-348283314D01*
X302134362Y-348283318D01*
X302217147Y-348305500D01*
X302217149Y-348305500D01*
X302302851Y-348305500D01*
X302302853Y-348305500D01*
X302385638Y-348283318D01*
X302459862Y-348240465D01*
X302520465Y-348179862D01*
X302563318Y-348105638D01*
X302585500Y-348022853D01*
X302585500Y-48709500D01*
X302605185Y-48642461D01*
X302657989Y-48596706D01*
X302709500Y-48585500D01*
X304350500Y-48585500D01*
X304417539Y-48605185D01*
X304463294Y-48657989D01*
X304474500Y-48709500D01*
X304474500Y-348022852D01*
X304496682Y-348105637D01*
X304496685Y-348105644D01*
X304539530Y-348179855D01*
X304539534Y-348179860D01*
X304539535Y-348179862D01*
X304600138Y-348240465D01*
X304600140Y-348240466D01*
X304600144Y-348240469D01*
X304674355Y-348283314D01*
X304674362Y-348283318D01*
X304757147Y-348305500D01*
X304757149Y-348305500D01*
X304842851Y-348305500D01*
X304842853Y-348305500D01*
X304925638Y-348283318D01*
X304999862Y-348240465D01*
X305060465Y-348179862D01*
X305103318Y-348105638D01*
X305125500Y-348022853D01*
X305125500Y-48709500D01*
X305145185Y-48642461D01*
X305197989Y-48596706D01*
X305249500Y-48585500D01*
X306890500Y-48585500D01*
X306957539Y-48605185D01*
X307003294Y-48657989D01*
X307014500Y-48709500D01*
X307014500Y-348022852D01*
X307036682Y-348105637D01*
X307036685Y-348105644D01*
X307079530Y-348179855D01*
X307079534Y-348179860D01*
X307079535Y-348179862D01*
X307140138Y-348240465D01*
X307140140Y-348240466D01*
X307140144Y-348240469D01*
X307214355Y-348283314D01*
X307214362Y-348283318D01*
X307297147Y-348305500D01*
X307297149Y-348305500D01*
X307382851Y-348305500D01*
X307382853Y-348305500D01*
X307465638Y-348283318D01*
X307539862Y-348240465D01*
X307600465Y-348179862D01*
X307643318Y-348105638D01*
X307665500Y-348022853D01*
X307665500Y-48709500D01*
X307685185Y-48642461D01*
X307737989Y-48596706D01*
X307789500Y-48585500D01*
X309430500Y-48585500D01*
X309497539Y-48605185D01*
X309543294Y-48657989D01*
X309554500Y-48709500D01*
X309554500Y-348022852D01*
X309576682Y-348105637D01*
X309576685Y-348105644D01*
X309619530Y-348179855D01*
X309619534Y-348179860D01*
X309619535Y-348179862D01*
X309680138Y-348240465D01*
X309680140Y-348240466D01*
X309680144Y-348240469D01*
X309754355Y-348283314D01*
X309754362Y-348283318D01*
X309837147Y-348305500D01*
X309837149Y-348305500D01*
X309922851Y-348305500D01*
X309922853Y-348305500D01*
X310005638Y-348283318D01*
X310079862Y-348240465D01*
X310140465Y-348179862D01*
X310183318Y-348105638D01*
X310205500Y-348022853D01*
X310205500Y-48709500D01*
X310225185Y-48642461D01*
X310277989Y-48596706D01*
X310329500Y-48585500D01*
X311970500Y-48585500D01*
X312037539Y-48605185D01*
X312083294Y-48657989D01*
X312094500Y-48709500D01*
X312094500Y-348022852D01*
X312116682Y-348105637D01*
X312116685Y-348105644D01*
X312159530Y-348179855D01*
X312159534Y-348179860D01*
X312159535Y-348179862D01*
X312220138Y-348240465D01*
X312220140Y-348240466D01*
X312220144Y-348240469D01*
X312294355Y-348283314D01*
X312294362Y-348283318D01*
X312377147Y-348305500D01*
X312377149Y-348305500D01*
X312462851Y-348305500D01*
X312462853Y-348305500D01*
X312545638Y-348283318D01*
X312619862Y-348240465D01*
X312680465Y-348179862D01*
X312723318Y-348105638D01*
X312745500Y-348022853D01*
X312745500Y-48709500D01*
X312765185Y-48642461D01*
X312817989Y-48596706D01*
X312869500Y-48585500D01*
X314510500Y-48585500D01*
X314577539Y-48605185D01*
X314623294Y-48657989D01*
X314634500Y-48709500D01*
X314634500Y-348022852D01*
X314656682Y-348105637D01*
X314656685Y-348105644D01*
X314699530Y-348179855D01*
X314699534Y-348179860D01*
X314699535Y-348179862D01*
X314760138Y-348240465D01*
X314760140Y-348240466D01*
X314760144Y-348240469D01*
X314834355Y-348283314D01*
X314834362Y-348283318D01*
X314917147Y-348305500D01*
X314917149Y-348305500D01*
X315002851Y-348305500D01*
X315002853Y-348305500D01*
X315085638Y-348283318D01*
X315159862Y-348240465D01*
X315220465Y-348179862D01*
X315263318Y-348105638D01*
X315285500Y-348022853D01*
X315285500Y-48709500D01*
X315305185Y-48642461D01*
X315357989Y-48596706D01*
X315409500Y-48585500D01*
X317050500Y-48585500D01*
X317117539Y-48605185D01*
X317163294Y-48657989D01*
X317174500Y-48709500D01*
X317174500Y-348022852D01*
X317196682Y-348105637D01*
X317196685Y-348105644D01*
X317239530Y-348179855D01*
X317239534Y-348179860D01*
X317239535Y-348179862D01*
X317300138Y-348240465D01*
X317300140Y-348240466D01*
X317300144Y-348240469D01*
X317374355Y-348283314D01*
X317374362Y-348283318D01*
X317457147Y-348305500D01*
X317457149Y-348305500D01*
X317542851Y-348305500D01*
X317542853Y-348305500D01*
X317625638Y-348283318D01*
X317699862Y-348240465D01*
X317760465Y-348179862D01*
X317803318Y-348105638D01*
X317825500Y-348022853D01*
X317825500Y-48709500D01*
X317845185Y-48642461D01*
X317897989Y-48596706D01*
X317949500Y-48585500D01*
X319590500Y-48585500D01*
X319657539Y-48605185D01*
X319703294Y-48657989D01*
X319714500Y-48709500D01*
X319714500Y-348022852D01*
X319736682Y-348105637D01*
X319736685Y-348105644D01*
X319779530Y-348179855D01*
X319779534Y-348179860D01*
X319779535Y-348179862D01*
X319840138Y-348240465D01*
X319840140Y-348240466D01*
X319840144Y-348240469D01*
X319914355Y-348283314D01*
X319914362Y-348283318D01*
X319997147Y-348305500D01*
X319997149Y-348305500D01*
X320082851Y-348305500D01*
X320082853Y-348305500D01*
X320165638Y-348283318D01*
X320239862Y-348240465D01*
X320300465Y-348179862D01*
X320343318Y-348105638D01*
X320365500Y-348022853D01*
X320365500Y-48709500D01*
X320385185Y-48642461D01*
X320437989Y-48596706D01*
X320489500Y-48585500D01*
X322130500Y-48585500D01*
X322197539Y-48605185D01*
X322243294Y-48657989D01*
X322254500Y-48709500D01*
X322254500Y-348022852D01*
X322276682Y-348105637D01*
X322276685Y-348105644D01*
X322319530Y-348179855D01*
X322319534Y-348179860D01*
X322319535Y-348179862D01*
X322380138Y-348240465D01*
X322380140Y-348240466D01*
X322380144Y-348240469D01*
X322454355Y-348283314D01*
X322454362Y-348283318D01*
X322537147Y-348305500D01*
X322537149Y-348305500D01*
X322622851Y-348305500D01*
X322622853Y-348305500D01*
X322705638Y-348283318D01*
X322779862Y-348240465D01*
X322840465Y-348179862D01*
X322883318Y-348105638D01*
X322905500Y-348022853D01*
X322905500Y-48709500D01*
X322925185Y-48642461D01*
X322977989Y-48596706D01*
X323029500Y-48585500D01*
X324670500Y-48585500D01*
X324737539Y-48605185D01*
X324783294Y-48657989D01*
X324794500Y-48709500D01*
X324794500Y-348022852D01*
X324816682Y-348105637D01*
X324816685Y-348105644D01*
X324859530Y-348179855D01*
X324859534Y-348179860D01*
X324859535Y-348179862D01*
X324920138Y-348240465D01*
X324920140Y-348240466D01*
X324920144Y-348240469D01*
X324994355Y-348283314D01*
X324994362Y-348283318D01*
X325077147Y-348305500D01*
X325077149Y-348305500D01*
X325162851Y-348305500D01*
X325162853Y-348305500D01*
X325245638Y-348283318D01*
X325319862Y-348240465D01*
X325380465Y-348179862D01*
X325423318Y-348105638D01*
X325445500Y-348022853D01*
X325445500Y-48709500D01*
X325465185Y-48642461D01*
X325517989Y-48596706D01*
X325569500Y-48585500D01*
X327210500Y-48585500D01*
X327277539Y-48605185D01*
X327323294Y-48657989D01*
X327334500Y-48709500D01*
X327334500Y-348022852D01*
X327356682Y-348105637D01*
X327356685Y-348105644D01*
X327399530Y-348179855D01*
X327399534Y-348179860D01*
X327399535Y-348179862D01*
X327460138Y-348240465D01*
X327460140Y-348240466D01*
X327460144Y-348240469D01*
X327534355Y-348283314D01*
X327534362Y-348283318D01*
X327617147Y-348305500D01*
X327617149Y-348305500D01*
X327702851Y-348305500D01*
X327702853Y-348305500D01*
X327785638Y-348283318D01*
X327859862Y-348240465D01*
X327920465Y-348179862D01*
X327963318Y-348105638D01*
X327985500Y-348022853D01*
X327985500Y-48709500D01*
X328005185Y-48642461D01*
X328057989Y-48596706D01*
X328109500Y-48585500D01*
X329750500Y-48585500D01*
X329817539Y-48605185D01*
X329863294Y-48657989D01*
X329874500Y-48709500D01*
X329874500Y-348022852D01*
X329896682Y-348105637D01*
X329896685Y-348105644D01*
X329939530Y-348179855D01*
X329939534Y-348179860D01*
X329939535Y-348179862D01*
X330000138Y-348240465D01*
X330000140Y-348240466D01*
X330000144Y-348240469D01*
X330074355Y-348283314D01*
X330074362Y-348283318D01*
X330157147Y-348305500D01*
X330157149Y-348305500D01*
X330242851Y-348305500D01*
X330242853Y-348305500D01*
X330325638Y-348283318D01*
X330399862Y-348240465D01*
X330460465Y-348179862D01*
X330503318Y-348105638D01*
X330525500Y-348022853D01*
X330525500Y-48709500D01*
X330545185Y-48642461D01*
X330597989Y-48596706D01*
X330649500Y-48585500D01*
X332290500Y-48585500D01*
X332357539Y-48605185D01*
X332403294Y-48657989D01*
X332414500Y-48709500D01*
X332414500Y-348022852D01*
X332436682Y-348105637D01*
X332436685Y-348105644D01*
X332479530Y-348179855D01*
X332479534Y-348179860D01*
X332479535Y-348179862D01*
X332540138Y-348240465D01*
X332540140Y-348240466D01*
X332540144Y-348240469D01*
X332614355Y-348283314D01*
X332614362Y-348283318D01*
X332697147Y-348305500D01*
X332697149Y-348305500D01*
X332782851Y-348305500D01*
X332782853Y-348305500D01*
X332865638Y-348283318D01*
X332939862Y-348240465D01*
X333000465Y-348179862D01*
X333043318Y-348105638D01*
X333065500Y-348022853D01*
X333065500Y-48709500D01*
X333085185Y-48642461D01*
X333137989Y-48596706D01*
X333189500Y-48585500D01*
X334830500Y-48585500D01*
X334897539Y-48605185D01*
X334943294Y-48657989D01*
X334954500Y-48709500D01*
X334954500Y-348022852D01*
X334976682Y-348105637D01*
X334976685Y-348105644D01*
X335019530Y-348179855D01*
X335019534Y-348179860D01*
X335019535Y-348179862D01*
X335080138Y-348240465D01*
X335080140Y-348240466D01*
X335080144Y-348240469D01*
X335154355Y-348283314D01*
X335154362Y-348283318D01*
X335237147Y-348305500D01*
X335237149Y-348305500D01*
X335322851Y-348305500D01*
X335322853Y-348305500D01*
X335405638Y-348283318D01*
X335479862Y-348240465D01*
X335540465Y-348179862D01*
X335583318Y-348105638D01*
X335605500Y-348022853D01*
X335605500Y-48709500D01*
X335625185Y-48642461D01*
X335677989Y-48596706D01*
X335729500Y-48585500D01*
X337370500Y-48585500D01*
X337437539Y-48605185D01*
X337483294Y-48657989D01*
X337494500Y-48709500D01*
X337494500Y-348022852D01*
X337516682Y-348105637D01*
X337516685Y-348105644D01*
X337559530Y-348179855D01*
X337559534Y-348179860D01*
X337559535Y-348179862D01*
X337620138Y-348240465D01*
X337620140Y-348240466D01*
X337620144Y-348240469D01*
X337694355Y-348283314D01*
X337694362Y-348283318D01*
X337777147Y-348305500D01*
X337777149Y-348305500D01*
X337862851Y-348305500D01*
X337862853Y-348305500D01*
X337945638Y-348283318D01*
X338019862Y-348240465D01*
X338080465Y-348179862D01*
X338123318Y-348105638D01*
X338145500Y-348022853D01*
X338145500Y-48709500D01*
X338165185Y-48642461D01*
X338217989Y-48596706D01*
X338269500Y-48585500D01*
X339910500Y-48585500D01*
X339977539Y-48605185D01*
X340023294Y-48657989D01*
X340034500Y-48709500D01*
X340034500Y-348022852D01*
X340056682Y-348105637D01*
X340056685Y-348105644D01*
X340099530Y-348179855D01*
X340099534Y-348179860D01*
X340099535Y-348179862D01*
X340160138Y-348240465D01*
X340160140Y-348240466D01*
X340160144Y-348240469D01*
X340234355Y-348283314D01*
X340234362Y-348283318D01*
X340317147Y-348305500D01*
X340317149Y-348305500D01*
X340402851Y-348305500D01*
X340402853Y-348305500D01*
X340485638Y-348283318D01*
X340559862Y-348240465D01*
X340620465Y-348179862D01*
X340663318Y-348105638D01*
X340685500Y-348022853D01*
X340685500Y-48709500D01*
X340705185Y-48642461D01*
X340757989Y-48596706D01*
X340809500Y-48585500D01*
X342450500Y-48585500D01*
X342517539Y-48605185D01*
X342563294Y-48657989D01*
X342574500Y-48709500D01*
X342574500Y-348022852D01*
X342596682Y-348105637D01*
X342596685Y-348105644D01*
X342639530Y-348179855D01*
X342639534Y-348179860D01*
X342639535Y-348179862D01*
X342700138Y-348240465D01*
X342700140Y-348240466D01*
X342700144Y-348240469D01*
X342774355Y-348283314D01*
X342774362Y-348283318D01*
X342857147Y-348305500D01*
X342857149Y-348305500D01*
X342942851Y-348305500D01*
X342942853Y-348305500D01*
X343025638Y-348283318D01*
X343099862Y-348240465D01*
X343160465Y-348179862D01*
X343203318Y-348105638D01*
X343225500Y-348022853D01*
X343225500Y-48709500D01*
X343245185Y-48642461D01*
X343297989Y-48596706D01*
X343349500Y-48585500D01*
X344990500Y-48585500D01*
X345057539Y-48605185D01*
X345103294Y-48657989D01*
X345114500Y-48709500D01*
X345114500Y-348022852D01*
X345136682Y-348105637D01*
X345136685Y-348105644D01*
X345179530Y-348179855D01*
X345179534Y-348179860D01*
X345179535Y-348179862D01*
X345240138Y-348240465D01*
X345240140Y-348240466D01*
X345240144Y-348240469D01*
X345314355Y-348283314D01*
X345314362Y-348283318D01*
X345397147Y-348305500D01*
X345397149Y-348305500D01*
X345482851Y-348305500D01*
X345482853Y-348305500D01*
X345565638Y-348283318D01*
X345639862Y-348240465D01*
X345700465Y-348179862D01*
X345743318Y-348105638D01*
X345765500Y-348022853D01*
X345765500Y-48709500D01*
X345785185Y-48642461D01*
X345837989Y-48596706D01*
X345889500Y-48585500D01*
X347530500Y-48585500D01*
X347597539Y-48605185D01*
X347643294Y-48657989D01*
X347654500Y-48709500D01*
X347654500Y-348022852D01*
X347676682Y-348105637D01*
X347676685Y-348105644D01*
X347719530Y-348179855D01*
X347719534Y-348179860D01*
X347719535Y-348179862D01*
X347780138Y-348240465D01*
X347780140Y-348240466D01*
X347780144Y-348240469D01*
X347854355Y-348283314D01*
X347854362Y-348283318D01*
X347937147Y-348305500D01*
X347937149Y-348305500D01*
X348022851Y-348305500D01*
X348022853Y-348305500D01*
X348105638Y-348283318D01*
X348179862Y-348240465D01*
X348240465Y-348179862D01*
X348283318Y-348105638D01*
X348305500Y-348022853D01*
X348305500Y-48709500D01*
X348325185Y-48642461D01*
X348377989Y-48596706D01*
X348429500Y-48585500D01*
X350070500Y-48585500D01*
X350137539Y-48605185D01*
X350183294Y-48657989D01*
X350194500Y-48709500D01*
X350194500Y-348022852D01*
X350216682Y-348105637D01*
X350216685Y-348105644D01*
X350259530Y-348179855D01*
X350259534Y-348179860D01*
X350259535Y-348179862D01*
X350320138Y-348240465D01*
X350320140Y-348240466D01*
X350320144Y-348240469D01*
X350394355Y-348283314D01*
X350394362Y-348283318D01*
X350477147Y-348305500D01*
X350477149Y-348305500D01*
X350562851Y-348305500D01*
X350562853Y-348305500D01*
X350645638Y-348283318D01*
X350719862Y-348240465D01*
X350780465Y-348179862D01*
X350823318Y-348105638D01*
X350845500Y-348022853D01*
X350845500Y-48709500D01*
X350865185Y-48642461D01*
X350917989Y-48596706D01*
X350969500Y-48585500D01*
X352610500Y-48585500D01*
X352677539Y-48605185D01*
X352723294Y-48657989D01*
X352734500Y-48709500D01*
X352734500Y-348022852D01*
X352756682Y-348105637D01*
X352756685Y-348105644D01*
X352799530Y-348179855D01*
X352799534Y-348179860D01*
X352799535Y-348179862D01*
X352860138Y-348240465D01*
X352860140Y-348240466D01*
X352860144Y-348240469D01*
X352934355Y-348283314D01*
X352934362Y-348283318D01*
X353017147Y-348305500D01*
X353017149Y-348305500D01*
X353102851Y-348305500D01*
X353102853Y-348305500D01*
X353185638Y-348283318D01*
X353259862Y-348240465D01*
X353320465Y-348179862D01*
X353363318Y-348105638D01*
X353385500Y-348022853D01*
X353385500Y-48709500D01*
X353405185Y-48642461D01*
X353457989Y-48596706D01*
X353509500Y-48585500D01*
X355150500Y-48585500D01*
X355217539Y-48605185D01*
X355263294Y-48657989D01*
X355274500Y-48709500D01*
X355274500Y-348022852D01*
X355296682Y-348105637D01*
X355296685Y-348105644D01*
X355339530Y-348179855D01*
X355339534Y-348179860D01*
X355339535Y-348179862D01*
X355400138Y-348240465D01*
X355400140Y-348240466D01*
X355400144Y-348240469D01*
X355474355Y-348283314D01*
X355474362Y-348283318D01*
X355557147Y-348305500D01*
X355557149Y-348305500D01*
X355642851Y-348305500D01*
X355642853Y-348305500D01*
X355725638Y-348283318D01*
X355799862Y-348240465D01*
X355860465Y-348179862D01*
X355903318Y-348105638D01*
X355925500Y-348022853D01*
X355925500Y-48709500D01*
X355945185Y-48642461D01*
X355997989Y-48596706D01*
X356049500Y-48585500D01*
X357690500Y-48585500D01*
X357757539Y-48605185D01*
X357803294Y-48657989D01*
X357814500Y-48709500D01*
X357814500Y-348022852D01*
X357836682Y-348105637D01*
X357836685Y-348105644D01*
X357879530Y-348179855D01*
X357879534Y-348179860D01*
X357879535Y-348179862D01*
X357940138Y-348240465D01*
X357940140Y-348240466D01*
X357940144Y-348240469D01*
X358014355Y-348283314D01*
X358014362Y-348283318D01*
X358097147Y-348305500D01*
X358097149Y-348305500D01*
X358182851Y-348305500D01*
X358182853Y-348305500D01*
X358265638Y-348283318D01*
X358339862Y-348240465D01*
X358400465Y-348179862D01*
X358443318Y-348105638D01*
X358465500Y-348022853D01*
X358465500Y-48709500D01*
X358485185Y-48642461D01*
X358537989Y-48596706D01*
X358589500Y-48585500D01*
X360230500Y-48585500D01*
X360297539Y-48605185D01*
X360343294Y-48657989D01*
X360354500Y-48709500D01*
X360354500Y-348022852D01*
X360376682Y-348105637D01*
X360376685Y-348105644D01*
X360419530Y-348179855D01*
X360419534Y-348179860D01*
X360419535Y-348179862D01*
X360480138Y-348240465D01*
X360480140Y-348240466D01*
X360480144Y-348240469D01*
X360554355Y-348283314D01*
X360554362Y-348283318D01*
X360637147Y-348305500D01*
X360637149Y-348305500D01*
X360722851Y-348305500D01*
X360722853Y-348305500D01*
X360805638Y-348283318D01*
X360879862Y-348240465D01*
X360940465Y-348179862D01*
X360983318Y-348105638D01*
X361005500Y-348022853D01*
X361005500Y-48709500D01*
X361025185Y-48642461D01*
X361077989Y-48596706D01*
X361129500Y-48585500D01*
X362770500Y-48585500D01*
X362837539Y-48605185D01*
X362883294Y-48657989D01*
X362894500Y-48709500D01*
X362894500Y-348022852D01*
X362916682Y-348105637D01*
X362916685Y-348105644D01*
X362959530Y-348179855D01*
X362959534Y-348179860D01*
X362959535Y-348179862D01*
X363020138Y-348240465D01*
X363020140Y-348240466D01*
X363020144Y-348240469D01*
X363094355Y-348283314D01*
X363094362Y-348283318D01*
X363177147Y-348305500D01*
X363177149Y-348305500D01*
X363262851Y-348305500D01*
X363262853Y-348305500D01*
X363345638Y-348283318D01*
X363419862Y-348240465D01*
X363480465Y-348179862D01*
X363523318Y-348105638D01*
X363545500Y-348022853D01*
X363545500Y-48709500D01*
X363565185Y-48642461D01*
X363617989Y-48596706D01*
X363669500Y-48585500D01*
X365310500Y-48585500D01*
X365377539Y-48605185D01*
X365423294Y-48657989D01*
X365434500Y-48709500D01*
X365434500Y-348022852D01*
X365456682Y-348105637D01*
X365456685Y-348105644D01*
X365499530Y-348179855D01*
X365499534Y-348179860D01*
X365499535Y-348179862D01*
X365560138Y-348240465D01*
X365560140Y-348240466D01*
X365560144Y-348240469D01*
X365634355Y-348283314D01*
X365634362Y-348283318D01*
X365717147Y-348305500D01*
X365717149Y-348305500D01*
X365802851Y-348305500D01*
X365802853Y-348305500D01*
X365885638Y-348283318D01*
X365959862Y-348240465D01*
X366020465Y-348179862D01*
X366063318Y-348105638D01*
X366085500Y-348022853D01*
X366085500Y-48709500D01*
X366105185Y-48642461D01*
X366157989Y-48596706D01*
X366209500Y-48585500D01*
X367850500Y-48585500D01*
X367917539Y-48605185D01*
X367963294Y-48657989D01*
X367974500Y-48709500D01*
X367974500Y-348022852D01*
X367996682Y-348105637D01*
X367996685Y-348105644D01*
X368039530Y-348179855D01*
X368039534Y-348179860D01*
X368039535Y-348179862D01*
X368100138Y-348240465D01*
X368100140Y-348240466D01*
X368100144Y-348240469D01*
X368174355Y-348283314D01*
X368174362Y-348283318D01*
X368257147Y-348305500D01*
X368257149Y-348305500D01*
X368342851Y-348305500D01*
X368342853Y-348305500D01*
X368425638Y-348283318D01*
X368499862Y-348240465D01*
X368560465Y-348179862D01*
X368603318Y-348105638D01*
X368625500Y-348022853D01*
X368625500Y-48709500D01*
X368645185Y-48642461D01*
X368697989Y-48596706D01*
X368749500Y-48585500D01*
X370390500Y-48585500D01*
X370457539Y-48605185D01*
X370503294Y-48657989D01*
X370514500Y-48709500D01*
X370514500Y-348022852D01*
X370536682Y-348105637D01*
X370536685Y-348105644D01*
X370579530Y-348179855D01*
X370579534Y-348179860D01*
X370579535Y-348179862D01*
X370640138Y-348240465D01*
X370640140Y-348240466D01*
X370640144Y-348240469D01*
X370714355Y-348283314D01*
X370714362Y-348283318D01*
X370797147Y-348305500D01*
X370797149Y-348305500D01*
X370882851Y-348305500D01*
X370882853Y-348305500D01*
X370965638Y-348283318D01*
X371039862Y-348240465D01*
X371100465Y-348179862D01*
X371143318Y-348105638D01*
X371165500Y-348022853D01*
X371165500Y-48709500D01*
X371185185Y-48642461D01*
X371237989Y-48596706D01*
X371289500Y-48585500D01*
X372930500Y-48585500D01*
X372997539Y-48605185D01*
X373043294Y-48657989D01*
X373054500Y-48709500D01*
X373054500Y-348022852D01*
X373076682Y-348105637D01*
X373076685Y-348105644D01*
X373119530Y-348179855D01*
X373119534Y-348179860D01*
X373119535Y-348179862D01*
X373180138Y-348240465D01*
X373180140Y-348240466D01*
X373180144Y-348240469D01*
X373254355Y-348283314D01*
X373254362Y-348283318D01*
X373337147Y-348305500D01*
X373337149Y-348305500D01*
X373422851Y-348305500D01*
X373422853Y-348305500D01*
X373505638Y-348283318D01*
X373579862Y-348240465D01*
X373640465Y-348179862D01*
X373683318Y-348105638D01*
X373705500Y-348022853D01*
X373705500Y-48709500D01*
X373725185Y-48642461D01*
X373777989Y-48596706D01*
X373829500Y-48585500D01*
X375470500Y-48585500D01*
X375537539Y-48605185D01*
X375583294Y-48657989D01*
X375594500Y-48709500D01*
X375594500Y-348022852D01*
X375616682Y-348105637D01*
X375616685Y-348105644D01*
X375659530Y-348179855D01*
X375659534Y-348179860D01*
X375659535Y-348179862D01*
X375720138Y-348240465D01*
X375720140Y-348240466D01*
X375720144Y-348240469D01*
X375794355Y-348283314D01*
X375794362Y-348283318D01*
X375877147Y-348305500D01*
X375877149Y-348305500D01*
X375962851Y-348305500D01*
X375962853Y-348305500D01*
X376045638Y-348283318D01*
X376119862Y-348240465D01*
X376180465Y-348179862D01*
X376223318Y-348105638D01*
X376245500Y-348022853D01*
X376245500Y-48709500D01*
X376265185Y-48642461D01*
X376317989Y-48596706D01*
X376369500Y-48585500D01*
X378010500Y-48585500D01*
X378077539Y-48605185D01*
X378123294Y-48657989D01*
X378134500Y-48709500D01*
X378134500Y-348022852D01*
X378156682Y-348105637D01*
X378156685Y-348105644D01*
X378199530Y-348179855D01*
X378199534Y-348179860D01*
X378199535Y-348179862D01*
X378260138Y-348240465D01*
X378260140Y-348240466D01*
X378260144Y-348240469D01*
X378334355Y-348283314D01*
X378334362Y-348283318D01*
X378417147Y-348305500D01*
X378417149Y-348305500D01*
X378502851Y-348305500D01*
X378502853Y-348305500D01*
X378585638Y-348283318D01*
X378659862Y-348240465D01*
X378720465Y-348179862D01*
X378763318Y-348105638D01*
X378785500Y-348022853D01*
X378785500Y-48709500D01*
X378805185Y-48642461D01*
X378857989Y-48596706D01*
X378909500Y-48585500D01*
X380550500Y-48585500D01*
X380617539Y-48605185D01*
X380663294Y-48657989D01*
X380674500Y-48709500D01*
X380674500Y-348022852D01*
X380696682Y-348105637D01*
X380696685Y-348105644D01*
X380739530Y-348179855D01*
X380739534Y-348179860D01*
X380739535Y-348179862D01*
X380800138Y-348240465D01*
X380800140Y-348240466D01*
X380800144Y-348240469D01*
X380874355Y-348283314D01*
X380874362Y-348283318D01*
X380957147Y-348305500D01*
X380957149Y-348305500D01*
X381042851Y-348305500D01*
X381042853Y-348305500D01*
X381125638Y-348283318D01*
X381199862Y-348240465D01*
X381260465Y-348179862D01*
X381303318Y-348105638D01*
X381325500Y-348022853D01*
X381325500Y-48709500D01*
X381345185Y-48642461D01*
X381397989Y-48596706D01*
X381449500Y-48585500D01*
X383090500Y-48585500D01*
X383157539Y-48605185D01*
X383203294Y-48657989D01*
X383214500Y-48709500D01*
X383214500Y-348022852D01*
X383236682Y-348105637D01*
X383236685Y-348105644D01*
X383279530Y-348179855D01*
X383279534Y-348179860D01*
X383279535Y-348179862D01*
X383340138Y-348240465D01*
X383340140Y-348240466D01*
X383340144Y-348240469D01*
X383414355Y-348283314D01*
X383414362Y-348283318D01*
X383497147Y-348305500D01*
X383497149Y-348305500D01*
X383582851Y-348305500D01*
X383582853Y-348305500D01*
X383665638Y-348283318D01*
X383739862Y-348240465D01*
X383800465Y-348179862D01*
X383843318Y-348105638D01*
X383865500Y-348022853D01*
X383865500Y-65020000D01*
X387399653Y-65020000D01*
X387409393Y-65068974D01*
X387409396Y-65068983D01*
X387486658Y-65255513D01*
X387486665Y-65255526D01*
X387598835Y-65423399D01*
X387598838Y-65423403D01*
X387728744Y-65553309D01*
X387762229Y-65614632D01*
X387757245Y-65684324D01*
X387754367Y-65690702D01*
X387754408Y-65690719D01*
X387697387Y-65828379D01*
X387697385Y-65828385D01*
X387669506Y-65968542D01*
X387669506Y-65968545D01*
X387669506Y-66111455D01*
X387669506Y-66111457D01*
X387669505Y-66111457D01*
X387697385Y-66251614D01*
X387697387Y-66251620D01*
X387752075Y-66383650D01*
X387752080Y-66383659D01*
X387831473Y-66502478D01*
X387831476Y-66502482D01*
X387932523Y-66603529D01*
X387932527Y-66603532D01*
X388051346Y-66682925D01*
X388051352Y-66682928D01*
X388051353Y-66682929D01*
X388183386Y-66737619D01*
X388183390Y-66737619D01*
X388183391Y-66737620D01*
X388323548Y-66765500D01*
X388323551Y-66765500D01*
X388916463Y-66765500D01*
X389010757Y-66746742D01*
X389056626Y-66737619D01*
X389188659Y-66682929D01*
X389307485Y-66603532D01*
X389408538Y-66502479D01*
X389487935Y-66383653D01*
X389542625Y-66251620D01*
X389570506Y-66111455D01*
X389570506Y-65968545D01*
X389570506Y-65968542D01*
X389542626Y-65828385D01*
X389542625Y-65828384D01*
X389542625Y-65828380D01*
X389487935Y-65696347D01*
X389485604Y-65690719D01*
X389487604Y-65689890D01*
X389475346Y-65631060D01*
X389500336Y-65565812D01*
X389511267Y-65553308D01*
X389641177Y-65423398D01*
X389753346Y-65255526D01*
X389753353Y-65255513D01*
X389830615Y-65068983D01*
X389830618Y-65068974D01*
X389840359Y-65020000D01*
X388900336Y-65020000D01*
X388920081Y-65000255D01*
X388969450Y-64914745D01*
X388995006Y-64819370D01*
X388995006Y-64720630D01*
X388969450Y-64625255D01*
X388920081Y-64539745D01*
X388900336Y-64520000D01*
X389840359Y-64520000D01*
X389830618Y-64471025D01*
X389830615Y-64471016D01*
X389753353Y-64284486D01*
X389753346Y-64284473D01*
X389641176Y-64116600D01*
X389641173Y-64116596D01*
X389606825Y-64082248D01*
X389573340Y-64020925D01*
X389570506Y-63994567D01*
X389570506Y-62955249D01*
X389570505Y-62955247D01*
X389558874Y-62896770D01*
X389558873Y-62896769D01*
X389514558Y-62830447D01*
X389448236Y-62786132D01*
X389448235Y-62786131D01*
X389389758Y-62774500D01*
X389389754Y-62774500D01*
X387850258Y-62774500D01*
X387850253Y-62774500D01*
X387791776Y-62786131D01*
X387791775Y-62786132D01*
X387725453Y-62830447D01*
X387681138Y-62896769D01*
X387681137Y-62896770D01*
X387669506Y-62955247D01*
X387669506Y-63994566D01*
X387649821Y-64061605D01*
X387633190Y-64082245D01*
X387598833Y-64116603D01*
X387486665Y-64284473D01*
X387486658Y-64284486D01*
X387409396Y-64471016D01*
X387409393Y-64471025D01*
X387399653Y-64520000D01*
X388339676Y-64520000D01*
X388319931Y-64539745D01*
X388270562Y-64625255D01*
X388245006Y-64720630D01*
X388245006Y-64819370D01*
X388270562Y-64914745D01*
X388319931Y-65000255D01*
X388339676Y-65020000D01*
X387399653Y-65020000D01*
X383865500Y-65020000D01*
X383865500Y-48709500D01*
X383885185Y-48642461D01*
X383937989Y-48596706D01*
X383989500Y-48585500D01*
X385630500Y-48585500D01*
X385697539Y-48605185D01*
X385743294Y-48657989D01*
X385754500Y-48709500D01*
X385754500Y-61002853D01*
X385771899Y-61067785D01*
X385776682Y-61085637D01*
X385776685Y-61085644D01*
X385819530Y-61159855D01*
X385819534Y-61159860D01*
X385819535Y-61159862D01*
X385880138Y-61220465D01*
X385880140Y-61220466D01*
X385880144Y-61220469D01*
X385954355Y-61263314D01*
X385954362Y-61263318D01*
X386037147Y-61285500D01*
X386037149Y-61285500D01*
X386122851Y-61285500D01*
X386122853Y-61285500D01*
X386205638Y-61263318D01*
X386279862Y-61220465D01*
X386340465Y-61159862D01*
X386383318Y-61085638D01*
X386405500Y-61002853D01*
X386405500Y-48709500D01*
X386425185Y-48642461D01*
X386477989Y-48596706D01*
X386529500Y-48585500D01*
X388170500Y-48585500D01*
X388237539Y-48605185D01*
X388283294Y-48657989D01*
X388294500Y-48709500D01*
X388294500Y-61002853D01*
X388311899Y-61067785D01*
X388316682Y-61085637D01*
X388316685Y-61085644D01*
X388359530Y-61159855D01*
X388359534Y-61159860D01*
X388359535Y-61159862D01*
X388420138Y-61220465D01*
X388420140Y-61220466D01*
X388420144Y-61220469D01*
X388494355Y-61263314D01*
X388494362Y-61263318D01*
X388577147Y-61285500D01*
X388577149Y-61285500D01*
X388662851Y-61285500D01*
X388662853Y-61285500D01*
X388745638Y-61263318D01*
X388819862Y-61220465D01*
X388880465Y-61159862D01*
X388923318Y-61085638D01*
X388945500Y-61002853D01*
X388945500Y-48709500D01*
X388965185Y-48642461D01*
X389017989Y-48596706D01*
X389069500Y-48585500D01*
X390710500Y-48585500D01*
X390777539Y-48605185D01*
X390823294Y-48657989D01*
X390834500Y-48709500D01*
X390834500Y-61002852D01*
X390856682Y-61085640D01*
X390878108Y-61122750D01*
X390899535Y-61159862D01*
X390899536Y-61159863D01*
X390899537Y-61159864D01*
X393338181Y-63598508D01*
X393371666Y-63659831D01*
X393374500Y-63686189D01*
X393374500Y-65853811D01*
X393354815Y-65920850D01*
X393338181Y-65941492D01*
X391061492Y-68218181D01*
X391000169Y-68251666D01*
X390973811Y-68254500D01*
X386037147Y-68254500D01*
X385954362Y-68276682D01*
X385954355Y-68276685D01*
X385880144Y-68319530D01*
X385880136Y-68319536D01*
X385819536Y-68380136D01*
X385819530Y-68380144D01*
X385776685Y-68454355D01*
X385776682Y-68454362D01*
X385754500Y-68537147D01*
X385754500Y-348022852D01*
X385776682Y-348105637D01*
X385776685Y-348105644D01*
X385819530Y-348179855D01*
X385819534Y-348179860D01*
X385819535Y-348179862D01*
X385880138Y-348240465D01*
X385880140Y-348240466D01*
X385880144Y-348240469D01*
X385954355Y-348283314D01*
X385954362Y-348283318D01*
X386037147Y-348305500D01*
X386037149Y-348305500D01*
X386122851Y-348305500D01*
X386122853Y-348305500D01*
X386205638Y-348283318D01*
X386279862Y-348240465D01*
X386340465Y-348179862D01*
X386383318Y-348105638D01*
X386405500Y-348022853D01*
X386405500Y-69029500D01*
X386425185Y-68962461D01*
X386477989Y-68916706D01*
X386529500Y-68905500D01*
X388170500Y-68905500D01*
X388237539Y-68925185D01*
X388283294Y-68977989D01*
X388294500Y-69029500D01*
X388294500Y-348022852D01*
X388316682Y-348105637D01*
X388316685Y-348105644D01*
X388359530Y-348179855D01*
X388359534Y-348179860D01*
X388359535Y-348179862D01*
X388420138Y-348240465D01*
X388420140Y-348240466D01*
X388420144Y-348240469D01*
X388494355Y-348283314D01*
X388494362Y-348283318D01*
X388577147Y-348305500D01*
X388577149Y-348305500D01*
X388662851Y-348305500D01*
X388662853Y-348305500D01*
X388745638Y-348283318D01*
X388819862Y-348240465D01*
X388880465Y-348179862D01*
X388923318Y-348105638D01*
X388945500Y-348022853D01*
X388945500Y-69029500D01*
X388965185Y-68962461D01*
X389017989Y-68916706D01*
X389069500Y-68905500D01*
X390710500Y-68905500D01*
X390777539Y-68925185D01*
X390823294Y-68977989D01*
X390834500Y-69029500D01*
X390834500Y-348022852D01*
X390856682Y-348105637D01*
X390856685Y-348105644D01*
X390899530Y-348179855D01*
X390899534Y-348179860D01*
X390899535Y-348179862D01*
X390960138Y-348240465D01*
X390960140Y-348240466D01*
X390960144Y-348240469D01*
X391034355Y-348283314D01*
X391034362Y-348283318D01*
X391117147Y-348305500D01*
X391117149Y-348305500D01*
X391202851Y-348305500D01*
X391202853Y-348305500D01*
X391285638Y-348283318D01*
X391359862Y-348240465D01*
X391420465Y-348179862D01*
X391463318Y-348105638D01*
X391485500Y-348022853D01*
X391485500Y-68766189D01*
X391505185Y-68699150D01*
X391521819Y-68678508D01*
X391620327Y-68580000D01*
X392522040Y-68580000D01*
X392541826Y-68768256D01*
X392541827Y-68768259D01*
X392600318Y-68948277D01*
X392600321Y-68948284D01*
X392694967Y-69112216D01*
X392821629Y-69252888D01*
X392974765Y-69364148D01*
X392974770Y-69364151D01*
X393147692Y-69441142D01*
X393147697Y-69441144D01*
X393332854Y-69480500D01*
X393332855Y-69480500D01*
X393522144Y-69480500D01*
X393522146Y-69480500D01*
X393707303Y-69441144D01*
X393880230Y-69364151D01*
X394033371Y-69252888D01*
X394160033Y-69112216D01*
X394254679Y-68948284D01*
X394259569Y-68933235D01*
X394299006Y-68875560D01*
X394363365Y-68848361D01*
X394432211Y-68860275D01*
X394483687Y-68907520D01*
X394495431Y-68933235D01*
X394500318Y-68948278D01*
X394500321Y-68948284D01*
X394594967Y-69112216D01*
X394721629Y-69252888D01*
X394874765Y-69364148D01*
X394874770Y-69364151D01*
X395047692Y-69441142D01*
X395047697Y-69441144D01*
X395232854Y-69480500D01*
X395232855Y-69480500D01*
X395422144Y-69480500D01*
X395422146Y-69480500D01*
X395607303Y-69441144D01*
X395780230Y-69364151D01*
X395933371Y-69252888D01*
X396060033Y-69112216D01*
X396154679Y-68948284D01*
X396213174Y-68768256D01*
X396232960Y-68580000D01*
X396213174Y-68391744D01*
X396154679Y-68211716D01*
X396060033Y-68047784D01*
X395933371Y-67907112D01*
X395933370Y-67907111D01*
X395780234Y-67795851D01*
X395780229Y-67795848D01*
X395607307Y-67718857D01*
X395607302Y-67718855D01*
X395461501Y-67687865D01*
X395422146Y-67679500D01*
X395232854Y-67679500D01*
X395200397Y-67686398D01*
X395047697Y-67718855D01*
X395047692Y-67718857D01*
X394874770Y-67795848D01*
X394874765Y-67795851D01*
X394721629Y-67907111D01*
X394594966Y-68047785D01*
X394500321Y-68211715D01*
X394500320Y-68211717D01*
X394495431Y-68226766D01*
X394455992Y-68284440D01*
X394391633Y-68311638D01*
X394322787Y-68299723D01*
X394271312Y-68252478D01*
X394259569Y-68226766D01*
X394254679Y-68211716D01*
X394160033Y-68047784D01*
X394033371Y-67907112D01*
X394033370Y-67907111D01*
X393880234Y-67795851D01*
X393880229Y-67795848D01*
X393707307Y-67718857D01*
X393707302Y-67718855D01*
X393561501Y-67687865D01*
X393522146Y-67679500D01*
X393332854Y-67679500D01*
X393300397Y-67686398D01*
X393147697Y-67718855D01*
X393147692Y-67718857D01*
X392974770Y-67795848D01*
X392974765Y-67795851D01*
X392821629Y-67907111D01*
X392694966Y-68047785D01*
X392600321Y-68211715D01*
X392600318Y-68211722D01*
X392545597Y-68380138D01*
X392541826Y-68391744D01*
X392522040Y-68580000D01*
X391620327Y-68580000D01*
X392520827Y-67679500D01*
X393960465Y-66239862D01*
X394003317Y-66165639D01*
X394003318Y-66165638D01*
X394025500Y-66082853D01*
X394025500Y-63457147D01*
X394003318Y-63374362D01*
X393967166Y-63311744D01*
X393960469Y-63300144D01*
X393960463Y-63300136D01*
X391521819Y-60861492D01*
X391488334Y-60800169D01*
X391485500Y-60773811D01*
X391485500Y-48709500D01*
X391505185Y-48642461D01*
X391557989Y-48596706D01*
X391609500Y-48585500D01*
X393250500Y-48585500D01*
X393317539Y-48605185D01*
X393363294Y-48657989D01*
X393374500Y-48709500D01*
X393374500Y-61002852D01*
X393396682Y-61085640D01*
X393418108Y-61122750D01*
X393439535Y-61159862D01*
X393439536Y-61159863D01*
X393439537Y-61159864D01*
X395358738Y-63079065D01*
X395392223Y-63140388D01*
X395388988Y-63205063D01*
X395358097Y-63300138D01*
X395354326Y-63311744D01*
X395334540Y-63500000D01*
X395354326Y-63688256D01*
X395354327Y-63688259D01*
X395412818Y-63868277D01*
X395412821Y-63868284D01*
X395507467Y-64032216D01*
X395583447Y-64116600D01*
X395634129Y-64172888D01*
X395787265Y-64284148D01*
X395787270Y-64284151D01*
X395960192Y-64361142D01*
X395960197Y-64361144D01*
X396145354Y-64400500D01*
X396145355Y-64400500D01*
X396334644Y-64400500D01*
X396334646Y-64400500D01*
X396464720Y-64372852D01*
X396534386Y-64378168D01*
X396590120Y-64420305D01*
X396614225Y-64485885D01*
X396614500Y-64494142D01*
X396614500Y-70233811D01*
X396594815Y-70300850D01*
X396578181Y-70321492D01*
X396141492Y-70758181D01*
X396080169Y-70791666D01*
X396053811Y-70794500D01*
X393657147Y-70794500D01*
X393574362Y-70816682D01*
X393574355Y-70816685D01*
X393500144Y-70859530D01*
X393500136Y-70859536D01*
X393439536Y-70920136D01*
X393439530Y-70920144D01*
X393396685Y-70994355D01*
X393396682Y-70994362D01*
X393374500Y-71077147D01*
X393374500Y-348022852D01*
X393396682Y-348105637D01*
X393396685Y-348105644D01*
X393439530Y-348179855D01*
X393439534Y-348179860D01*
X393439535Y-348179862D01*
X393500138Y-348240465D01*
X393500140Y-348240466D01*
X393500144Y-348240469D01*
X393574355Y-348283314D01*
X393574362Y-348283318D01*
X393657147Y-348305500D01*
X393657149Y-348305500D01*
X393742851Y-348305500D01*
X393742853Y-348305500D01*
X393825638Y-348283318D01*
X393899862Y-348240465D01*
X393960465Y-348179862D01*
X394003318Y-348105638D01*
X394025500Y-348022853D01*
X394025500Y-71569500D01*
X394045185Y-71502461D01*
X394097989Y-71456706D01*
X394149500Y-71445500D01*
X395790500Y-71445500D01*
X395857539Y-71465185D01*
X395903294Y-71517989D01*
X395914500Y-71569500D01*
X395914500Y-348022852D01*
X395936682Y-348105637D01*
X395936685Y-348105644D01*
X395979530Y-348179855D01*
X395979534Y-348179860D01*
X395979535Y-348179862D01*
X396040138Y-348240465D01*
X396040140Y-348240466D01*
X396040144Y-348240469D01*
X396114355Y-348283314D01*
X396114362Y-348283318D01*
X396197147Y-348305500D01*
X396197149Y-348305500D01*
X396282851Y-348305500D01*
X396282853Y-348305500D01*
X396365638Y-348283318D01*
X396439862Y-348240465D01*
X396500465Y-348179862D01*
X396543318Y-348105638D01*
X396565500Y-348022853D01*
X396565500Y-71306189D01*
X396585185Y-71239150D01*
X396601819Y-71218508D01*
X396900191Y-70920136D01*
X397200465Y-70619862D01*
X397243317Y-70545639D01*
X397243318Y-70545638D01*
X397265500Y-70462853D01*
X397265500Y-64157147D01*
X397243318Y-64074362D01*
X397207025Y-64011500D01*
X397190552Y-63943599D01*
X397213405Y-63877573D01*
X397268326Y-63834382D01*
X397314412Y-63825500D01*
X398330500Y-63825500D01*
X398397539Y-63845185D01*
X398443294Y-63897989D01*
X398454500Y-63949500D01*
X398454500Y-348022852D01*
X398476682Y-348105637D01*
X398476685Y-348105644D01*
X398519530Y-348179855D01*
X398519534Y-348179860D01*
X398519535Y-348179862D01*
X398580138Y-348240465D01*
X398580140Y-348240466D01*
X398580144Y-348240469D01*
X398654355Y-348283314D01*
X398654362Y-348283318D01*
X398737147Y-348305500D01*
X398737149Y-348305500D01*
X398822851Y-348305500D01*
X398822853Y-348305500D01*
X398905638Y-348283318D01*
X398979862Y-348240465D01*
X399040465Y-348179862D01*
X399083318Y-348105638D01*
X399105500Y-348022853D01*
X399105500Y-71077147D01*
X399105500Y-63949500D01*
X399125185Y-63882461D01*
X399177989Y-63836706D01*
X399229500Y-63825500D01*
X400870500Y-63825500D01*
X400937539Y-63845185D01*
X400983294Y-63897989D01*
X400994500Y-63949500D01*
X400994500Y-348022852D01*
X401016682Y-348105637D01*
X401016685Y-348105644D01*
X401059530Y-348179855D01*
X401059534Y-348179860D01*
X401059535Y-348179862D01*
X401120138Y-348240465D01*
X401120140Y-348240466D01*
X401120144Y-348240469D01*
X401194355Y-348283314D01*
X401194362Y-348283318D01*
X401277147Y-348305500D01*
X401277149Y-348305500D01*
X401362851Y-348305500D01*
X401362853Y-348305500D01*
X401445638Y-348283318D01*
X401519862Y-348240465D01*
X401580465Y-348179862D01*
X401623318Y-348105638D01*
X401645500Y-348022853D01*
X401645500Y-71077147D01*
X401645500Y-63457147D01*
X401645500Y-58377147D01*
X401623318Y-58294362D01*
X401623314Y-58294355D01*
X401580469Y-58220144D01*
X401580463Y-58220136D01*
X401519863Y-58159536D01*
X401519855Y-58159530D01*
X401445644Y-58116685D01*
X401445640Y-58116683D01*
X401445638Y-58116682D01*
X401362853Y-58094500D01*
X401277147Y-58094500D01*
X401194362Y-58116682D01*
X401194355Y-58116685D01*
X401120144Y-58159530D01*
X401120136Y-58159536D01*
X401059536Y-58220136D01*
X401059530Y-58220144D01*
X401016685Y-58294355D01*
X401016682Y-58294362D01*
X400994500Y-58377147D01*
X400994500Y-63050500D01*
X400974815Y-63117539D01*
X400922011Y-63163294D01*
X400870500Y-63174500D01*
X399229500Y-63174500D01*
X399162461Y-63154815D01*
X399116706Y-63102011D01*
X399105500Y-63050500D01*
X399105500Y-58377149D01*
X399105500Y-58377147D01*
X399083318Y-58294362D01*
X399083314Y-58294355D01*
X399040469Y-58220144D01*
X399040463Y-58220136D01*
X398979863Y-58159536D01*
X398979855Y-58159530D01*
X398905644Y-58116685D01*
X398905640Y-58116683D01*
X398905638Y-58116682D01*
X398822853Y-58094500D01*
X398737147Y-58094500D01*
X398654362Y-58116682D01*
X398654355Y-58116685D01*
X398580144Y-58159530D01*
X398580136Y-58159536D01*
X398519536Y-58220136D01*
X398519530Y-58220144D01*
X398476685Y-58294355D01*
X398476682Y-58294362D01*
X398454500Y-58377147D01*
X398454500Y-63050500D01*
X398434815Y-63117539D01*
X398382011Y-63163294D01*
X398330500Y-63174500D01*
X397163472Y-63174500D01*
X397096433Y-63154815D01*
X397056085Y-63112500D01*
X396972534Y-62967785D01*
X396845870Y-62827111D01*
X396692734Y-62715851D01*
X396692729Y-62715848D01*
X396574658Y-62663279D01*
X396521421Y-62618029D01*
X396501100Y-62551180D01*
X396520146Y-62483956D01*
X396572512Y-62437701D01*
X396574658Y-62436721D01*
X396623801Y-62414840D01*
X396692730Y-62384151D01*
X396845871Y-62272888D01*
X396972533Y-62132216D01*
X397067179Y-61968284D01*
X397125674Y-61788256D01*
X397145460Y-61600000D01*
X397125674Y-61411744D01*
X397067179Y-61231716D01*
X396972533Y-61067784D01*
X396845871Y-60927112D01*
X396845870Y-60927111D01*
X396692734Y-60815851D01*
X396692729Y-60815848D01*
X396519807Y-60738857D01*
X396519802Y-60738855D01*
X396374001Y-60707865D01*
X396334646Y-60699500D01*
X396145354Y-60699500D01*
X396112897Y-60706398D01*
X395960197Y-60738855D01*
X395960192Y-60738857D01*
X395787270Y-60815848D01*
X395787265Y-60815851D01*
X395634129Y-60927111D01*
X395507466Y-61067785D01*
X395412821Y-61231715D01*
X395412818Y-61231722D01*
X395395345Y-61285500D01*
X395354326Y-61411744D01*
X395334540Y-61600000D01*
X395354327Y-61788261D01*
X395370753Y-61838816D01*
X395372748Y-61908657D01*
X395336667Y-61968490D01*
X395273966Y-61999317D01*
X395204551Y-61991352D01*
X395165141Y-61964814D01*
X394061819Y-60861492D01*
X394028334Y-60800169D01*
X394025500Y-60773811D01*
X394025500Y-56749752D01*
X395189500Y-56749752D01*
X395201131Y-56808229D01*
X395201132Y-56808230D01*
X395245447Y-56874552D01*
X395311769Y-56918867D01*
X395311770Y-56918868D01*
X395370247Y-56930499D01*
X395370250Y-56930500D01*
X395370252Y-56930500D01*
X397109750Y-56930500D01*
X397109751Y-56930499D01*
X397124568Y-56927552D01*
X397168229Y-56918868D01*
X397168229Y-56918867D01*
X397168231Y-56918867D01*
X397234552Y-56874552D01*
X397278867Y-56808231D01*
X397278867Y-56808229D01*
X397278868Y-56808229D01*
X397290499Y-56749752D01*
X397290500Y-56749750D01*
X397290500Y-55880000D01*
X397724417Y-55880000D01*
X397744699Y-56085932D01*
X397744700Y-56085934D01*
X397804768Y-56283954D01*
X397902315Y-56466450D01*
X397902317Y-56466452D01*
X398033589Y-56626410D01*
X398130209Y-56705702D01*
X398193550Y-56757685D01*
X398376046Y-56855232D01*
X398574066Y-56915300D01*
X398574065Y-56915300D01*
X398592529Y-56917118D01*
X398780000Y-56935583D01*
X398985934Y-56915300D01*
X399183954Y-56855232D01*
X399366450Y-56757685D01*
X399526410Y-56626410D01*
X399657685Y-56466450D01*
X399755232Y-56283954D01*
X399815300Y-56085934D01*
X399835583Y-55880000D01*
X400264417Y-55880000D01*
X400284699Y-56085932D01*
X400284700Y-56085934D01*
X400344768Y-56283954D01*
X400442315Y-56466450D01*
X400442317Y-56466452D01*
X400573589Y-56626410D01*
X400670209Y-56705702D01*
X400733550Y-56757685D01*
X400916046Y-56855232D01*
X401114066Y-56915300D01*
X401114065Y-56915300D01*
X401132529Y-56917118D01*
X401320000Y-56935583D01*
X401525934Y-56915300D01*
X401723954Y-56855232D01*
X401906450Y-56757685D01*
X402066410Y-56626410D01*
X402197685Y-56466450D01*
X402295232Y-56283954D01*
X402355300Y-56085934D01*
X402375583Y-55880000D01*
X402355300Y-55674066D01*
X402295232Y-55476046D01*
X402197685Y-55293550D01*
X402145702Y-55230209D01*
X402066410Y-55133589D01*
X401916121Y-55010252D01*
X401906450Y-55002315D01*
X401723954Y-54904768D01*
X401525934Y-54844700D01*
X401525932Y-54844699D01*
X401525934Y-54844699D01*
X401320000Y-54824417D01*
X401114067Y-54844699D01*
X400916043Y-54904769D01*
X400828114Y-54951769D01*
X400733550Y-55002315D01*
X400733548Y-55002316D01*
X400733547Y-55002317D01*
X400573589Y-55133589D01*
X400442317Y-55293547D01*
X400344769Y-55476043D01*
X400284699Y-55674067D01*
X400264417Y-55880000D01*
X399835583Y-55880000D01*
X399815300Y-55674066D01*
X399755232Y-55476046D01*
X399657685Y-55293550D01*
X399605702Y-55230209D01*
X399526410Y-55133589D01*
X399376121Y-55010252D01*
X399366450Y-55002315D01*
X399183954Y-54904768D01*
X398985934Y-54844700D01*
X398985932Y-54844699D01*
X398985934Y-54844699D01*
X398780000Y-54824417D01*
X398574067Y-54844699D01*
X398376043Y-54904769D01*
X398288114Y-54951769D01*
X398193550Y-55002315D01*
X398193548Y-55002316D01*
X398193547Y-55002317D01*
X398033589Y-55133589D01*
X397902317Y-55293547D01*
X397804769Y-55476043D01*
X397744699Y-55674067D01*
X397724417Y-55880000D01*
X397290500Y-55880000D01*
X397290500Y-55010249D01*
X397290499Y-55010247D01*
X397278868Y-54951770D01*
X397278867Y-54951769D01*
X397234552Y-54885447D01*
X397168230Y-54841132D01*
X397168229Y-54841131D01*
X397109752Y-54829500D01*
X397109748Y-54829500D01*
X395370252Y-54829500D01*
X395370247Y-54829500D01*
X395311770Y-54841131D01*
X395311769Y-54841132D01*
X395245447Y-54885447D01*
X395201132Y-54951769D01*
X395201131Y-54951770D01*
X395189500Y-55010247D01*
X395189500Y-56749752D01*
X394025500Y-56749752D01*
X394025500Y-48709500D01*
X394045185Y-48642461D01*
X394097989Y-48596706D01*
X394149500Y-48585500D01*
X395790500Y-48585500D01*
X395857539Y-48605185D01*
X395903294Y-48657989D01*
X395914500Y-48709500D01*
X395914500Y-53382852D01*
X395936682Y-53465637D01*
X395936685Y-53465644D01*
X395979530Y-53539855D01*
X395979534Y-53539860D01*
X395979535Y-53539862D01*
X396040138Y-53600465D01*
X396040140Y-53600466D01*
X396040144Y-53600469D01*
X396114355Y-53643314D01*
X396114362Y-53643318D01*
X396197147Y-53665500D01*
X396197149Y-53665500D01*
X396282851Y-53665500D01*
X396282853Y-53665500D01*
X396365638Y-53643318D01*
X396439862Y-53600465D01*
X396500465Y-53539862D01*
X396543318Y-53465638D01*
X396565500Y-53382853D01*
X396565500Y-48709500D01*
X396585185Y-48642461D01*
X396637989Y-48596706D01*
X396689500Y-48585500D01*
X398330500Y-48585500D01*
X398397539Y-48605185D01*
X398443294Y-48657989D01*
X398454500Y-48709500D01*
X398454500Y-53382852D01*
X398476682Y-53465637D01*
X398476685Y-53465644D01*
X398519530Y-53539855D01*
X398519534Y-53539860D01*
X398519535Y-53539862D01*
X398580138Y-53600465D01*
X398580140Y-53600466D01*
X398580144Y-53600469D01*
X398654355Y-53643314D01*
X398654362Y-53643318D01*
X398737147Y-53665500D01*
X398737149Y-53665500D01*
X398822851Y-53665500D01*
X398822853Y-53665500D01*
X398905638Y-53643318D01*
X398979862Y-53600465D01*
X399040465Y-53539862D01*
X399083318Y-53465638D01*
X399105500Y-53382853D01*
X399105500Y-48709500D01*
X399125185Y-48642461D01*
X399177989Y-48596706D01*
X399229500Y-48585500D01*
X400870500Y-48585500D01*
X400937539Y-48605185D01*
X400983294Y-48657989D01*
X400994500Y-48709500D01*
X400994500Y-53382852D01*
X401016682Y-53465637D01*
X401016685Y-53465644D01*
X401059530Y-53539855D01*
X401059534Y-53539860D01*
X401059535Y-53539862D01*
X401120138Y-53600465D01*
X401120140Y-53600466D01*
X401120144Y-53600469D01*
X401194355Y-53643314D01*
X401194362Y-53643318D01*
X401277147Y-53665500D01*
X401277149Y-53665500D01*
X401362851Y-53665500D01*
X401362853Y-53665500D01*
X401445638Y-53643318D01*
X401519862Y-53600465D01*
X401580465Y-53539862D01*
X401623318Y-53465638D01*
X401645500Y-53382853D01*
X401645500Y-48709500D01*
X401665185Y-48642461D01*
X401717989Y-48596706D01*
X401769500Y-48585500D01*
X403410500Y-48585500D01*
X403477539Y-48605185D01*
X403523294Y-48657989D01*
X403534500Y-48709500D01*
X403534500Y-348022852D01*
X403556682Y-348105637D01*
X403556685Y-348105644D01*
X403599530Y-348179855D01*
X403599534Y-348179860D01*
X403599535Y-348179862D01*
X403660138Y-348240465D01*
X403660140Y-348240466D01*
X403660144Y-348240469D01*
X403734355Y-348283314D01*
X403734362Y-348283318D01*
X403817147Y-348305500D01*
X403817149Y-348305500D01*
X403902851Y-348305500D01*
X403902853Y-348305500D01*
X403985638Y-348283318D01*
X404059862Y-348240465D01*
X404120465Y-348179862D01*
X404163318Y-348105638D01*
X404185500Y-348022853D01*
X404185500Y-48709500D01*
X404205185Y-48642461D01*
X404257989Y-48596706D01*
X404309500Y-48585500D01*
X405950500Y-48585500D01*
X406017539Y-48605185D01*
X406063294Y-48657989D01*
X406074500Y-48709500D01*
X406074500Y-348022852D01*
X406096682Y-348105637D01*
X406096685Y-348105644D01*
X406139530Y-348179855D01*
X406139534Y-348179860D01*
X406139535Y-348179862D01*
X406200138Y-348240465D01*
X406200140Y-348240466D01*
X406200144Y-348240469D01*
X406274355Y-348283314D01*
X406274362Y-348283318D01*
X406357147Y-348305500D01*
X406357149Y-348305500D01*
X406442851Y-348305500D01*
X406442853Y-348305500D01*
X406525638Y-348283318D01*
X406599862Y-348240465D01*
X406660465Y-348179862D01*
X406703318Y-348105638D01*
X406725500Y-348022853D01*
X406725500Y-48709500D01*
X406745185Y-48642461D01*
X406797989Y-48596706D01*
X406849500Y-48585500D01*
X408490500Y-48585500D01*
X408557539Y-48605185D01*
X408603294Y-48657989D01*
X408614500Y-48709500D01*
X408614500Y-348022852D01*
X408636682Y-348105637D01*
X408636685Y-348105644D01*
X408679530Y-348179855D01*
X408679534Y-348179860D01*
X408679535Y-348179862D01*
X408740138Y-348240465D01*
X408740140Y-348240466D01*
X408740144Y-348240469D01*
X408814355Y-348283314D01*
X408814362Y-348283318D01*
X408897147Y-348305500D01*
X408897149Y-348305500D01*
X408982851Y-348305500D01*
X408982853Y-348305500D01*
X409065638Y-348283318D01*
X409139862Y-348240465D01*
X409200465Y-348179862D01*
X409243318Y-348105638D01*
X409265500Y-348022853D01*
X409265500Y-48709500D01*
X409285185Y-48642461D01*
X409337989Y-48596706D01*
X409389500Y-48585500D01*
X411030500Y-48585500D01*
X411097539Y-48605185D01*
X411143294Y-48657989D01*
X411154500Y-48709500D01*
X411154500Y-348022852D01*
X411176682Y-348105637D01*
X411176685Y-348105644D01*
X411219530Y-348179855D01*
X411219534Y-348179860D01*
X411219535Y-348179862D01*
X411280138Y-348240465D01*
X411280140Y-348240466D01*
X411280144Y-348240469D01*
X411354355Y-348283314D01*
X411354362Y-348283318D01*
X411437147Y-348305500D01*
X411437149Y-348305500D01*
X411522851Y-348305500D01*
X411522853Y-348305500D01*
X411605638Y-348283318D01*
X411679862Y-348240465D01*
X411740465Y-348179862D01*
X411783318Y-348105638D01*
X411805500Y-348022853D01*
X411805500Y-342857147D01*
X411805500Y-340934500D01*
X411825185Y-340867461D01*
X411877989Y-340821706D01*
X411929500Y-340810500D01*
X413570500Y-340810500D01*
X413637539Y-340830185D01*
X413683294Y-340882989D01*
X413694500Y-340934500D01*
X413694500Y-348022852D01*
X413716682Y-348105637D01*
X413716685Y-348105644D01*
X413759530Y-348179855D01*
X413759534Y-348179860D01*
X413759535Y-348179862D01*
X413820138Y-348240465D01*
X413820140Y-348240466D01*
X413820144Y-348240469D01*
X413894355Y-348283314D01*
X413894362Y-348283318D01*
X413977147Y-348305500D01*
X413977149Y-348305500D01*
X414062851Y-348305500D01*
X414062853Y-348305500D01*
X414145638Y-348283318D01*
X414219862Y-348240465D01*
X414280465Y-348179862D01*
X414323318Y-348105638D01*
X414345500Y-348022853D01*
X414345500Y-340934500D01*
X414365185Y-340867461D01*
X414417989Y-340821706D01*
X414469500Y-340810500D01*
X416110500Y-340810500D01*
X416177539Y-340830185D01*
X416223294Y-340882989D01*
X416234500Y-340934500D01*
X416234500Y-348022852D01*
X416256682Y-348105637D01*
X416256685Y-348105644D01*
X416299530Y-348179855D01*
X416299534Y-348179860D01*
X416299535Y-348179862D01*
X416360138Y-348240465D01*
X416360140Y-348240466D01*
X416360144Y-348240469D01*
X416434355Y-348283314D01*
X416434362Y-348283318D01*
X416517147Y-348305500D01*
X416517149Y-348305500D01*
X416602851Y-348305500D01*
X416602853Y-348305500D01*
X416685638Y-348283318D01*
X416759862Y-348240465D01*
X416820465Y-348179862D01*
X416863318Y-348105638D01*
X416885500Y-348022853D01*
X416885500Y-340934500D01*
X416905185Y-340867461D01*
X416957989Y-340821706D01*
X417009500Y-340810500D01*
X418650500Y-340810500D01*
X418717539Y-340830185D01*
X418763294Y-340882989D01*
X418774500Y-340934500D01*
X418774500Y-348022852D01*
X418796682Y-348105637D01*
X418796685Y-348105644D01*
X418839530Y-348179855D01*
X418839534Y-348179860D01*
X418839535Y-348179862D01*
X418900138Y-348240465D01*
X418900140Y-348240466D01*
X418900144Y-348240469D01*
X418974355Y-348283314D01*
X418974362Y-348283318D01*
X419057147Y-348305500D01*
X419057149Y-348305500D01*
X419142851Y-348305500D01*
X419142853Y-348305500D01*
X419225638Y-348283318D01*
X419299862Y-348240465D01*
X419360465Y-348179862D01*
X419403318Y-348105638D01*
X419425500Y-348022853D01*
X419425500Y-340934500D01*
X419445185Y-340867461D01*
X419497989Y-340821706D01*
X419549500Y-340810500D01*
X421190500Y-340810500D01*
X421257539Y-340830185D01*
X421303294Y-340882989D01*
X421314500Y-340934500D01*
X421314500Y-348022852D01*
X421336682Y-348105637D01*
X421336685Y-348105644D01*
X421379530Y-348179855D01*
X421379534Y-348179860D01*
X421379535Y-348179862D01*
X421440138Y-348240465D01*
X421440140Y-348240466D01*
X421440144Y-348240469D01*
X421514355Y-348283314D01*
X421514362Y-348283318D01*
X421597147Y-348305500D01*
X421597149Y-348305500D01*
X421682851Y-348305500D01*
X421682853Y-348305500D01*
X421765638Y-348283318D01*
X421839862Y-348240465D01*
X421900465Y-348179862D01*
X421943318Y-348105638D01*
X421965500Y-348022853D01*
X421965500Y-340442147D01*
X421943318Y-340359362D01*
X421943314Y-340359355D01*
X421900469Y-340285144D01*
X421900463Y-340285136D01*
X421839863Y-340224536D01*
X421839855Y-340224530D01*
X421765644Y-340181685D01*
X421765639Y-340181682D01*
X421751928Y-340178008D01*
X421731904Y-340172643D01*
X421672246Y-340136279D01*
X421641717Y-340073432D01*
X421640000Y-340052869D01*
X421640000Y-330200000D01*
X411929500Y-330200000D01*
X411862461Y-330180315D01*
X411816706Y-330127511D01*
X411805500Y-330076000D01*
X411805500Y-48709500D01*
X411825185Y-48642461D01*
X411877989Y-48596706D01*
X411929500Y-48585500D01*
X423730500Y-48585500D01*
X423797539Y-48605185D01*
X423843294Y-48657989D01*
X423854500Y-48709500D01*
X423854500Y-51620500D01*
X423834815Y-51687539D01*
X423782011Y-51733294D01*
X423730500Y-51744500D01*
X422089500Y-51744500D01*
X422022461Y-51724815D01*
X421976706Y-51672011D01*
X421965500Y-51620500D01*
X421965500Y-49487149D01*
X421965500Y-49487147D01*
X421943318Y-49404362D01*
X421943314Y-49404355D01*
X421900469Y-49330144D01*
X421900463Y-49330136D01*
X421839863Y-49269536D01*
X421839855Y-49269530D01*
X421765644Y-49226685D01*
X421765640Y-49226683D01*
X421765638Y-49226682D01*
X421682853Y-49204500D01*
X421597147Y-49204500D01*
X421514362Y-49226682D01*
X421514355Y-49226685D01*
X421440144Y-49269530D01*
X421440136Y-49269536D01*
X421379536Y-49330136D01*
X421379530Y-49330144D01*
X421336685Y-49404355D01*
X421336682Y-49404362D01*
X421314500Y-49487147D01*
X421314500Y-51620500D01*
X421294815Y-51687539D01*
X421242011Y-51733294D01*
X421190500Y-51744500D01*
X419549500Y-51744500D01*
X419482461Y-51724815D01*
X419436706Y-51672011D01*
X419425500Y-51620500D01*
X419425500Y-49487149D01*
X419425500Y-49487147D01*
X419403318Y-49404362D01*
X419403314Y-49404355D01*
X419360469Y-49330144D01*
X419360463Y-49330136D01*
X419299863Y-49269536D01*
X419299855Y-49269530D01*
X419225644Y-49226685D01*
X419225640Y-49226683D01*
X419225638Y-49226682D01*
X419142853Y-49204500D01*
X419057147Y-49204500D01*
X418974362Y-49226682D01*
X418974355Y-49226685D01*
X418900144Y-49269530D01*
X418900136Y-49269536D01*
X418839536Y-49330136D01*
X418839530Y-49330144D01*
X418796685Y-49404355D01*
X418796682Y-49404362D01*
X418774500Y-49487147D01*
X418774500Y-51620500D01*
X418754815Y-51687539D01*
X418702011Y-51733294D01*
X418650500Y-51744500D01*
X417009500Y-51744500D01*
X416942461Y-51724815D01*
X416896706Y-51672011D01*
X416885500Y-51620500D01*
X416885500Y-49487149D01*
X416885500Y-49487147D01*
X416863318Y-49404362D01*
X416863314Y-49404355D01*
X416820469Y-49330144D01*
X416820463Y-49330136D01*
X416759863Y-49269536D01*
X416759855Y-49269530D01*
X416685644Y-49226685D01*
X416685640Y-49226683D01*
X416685638Y-49226682D01*
X416602853Y-49204500D01*
X416517147Y-49204500D01*
X416434362Y-49226682D01*
X416434355Y-49226685D01*
X416360144Y-49269530D01*
X416360136Y-49269536D01*
X416299536Y-49330136D01*
X416299530Y-49330144D01*
X416256685Y-49404355D01*
X416256682Y-49404362D01*
X416234500Y-49487147D01*
X416234500Y-51620500D01*
X416214815Y-51687539D01*
X416162011Y-51733294D01*
X416110500Y-51744500D01*
X414469500Y-51744500D01*
X414402461Y-51724815D01*
X414356706Y-51672011D01*
X414345500Y-51620500D01*
X414345500Y-49487149D01*
X414345500Y-49487147D01*
X414323318Y-49404362D01*
X414323314Y-49404355D01*
X414280469Y-49330144D01*
X414280463Y-49330136D01*
X414219863Y-49269536D01*
X414219855Y-49269530D01*
X414145644Y-49226685D01*
X414145640Y-49226683D01*
X414145638Y-49226682D01*
X414062853Y-49204500D01*
X413977147Y-49204500D01*
X413894362Y-49226682D01*
X413894355Y-49226685D01*
X413820144Y-49269530D01*
X413820136Y-49269536D01*
X413759536Y-49330136D01*
X413759530Y-49330144D01*
X413716685Y-49404355D01*
X413716682Y-49404362D01*
X413694500Y-49487147D01*
X413694500Y-52112852D01*
X413716682Y-52195637D01*
X413716685Y-52195644D01*
X413759530Y-52269855D01*
X413759534Y-52269860D01*
X413759535Y-52269862D01*
X413820138Y-52330465D01*
X413820140Y-52330466D01*
X413820144Y-52330469D01*
X413894355Y-52373314D01*
X413894362Y-52373318D01*
X413977147Y-52395500D01*
X414062853Y-52395500D01*
X415247147Y-52395500D01*
X416517147Y-52395500D01*
X416602853Y-52395500D01*
X417787147Y-52395500D01*
X419057147Y-52395500D01*
X419142853Y-52395500D01*
X421597147Y-52395500D01*
X421682853Y-52395500D01*
X423730500Y-52395500D01*
X423797539Y-52415185D01*
X423843294Y-52467989D01*
X423854500Y-52519500D01*
X423854500Y-53216000D01*
X423834815Y-53283039D01*
X423782011Y-53328794D01*
X423730500Y-53340000D01*
X416560000Y-53340000D01*
X416560000Y-60960000D01*
X423730500Y-60960000D01*
X423797539Y-60979685D01*
X423843294Y-61032489D01*
X423854500Y-61084000D01*
X423854500Y-61780500D01*
X423834815Y-61847539D01*
X423782011Y-61893294D01*
X423730500Y-61904500D01*
X414469500Y-61904500D01*
X414402461Y-61884815D01*
X414356706Y-61832011D01*
X414345500Y-61780500D01*
X414345500Y-53297149D01*
X414345500Y-53297147D01*
X414323318Y-53214362D01*
X414323314Y-53214355D01*
X414280469Y-53140144D01*
X414280463Y-53140136D01*
X414219863Y-53079536D01*
X414219855Y-53079530D01*
X414145644Y-53036685D01*
X414145640Y-53036683D01*
X414145638Y-53036682D01*
X414062853Y-53014500D01*
X413977147Y-53014500D01*
X413894362Y-53036682D01*
X413894355Y-53036685D01*
X413820144Y-53079530D01*
X413820136Y-53079536D01*
X413759536Y-53140136D01*
X413759530Y-53140144D01*
X413716685Y-53214355D01*
X413716682Y-53214362D01*
X413694500Y-53297147D01*
X413694500Y-327702852D01*
X413716682Y-327785637D01*
X413716685Y-327785644D01*
X413759530Y-327859855D01*
X413759534Y-327859860D01*
X413759535Y-327859862D01*
X413820138Y-327920465D01*
X413820140Y-327920466D01*
X413820144Y-327920469D01*
X413894355Y-327963314D01*
X413894362Y-327963318D01*
X413977147Y-327985500D01*
X413977149Y-327985500D01*
X414062851Y-327985500D01*
X414062853Y-327985500D01*
X414145638Y-327963318D01*
X414219862Y-327920465D01*
X414280465Y-327859862D01*
X414323318Y-327785638D01*
X414345500Y-327702853D01*
X414345500Y-62679500D01*
X414365185Y-62612461D01*
X414417989Y-62566706D01*
X414469500Y-62555500D01*
X416110500Y-62555500D01*
X416177539Y-62575185D01*
X416223294Y-62627989D01*
X416234500Y-62679500D01*
X416234500Y-327702852D01*
X416256682Y-327785637D01*
X416256685Y-327785644D01*
X416299530Y-327859855D01*
X416299534Y-327859860D01*
X416299535Y-327859862D01*
X416360138Y-327920465D01*
X416360140Y-327920466D01*
X416360144Y-327920469D01*
X416434355Y-327963314D01*
X416434362Y-327963318D01*
X416517147Y-327985500D01*
X416517149Y-327985500D01*
X416602851Y-327985500D01*
X416602853Y-327985500D01*
X416685638Y-327963318D01*
X416759862Y-327920465D01*
X416820465Y-327859862D01*
X416863318Y-327785638D01*
X416885500Y-327702853D01*
X416885500Y-62679500D01*
X416905185Y-62612461D01*
X416957989Y-62566706D01*
X417009500Y-62555500D01*
X418650500Y-62555500D01*
X418717539Y-62575185D01*
X418763294Y-62627989D01*
X418774500Y-62679500D01*
X418774500Y-327702852D01*
X418796682Y-327785637D01*
X418796685Y-327785644D01*
X418839530Y-327859855D01*
X418839534Y-327859860D01*
X418839535Y-327859862D01*
X418900138Y-327920465D01*
X418900140Y-327920466D01*
X418900144Y-327920469D01*
X418974355Y-327963314D01*
X418974362Y-327963318D01*
X419057147Y-327985500D01*
X419057149Y-327985500D01*
X419142851Y-327985500D01*
X419142853Y-327985500D01*
X419225638Y-327963318D01*
X419299862Y-327920465D01*
X419360465Y-327859862D01*
X419403318Y-327785638D01*
X419425500Y-327702853D01*
X419425500Y-62679500D01*
X419445185Y-62612461D01*
X419497989Y-62566706D01*
X419549500Y-62555500D01*
X421190500Y-62555500D01*
X421257539Y-62575185D01*
X421303294Y-62627989D01*
X421314500Y-62679500D01*
X421314500Y-327702852D01*
X421336682Y-327785637D01*
X421336685Y-327785644D01*
X421379530Y-327859855D01*
X421379534Y-327859860D01*
X421379535Y-327859862D01*
X421440138Y-327920465D01*
X421440140Y-327920466D01*
X421440144Y-327920469D01*
X421514355Y-327963314D01*
X421514362Y-327963318D01*
X421597147Y-327985500D01*
X421597149Y-327985500D01*
X421682851Y-327985500D01*
X421682853Y-327985500D01*
X421765638Y-327963318D01*
X421839862Y-327920465D01*
X421900465Y-327859862D01*
X421943318Y-327785638D01*
X421965500Y-327702853D01*
X421965500Y-62679500D01*
X421985185Y-62612461D01*
X422037989Y-62566706D01*
X422089500Y-62555500D01*
X423730500Y-62555500D01*
X423797539Y-62575185D01*
X423843294Y-62627989D01*
X423854500Y-62679500D01*
X423854500Y-348022852D01*
X423876682Y-348105637D01*
X423876685Y-348105644D01*
X423919530Y-348179855D01*
X423919534Y-348179860D01*
X423919535Y-348179862D01*
X423980138Y-348240465D01*
X423980140Y-348240466D01*
X423980144Y-348240469D01*
X424054355Y-348283314D01*
X424054362Y-348283318D01*
X424137147Y-348305500D01*
X424137149Y-348305500D01*
X424222851Y-348305500D01*
X424222853Y-348305500D01*
X424305638Y-348283318D01*
X424379862Y-348240465D01*
X424440465Y-348179862D01*
X424483318Y-348105638D01*
X424505500Y-348022853D01*
X424505500Y-62187147D01*
X424505500Y-52027147D01*
X424505500Y-48709500D01*
X424525185Y-48642461D01*
X424577989Y-48596706D01*
X424629500Y-48585500D01*
X426270500Y-48585500D01*
X426337539Y-48605185D01*
X426383294Y-48657989D01*
X426394500Y-48709500D01*
X426394500Y-348022852D01*
X426416682Y-348105637D01*
X426416685Y-348105644D01*
X426459530Y-348179855D01*
X426459534Y-348179860D01*
X426459535Y-348179862D01*
X426520138Y-348240465D01*
X426520140Y-348240466D01*
X426520144Y-348240469D01*
X426594355Y-348283314D01*
X426594362Y-348283318D01*
X426677147Y-348305500D01*
X426677149Y-348305500D01*
X426762851Y-348305500D01*
X426762853Y-348305500D01*
X426845638Y-348283318D01*
X426919862Y-348240465D01*
X426980465Y-348179862D01*
X427023318Y-348105638D01*
X427045500Y-348022853D01*
X427045500Y-48709500D01*
X427065185Y-48642461D01*
X427117989Y-48596706D01*
X427169500Y-48585500D01*
X428810500Y-48585500D01*
X428877539Y-48605185D01*
X428923294Y-48657989D01*
X428934500Y-48709500D01*
X428934500Y-348022852D01*
X428956682Y-348105637D01*
X428956685Y-348105644D01*
X428999530Y-348179855D01*
X428999534Y-348179860D01*
X428999535Y-348179862D01*
X429060138Y-348240465D01*
X429060140Y-348240466D01*
X429060144Y-348240469D01*
X429134355Y-348283314D01*
X429134362Y-348283318D01*
X429217147Y-348305500D01*
X429217149Y-348305500D01*
X429302851Y-348305500D01*
X429302853Y-348305500D01*
X429385638Y-348283318D01*
X429459862Y-348240465D01*
X429520465Y-348179862D01*
X429563318Y-348105638D01*
X429585500Y-348022853D01*
X429585500Y-48217147D01*
X429563318Y-48134362D01*
X429563314Y-48134355D01*
X429520469Y-48060144D01*
X429520463Y-48060136D01*
X429459863Y-47999536D01*
X429459855Y-47999530D01*
X429385644Y-47956685D01*
X429385640Y-47956683D01*
X429385638Y-47956682D01*
X429302853Y-47934500D01*
X401362853Y-47934500D01*
X398822853Y-47934500D01*
X396282853Y-47934500D01*
X393742853Y-47934500D01*
X391202853Y-47934500D01*
X388662853Y-47934500D01*
X386122853Y-47934500D01*
X384042853Y-47934500D01*
X337862853Y-47934500D01*
X327702853Y-47934500D01*
X320082853Y-47934500D01*
X292142853Y-47934500D01*
X274362853Y-47934500D01*
X264202853Y-47934500D01*
X256582853Y-47934500D01*
X228642853Y-47934500D01*
X215942853Y-47934500D01*
X213402853Y-47934500D01*
X210862853Y-47934500D01*
X208322853Y-47934500D01*
X205782853Y-47934500D01*
X203242853Y-47934500D01*
X200702853Y-47934500D01*
X198162853Y-47934500D01*
X195622853Y-47934500D01*
X193082853Y-47934500D01*
X190542853Y-47934500D01*
X188002853Y-47934500D01*
X185462853Y-47934500D01*
X182922853Y-47934500D01*
X180382853Y-47934500D01*
X177842853Y-47934500D01*
X175302853Y-47934500D01*
X172762853Y-47934500D01*
X170222853Y-47934500D01*
X167682853Y-47934500D01*
X165142853Y-47934500D01*
X162602853Y-47934500D01*
X160062853Y-47934500D01*
X157522853Y-47934500D01*
X154982853Y-47934500D01*
X152442853Y-47934500D01*
X149902853Y-47934500D01*
X147362853Y-47934500D01*
X144822853Y-47934500D01*
X142282853Y-47934500D01*
X139742853Y-47934500D01*
X137202853Y-47934500D01*
X134662853Y-47934500D01*
X132122853Y-47934500D01*
X129582853Y-47934500D01*
X129497147Y-47934500D01*
X129414362Y-47956682D01*
X129414355Y-47956685D01*
X129340144Y-47999530D01*
X129340136Y-47999536D01*
X129279536Y-48060136D01*
X129279530Y-48060144D01*
X129236685Y-48134355D01*
X129236682Y-48134362D01*
X129214500Y-48217147D01*
X129214500Y-348022852D01*
X127750500Y-348022852D01*
X127750500Y-46594500D01*
X127770185Y-46527461D01*
X127822989Y-46481706D01*
X127874500Y-46470500D01*
X430925500Y-46470500D01*
X430992539Y-46490185D01*
G37*
%TD.AperFunction*%
%TD*%
M02*
