%TF.GenerationSoftware,KiCad,Pcbnew,8.0.0*%
%TF.CreationDate,2024-03-22T00:36:35-04:00*%
%TF.ProjectId,WaterSensor,57617465-7253-4656-9e73-6f722e6b6963,rev?*%
%TF.SameCoordinates,Original*%
%TF.FileFunction,Drillmap*%
%TF.FilePolarity,Positive*%
%FSLAX45Y45*%
G04 Gerber Fmt 4.5, Leading zero omitted, Abs format (unit mm)*
G04 Created by KiCad (PCBNEW 8.0.0) date 2024-03-22 00:36:35*
%MOMM*%
%LPD*%
G01*
G04 APERTURE LIST*
%ADD10C,0.100000*%
%ADD11C,0.200000*%
G04 APERTURE END LIST*
D10*
X12700000Y-4572000D02*
X43180000Y-4572000D01*
X43180000Y-35052000D01*
X12700000Y-35052000D01*
X12700000Y-4572000D01*
D11*
X12955777Y-35368484D02*
X12955777Y-35168484D01*
X12955777Y-35168484D02*
X13003396Y-35168484D01*
X13003396Y-35168484D02*
X13031967Y-35178008D01*
X13031967Y-35178008D02*
X13051015Y-35197055D01*
X13051015Y-35197055D02*
X13060539Y-35216103D01*
X13060539Y-35216103D02*
X13070062Y-35254198D01*
X13070062Y-35254198D02*
X13070062Y-35282770D01*
X13070062Y-35282770D02*
X13060539Y-35320865D01*
X13060539Y-35320865D02*
X13051015Y-35339912D01*
X13051015Y-35339912D02*
X13031967Y-35358960D01*
X13031967Y-35358960D02*
X13003396Y-35368484D01*
X13003396Y-35368484D02*
X12955777Y-35368484D01*
X13155777Y-35368484D02*
X13155777Y-35235150D01*
X13155777Y-35273246D02*
X13165301Y-35254198D01*
X13165301Y-35254198D02*
X13174824Y-35244674D01*
X13174824Y-35244674D02*
X13193872Y-35235150D01*
X13193872Y-35235150D02*
X13212920Y-35235150D01*
X13279586Y-35368484D02*
X13279586Y-35235150D01*
X13279586Y-35168484D02*
X13270062Y-35178008D01*
X13270062Y-35178008D02*
X13279586Y-35187531D01*
X13279586Y-35187531D02*
X13289110Y-35178008D01*
X13289110Y-35178008D02*
X13279586Y-35168484D01*
X13279586Y-35168484D02*
X13279586Y-35187531D01*
X13403396Y-35368484D02*
X13384348Y-35358960D01*
X13384348Y-35358960D02*
X13374824Y-35339912D01*
X13374824Y-35339912D02*
X13374824Y-35168484D01*
X13508158Y-35368484D02*
X13489110Y-35358960D01*
X13489110Y-35358960D02*
X13479586Y-35339912D01*
X13479586Y-35339912D02*
X13479586Y-35168484D01*
X13736729Y-35368484D02*
X13736729Y-35168484D01*
X13736729Y-35168484D02*
X13803396Y-35311341D01*
X13803396Y-35311341D02*
X13870062Y-35168484D01*
X13870062Y-35168484D02*
X13870062Y-35368484D01*
X14051015Y-35368484D02*
X14051015Y-35263722D01*
X14051015Y-35263722D02*
X14041491Y-35244674D01*
X14041491Y-35244674D02*
X14022443Y-35235150D01*
X14022443Y-35235150D02*
X13984348Y-35235150D01*
X13984348Y-35235150D02*
X13965301Y-35244674D01*
X14051015Y-35358960D02*
X14031967Y-35368484D01*
X14031967Y-35368484D02*
X13984348Y-35368484D01*
X13984348Y-35368484D02*
X13965301Y-35358960D01*
X13965301Y-35358960D02*
X13955777Y-35339912D01*
X13955777Y-35339912D02*
X13955777Y-35320865D01*
X13955777Y-35320865D02*
X13965301Y-35301817D01*
X13965301Y-35301817D02*
X13984348Y-35292293D01*
X13984348Y-35292293D02*
X14031967Y-35292293D01*
X14031967Y-35292293D02*
X14051015Y-35282770D01*
X14146253Y-35235150D02*
X14146253Y-35435150D01*
X14146253Y-35244674D02*
X14165301Y-35235150D01*
X14165301Y-35235150D02*
X14203396Y-35235150D01*
X14203396Y-35235150D02*
X14222443Y-35244674D01*
X14222443Y-35244674D02*
X14231967Y-35254198D01*
X14231967Y-35254198D02*
X14241491Y-35273246D01*
X14241491Y-35273246D02*
X14241491Y-35330389D01*
X14241491Y-35330389D02*
X14231967Y-35349436D01*
X14231967Y-35349436D02*
X14222443Y-35358960D01*
X14222443Y-35358960D02*
X14203396Y-35368484D01*
X14203396Y-35368484D02*
X14165301Y-35368484D01*
X14165301Y-35368484D02*
X14146253Y-35358960D01*
X14327205Y-35349436D02*
X14336729Y-35358960D01*
X14336729Y-35358960D02*
X14327205Y-35368484D01*
X14327205Y-35368484D02*
X14317682Y-35358960D01*
X14317682Y-35358960D02*
X14327205Y-35349436D01*
X14327205Y-35349436D02*
X14327205Y-35368484D01*
X14327205Y-35244674D02*
X14336729Y-35254198D01*
X14336729Y-35254198D02*
X14327205Y-35263722D01*
X14327205Y-35263722D02*
X14317682Y-35254198D01*
X14317682Y-35254198D02*
X14327205Y-35244674D01*
X14327205Y-35244674D02*
X14327205Y-35263722D01*
M02*
