%TF.GenerationSoftware,KiCad,Pcbnew,8.0.0*%
%TF.CreationDate,2024-03-19T23:38:46-04:00*%
%TF.ProjectId,WaterSensor,57617465-7253-4656-9e73-6f722e6b6963,rev?*%
%TF.SameCoordinates,Original*%
%TF.FileFunction,Legend,Bot*%
%TF.FilePolarity,Positive*%
%FSLAX46Y46*%
G04 Gerber Fmt 4.6, Leading zero omitted, Abs format (unit mm)*
G04 Created by KiCad (PCBNEW 8.0.0) date 2024-03-19 23:38:46*
%MOMM*%
%LPD*%
G01*
G04 APERTURE LIST*
%ADD10C,0.250000*%
%ADD11C,0.120000*%
G04 APERTURE END LIST*
D10*
X398228900Y-53593622D02*
X398168423Y-53412193D01*
X398168423Y-53412193D02*
X398168423Y-53109812D01*
X398168423Y-53109812D02*
X398228900Y-52988860D01*
X398228900Y-52988860D02*
X398289376Y-52928384D01*
X398289376Y-52928384D02*
X398410328Y-52867907D01*
X398410328Y-52867907D02*
X398531280Y-52867907D01*
X398531280Y-52867907D02*
X398652233Y-52928384D01*
X398652233Y-52928384D02*
X398712709Y-52988860D01*
X398712709Y-52988860D02*
X398773185Y-53109812D01*
X398773185Y-53109812D02*
X398833661Y-53351717D01*
X398833661Y-53351717D02*
X398894138Y-53472669D01*
X398894138Y-53472669D02*
X398954614Y-53533146D01*
X398954614Y-53533146D02*
X399075566Y-53593622D01*
X399075566Y-53593622D02*
X399196519Y-53593622D01*
X399196519Y-53593622D02*
X399317471Y-53533146D01*
X399317471Y-53533146D02*
X399377947Y-53472669D01*
X399377947Y-53472669D02*
X399438423Y-53351717D01*
X399438423Y-53351717D02*
X399438423Y-53049336D01*
X399438423Y-53049336D02*
X399377947Y-52867907D01*
X398168423Y-52323622D02*
X399438423Y-52323622D01*
X399377947Y-51053621D02*
X399438423Y-51174574D01*
X399438423Y-51174574D02*
X399438423Y-51356002D01*
X399438423Y-51356002D02*
X399377947Y-51537431D01*
X399377947Y-51537431D02*
X399256995Y-51658383D01*
X399256995Y-51658383D02*
X399136042Y-51718860D01*
X399136042Y-51718860D02*
X398894138Y-51779336D01*
X398894138Y-51779336D02*
X398712709Y-51779336D01*
X398712709Y-51779336D02*
X398470804Y-51718860D01*
X398470804Y-51718860D02*
X398349852Y-51658383D01*
X398349852Y-51658383D02*
X398228900Y-51537431D01*
X398228900Y-51537431D02*
X398168423Y-51356002D01*
X398168423Y-51356002D02*
X398168423Y-51235050D01*
X398168423Y-51235050D02*
X398228900Y-51053621D01*
X398228900Y-51053621D02*
X398289376Y-50993145D01*
X398289376Y-50993145D02*
X398712709Y-50993145D01*
X398712709Y-50993145D02*
X398712709Y-51235050D01*
X401977947Y-52867907D02*
X402038423Y-52988860D01*
X402038423Y-52988860D02*
X402038423Y-53170288D01*
X402038423Y-53170288D02*
X401977947Y-53351717D01*
X401977947Y-53351717D02*
X401856995Y-53472669D01*
X401856995Y-53472669D02*
X401736042Y-53533146D01*
X401736042Y-53533146D02*
X401494138Y-53593622D01*
X401494138Y-53593622D02*
X401312709Y-53593622D01*
X401312709Y-53593622D02*
X401070804Y-53533146D01*
X401070804Y-53533146D02*
X400949852Y-53472669D01*
X400949852Y-53472669D02*
X400828900Y-53351717D01*
X400828900Y-53351717D02*
X400768423Y-53170288D01*
X400768423Y-53170288D02*
X400768423Y-53049336D01*
X400768423Y-53049336D02*
X400828900Y-52867907D01*
X400828900Y-52867907D02*
X400889376Y-52807431D01*
X400889376Y-52807431D02*
X401312709Y-52807431D01*
X401312709Y-52807431D02*
X401312709Y-53049336D01*
X400768423Y-52263146D02*
X402038423Y-52263146D01*
X402038423Y-52263146D02*
X400768423Y-51537431D01*
X400768423Y-51537431D02*
X402038423Y-51537431D01*
X400768423Y-50932670D02*
X402038423Y-50932670D01*
X402038423Y-50932670D02*
X402038423Y-50630289D01*
X402038423Y-50630289D02*
X401977947Y-50448860D01*
X401977947Y-50448860D02*
X401856995Y-50327908D01*
X401856995Y-50327908D02*
X401736042Y-50267431D01*
X401736042Y-50267431D02*
X401494138Y-50206955D01*
X401494138Y-50206955D02*
X401312709Y-50206955D01*
X401312709Y-50206955D02*
X401070804Y-50267431D01*
X401070804Y-50267431D02*
X400949852Y-50327908D01*
X400949852Y-50327908D02*
X400828900Y-50448860D01*
X400828900Y-50448860D02*
X400768423Y-50630289D01*
X400768423Y-50630289D02*
X400768423Y-50932670D01*
X396252233Y-53533146D02*
X396252233Y-52565527D01*
X395768423Y-53049336D02*
X396736042Y-53049336D01*
X397038423Y-51356003D02*
X397038423Y-51960765D01*
X397038423Y-51960765D02*
X396433661Y-52021241D01*
X396433661Y-52021241D02*
X396494138Y-51960765D01*
X396494138Y-51960765D02*
X396554614Y-51839812D01*
X396554614Y-51839812D02*
X396554614Y-51537431D01*
X396554614Y-51537431D02*
X396494138Y-51416479D01*
X396494138Y-51416479D02*
X396433661Y-51356003D01*
X396433661Y-51356003D02*
X396312709Y-51295526D01*
X396312709Y-51295526D02*
X396010328Y-51295526D01*
X396010328Y-51295526D02*
X395889376Y-51356003D01*
X395889376Y-51356003D02*
X395828900Y-51416479D01*
X395828900Y-51416479D02*
X395768423Y-51537431D01*
X395768423Y-51537431D02*
X395768423Y-51839812D01*
X395768423Y-51839812D02*
X395828900Y-51960765D01*
X395828900Y-51960765D02*
X395889376Y-52021241D01*
X397038423Y-50932669D02*
X395768423Y-50509336D01*
X395768423Y-50509336D02*
X397038423Y-50086002D01*
D11*
%TO.C,R2*%
X394910367Y-67880001D02*
G75*
G02*
X395007405Y-69329358I417133J-699999D01*
G01*
%TO.C,J2*%
X394910000Y-54550000D02*
X396240000Y-54550000D01*
X394910000Y-55880000D02*
X394910000Y-54550000D01*
X397510000Y-57210000D02*
X397510000Y-54550000D01*
X402650000Y-54550000D02*
X397510000Y-54550000D01*
X402650000Y-57210000D02*
X397510000Y-57210000D01*
X402650000Y-57210000D02*
X402650000Y-54550000D01*
%TO.C,R3*%
X388202867Y-70420001D02*
G75*
G02*
X388299905Y-71869358I417133J-699999D01*
G01*
%TO.C,R1*%
X395540001Y-62017133D02*
G75*
G02*
X396989358Y-61920095I699999J417133D01*
G01*
%TO.C,Q1*%
X390470006Y-66570000D02*
X390470006Y-62970000D01*
X386020006Y-64770000D02*
G75*
G02*
X390458484Y-62931522I2600000J0D01*
G01*
X390458484Y-66608478D02*
G75*
G02*
X386020006Y-64770000I-1838478J1838478D01*
G01*
%TD*%
M02*
