M48
; DRILL file {KiCad 8.0.0} date 2024-03-19T23:39:01-0400
; FORMAT={-:-/ absolute / metric / decimal}
; #@! TF.CreationDate,2024-03-19T23:39:01-04:00
; #@! TF.GenerationSoftware,Kicad,Pcbnew,8.0.0
; #@! TF.FileFunction,Plated,1,2,PTH
FMAT,2
METRIC
; #@! TA.AperFunction,Plated,PTH,ViaDrill
T1C0.400
; #@! TA.AperFunction,Plated,PTH,ComponentDrill
T2C0.500
; #@! TA.AperFunction,Plated,PTH,ComponentDrill
T3C0.700
; #@! TA.AperFunction,Plated,PTH,ComponentDrill
T4C0.750
; #@! TA.AperFunction,Plated,PTH,ComponentDrill
T5C1.000
; #@! TA.AperFunction,Plated,PTH,ComponentDrill
T6C2.500
%
G90
G05
T1
X389.89Y-69.85
T2
X138.49Y-60.96
X139.039Y-59.634
X139.039Y-62.286
X140.365Y-59.085
X140.365Y-62.835
X140.365Y-335.28
X140.914Y-333.954
X140.914Y-336.606
X141.691Y-59.634
X141.691Y-62.286
X142.24Y-60.96
X142.24Y-333.405
X142.24Y-337.155
X143.566Y-333.954
X143.566Y-336.606
X144.115Y-335.28
X414.685Y-335.28
X415.234Y-333.954
X415.234Y-336.606
X416.56Y-333.405
X416.56Y-337.155
X417.886Y-333.954
X417.886Y-336.606
X418.435Y-335.28
X418.439Y-57.094
X418.988Y-55.768
X418.988Y-58.42
X420.314Y-55.219
X420.314Y-58.969
X421.64Y-55.768
X421.64Y-58.42
X422.189Y-57.094
T3
X386.72Y-71.12
X388.62Y-71.12
X393.428Y-68.58
X395.327Y-68.58
X396.24Y-61.6
X396.24Y-63.5
T4
X388.62Y-63.5
X388.62Y-64.77
X388.62Y-66.04
T5
X396.24Y-55.88
X398.78Y-55.88
X401.32Y-55.88
T6
X140.365Y-60.96
X142.24Y-335.28
X416.56Y-335.28
X420.314Y-57.094
M30
